<?xml version="1.0" standalone="no"?>
<!DOCTYPE svg PUBLIC "-//W3C//DTD SVG 1.1//EN" "http://www.w3.org/Graphics/SVG/1.1/DTD/svg11.dtd" >
<svg>
<metadata>
Created by FontForge 20090914 at Mon Jan 13 09:56:17 2020
 By www-data
Copyright (c) 2002, 2005 Parachute&#194;&#168;, www.parachute.gr.  All rights reserved.
</metadata>
<defs>
<font id="PFDinTextPro-Bold" horiz-adv-x="1818" >
  <font-face 
    font-family="PF DinText Pro"
    font-weight="700"
    font-stretch="normal"
    units-per-em="1000"
    panose-1="2 0 9 6 3 0 0 2 0 4"
    ascent="750"
    descent="-250"
    x-height="495"
    cap-height="696"
    bbox="-433.001 -313.003 1760 953"
    underline-thickness="90"
    underline-position="-25"
    unicode-range="U+0020-U+FB05"
  />
<missing-glyph horiz-adv-x="460" 
d="M0 700h460v-700h-460v700zM323 95l-93 167l-92 -167h185zM323 605h-187l94 -165zM95 199l83 152l-83 153v-305zM365 199v304l-83 -154z" />
    <glyph glyph-name="fj" unicode="fj" horiz-adv-x="574" 
d="M76 494v60c0 32.667 5.66699 60.667 17 84s26.833 42.5 46.5 57.5s42.667 26 69 33s54.5 10.5 84.5 10.5c34 0 68.167 -4.83301 102.5 -14.5s65.5 -29.167 93.5 -58.5l-79 -95c-14.667 14.667 -31.167 25.667 -49.5 33s-39.5 11 -63.5 11
c-17.333 0 -31.333 -2.5 -42 -7.5s-18.667 -11 -24 -18s-8.83301 -14.5 -10.5 -22.5s-2.5 -14.667 -2.5 -20v-53h285v-546c0 -44.667 -13.5 -80.5 -40.5 -107.5s-68.167 -40.5 -123.5 -40.5h-60v124h26c12 0 21.667 1.5 29 4.5s13 7 17 12s6.5 10.5 7.5 16.5
s1.5 12.333 1.5 19v408h-142v-384h-142v384h-56v110h56z" />
    <glyph glyph-name="ffj" unicode="ffj" horiz-adv-x="858" 
d="M216 0h-142v384h-56v110h56v40c0 32.667 5.66699 60.667 17 84s26.833 42.5 46.5 57.5s42.667 26 69 33s54.5 10.5 84.5 10.5c21.333 0 43 -1.83301 65 -5.5s43.667 -10.5 65 -20.5c19.333 15.333 42.333 26.833 69 34.5s55.667 11.5 87 11.5
c34 0 68.167 -4.83301 102.5 -14.5s65.5 -29.167 93.5 -58.5l-79 -95c-14.667 14.667 -31.167 25.667 -49.5 33s-39.5 11 -63.5 11c-17.333 0 -31.333 -2.5 -42 -7.5s-18.667 -11 -24 -18s-8.83301 -14.5 -10.5 -22.5s-2.5 -14.667 -2.5 -20v-53h285v-546
c0 -44.667 -13.5 -80.5 -40.5 -107.5s-68.167 -40.5 -123.5 -40.5h-60v124h26c12 0 21.667 1.5 29 4.5s13 7 17 12s6.5 10.5 7.5 16.5s1.5 12.333 1.5 19v408h-142v-384h-142v384h-144v-384zM360 494v60v14.5c0 4.33301 0.333008 8.83301 1 13.5
c-20.667 8.66699 -42.667 13 -66 13c-17.333 0 -31.333 -2.5 -42 -7.5s-18.667 -11 -24 -18s-8.83301 -14.5 -10.5 -22.5s-2.5 -14.667 -2.5 -20v-33h144z" />
    <glyph glyph-name="ff" unicode="ff" horiz-adv-x="622" 
d="M296 732c19.333 0 38.667 -1.33105 58 -3.99805s38.333 -7.66699 57 -15c13.333 11.333 29 19.666 47 24.999s37.333 8 58 8h96v-120h-68c-26 0 -39 -13.667 -39 -41v-90h97v-111h-97v-384h-142v384h-142v-384h-142v384h-56v111h56v42c0 32.667 5.33301 61.167 16 85.5
s25.5 44.666 44.5 60.999s41.833 28.5 68.5 36.5s56 12 88 12zM363.001 495.002l-0.00195312 102c-9.33301 3.33301 -19.166 6 -29.499 8s-21.5 3 -33.5 3c-18 0 -32.333 -2.5 -43 -7.5s-18.667 -11 -24 -18s-8.66602 -14.5 -9.99902 -22.5s-2 -14.667 -2 -20v-45h142z" />
    <glyph glyph-name="fi" unicode="fi" horiz-adv-x="574" 
d="M76 494v60c0 32.667 5.66699 60.667 17 84s26.833 42.5 46.5 57.5s42.667 26 69 33s54.5 10.5 84.5 10.5c34 0 68.167 -4.83301 102.5 -14.5s65.5 -29.167 93.5 -58.5l-79 -95c-14.667 14.667 -31.167 25.667 -49.5 33s-39.5 11 -63.5 11
c-17.333 0 -31.333 -2.5 -42 -7.5s-18.667 -11 -24 -18s-8.83301 -14.5 -10.5 -22.5s-2.5 -14.667 -2.5 -20v-53h285v-494h-143v384h-142v-384h-142v384h-56v110h56z" />
    <glyph glyph-name="fl" unicode="fl" horiz-adv-x="593" 
d="M520 0c-20 0 -39.3311 2.16699 -57.998 6.5s-35 12 -49 23s-25.167 26 -33.5 45s-12.5 43.167 -12.5 72.5v451c-16.667 5.33301 -30.167 8.5 -40.5 9.5s-20.166 1.5 -29.499 1.5c-17.333 0 -31.333 -2.5 -42 -7.5s-18.667 -11 -24 -18s-8.83301 -14.5 -10.5 -22.5
s-2.5 -14.667 -2.5 -20v-47h98v-110h-98v-384h-142v384h-56v110h56v54c0 32.667 5.16699 60.667 15.5 84s24.666 42.5 42.999 57.5s40.166 26 65.499 33s53 10.5 83 10.5c16 0 43.167 -1.83301 81.5 -5.5s86.833 -15.5 145.5 -35.5v-518c0 -22 4.16699 -35.833 12.5 -41.5
s19.166 -8.5 32.499 -8.5h16v-124h-51z" />
    <glyph glyph-name="ffi" unicode="ffi" horiz-adv-x="849" 
d="M218 0h-142v384h-56v110h56v40c0 32.667 5.66699 60.667 17 84s26.833 42.5 46.5 57.5s42.667 26 69 33s54.5 10.5 84.5 10.5c21.333 0 43 -1.83301 65 -5.5s43.667 -10.5 65 -20.5c19.333 15.333 42.333 26.833 69 34.5s55.667 11.5 87 11.5
c34 0 68.167 -4.83301 102.5 -14.5s65.5 -29.167 93.5 -58.5l-79 -95c-14.667 14.667 -31.167 25.667 -49.5 33s-39.5 11 -63.5 11c-17.333 0 -31.333 -2.5 -42 -7.5s-18.667 -11 -24 -18s-8.83301 -14.5 -10.5 -22.5s-2.5 -14.667 -2.5 -20v-53h285v-494h-143v384h-142
v-384h-142v384h-144v-384zM362 494v60v14.5c0 4.33301 0.333008 8.83301 1 13.5c-20.667 8.66699 -42.667 13 -66 13c-17.333 0 -31.333 -2.5 -42 -7.5s-18.667 -11 -24 -18s-8.83301 -14.5 -10.5 -22.5s-2.5 -14.667 -2.5 -20v-33h144z" />
    <glyph glyph-name="ffl" unicode="ffl" horiz-adv-x="849" 
d="M362 494v42v25c0 6 0.166992 10.5 0.5 13.5s0.5 5.5 0.5 7.5c-20.667 8.66699 -42.667 13 -66 13c-17.333 0 -31.333 -2.5 -42 -7.5s-18.667 -11 -24 -18s-8.83301 -14.5 -10.5 -22.5s-2.5 -14.667 -2.5 -20v-33h144zM579 739
c19.333 -0.666992 46.834 -3.33301 82.501 -8s79.167 -15.667 130.5 -33v-524c0 -22 4.16699 -35.833 12.5 -41.5s19.166 -8.5 32.499 -8.5h16v-124h-51c-20 0 -39.333 2.16699 -58 6.5s-35 12 -49 23s-25.167 26 -33.5 45s-12.5 43.167 -12.5 72.5v457
c-16.667 5.33301 -30 8.5 -40 9.5s-18.667 1.5 -26 1.5c-17.333 0 -31.333 -2.5 -42 -7.5s-18.667 -11 -24 -18s-8.83301 -14.5 -10.5 -22.5s-2.5 -14.667 -2.5 -20v-53h91v-110h-91v-384h-142v384h-144v-384h-142v384h-56v110h56v40c0 32.667 5.66699 60.667 17 84
s26.833 42.5 46.5 57.5s42.667 26 69 33s54.5 10.5 84.5 10.5c21.333 0 43 -1.83301 65 -5.5s43.667 -10.5 65 -20.5c19.333 15.333 42.333 26.833 69 34.5s55.667 11.5 87 11.5z" />
    <glyph glyph-name="ft" unicode="ft" horiz-adv-x="609" 
d="M501 384l-0.000976562 -209.001c0 -21.333 3.5 -35.166 10.5 -41.499s17.833 -9.5 32.5 -9.5h31v-124h-77c-40 0 -73.333 11.667 -100 35s-40 56 -40 98v251h-140v-384h-142v384h-56v111h56v86c0 24.667 4 46.167 12 64.5s18.833 33.5 32.5 45.5
s29.834 20.833 48.501 26.5s38.667 8.5 60 8.5h86v-120h-58c-26 0 -39 -13.667 -39 -41v-70h142v137h139v-136h75v-112h-73z" />
    <glyph glyph-name=".notdef" horiz-adv-x="460" 
d="M0 700h460v-700h-460v700zM323 95l-93 167l-92 -167h185zM323 605h-187l94 -165zM95 199l83 152l-83 153v-305zM365 199v304l-83 -154z" />
    <glyph glyph-name="space" unicode=" " horiz-adv-x="280" 
 />
    <glyph glyph-name="exclam" unicode="!" horiz-adv-x="294" 
d="M209 191h-123l-11 505h144zM74 0v128h147v-128h-147z" />
    <glyph glyph-name="quotedbl" unicode="&#x22;" horiz-adv-x="409" 
d="M223 469v227h124v-227h-124zM54 469v227h123v-227h-123z" />
    <glyph glyph-name="numbersign" unicode="#" horiz-adv-x="592" 
d="M447 301h92v-98h-106l-29 -203h-121l30 203h-83l-30 -203h-122l30 203h-85v98h101l14 95h-87v99h102l30 201h118l-29 -201h85l30 201h118l-29 -201h91v-99h-105zM243 301h85l15 95h-85z" />
    <glyph glyph-name="dollar" unicode="$" horiz-adv-x="550" 
d="M247 -3c-41.333 2.66699 -80.502 11.8359 -117.502 27.5029s-74.5 41.167 -112.5 76.5l86 110c26 -21.333 50.167 -37.666 72.5 -48.999s46.166 -18.333 71.499 -21v138c-25.333 9.33301 -49.833 19.833 -73.5 31.5s-45 25.834 -64 42.501s-34.167 36 -45.5 58
s-17 48 -17 78c0 28.667 4.66699 55.167 14 79.5s22.833 45.666 40.5 63.999s38.834 33.166 63.501 44.499s52 18.666 82 21.999v67h55v-66c37.333 -1.33301 72.833 -7.83301 106.5 -19.5s68.5 -29.834 104.5 -54.501l-76 -127c-28 18 -52.167 31.667 -72.5 41
s-41.166 15 -62.499 17v-131c36 -12 68.333 -24.833 97 -38.5s52.834 -29.334 72.501 -47.001s34.834 -37.5 45.501 -59.5s16 -47 16 -75c0 -32.667 -5.83301 -61.667 -17.5 -87s-27.834 -46.833 -48.501 -64.5s-45.167 -31.5 -73.5 -41.5s-58.833 -15.667 -91.5 -17v-102
h-55v103zM359.998 194.002c0 17.333 -5 31.1689 -15 41.502s-24.333 19.166 -43 26.499v-120c20.667 3.33301 35.5 9.66602 44.5 18.999s13.5 20.333 13.5 33zM201.998 501.005c0 -11.333 4.16699 -21.1699 12.5 -29.5029s19.166 -16.166 32.499 -23.499v106
c-13.333 -3.33301 -24.166 -9.16602 -32.499 -17.499s-12.5 -20.166 -12.5 -35.499z" />
    <glyph glyph-name="percent" unicode="%" horiz-adv-x="925" 
d="M850 125c0 -20 -4.16699 -38 -12.5 -54s-19.5 -29.5 -33.5 -40.5s-30 -19.333 -48 -25s-36.667 -8.5 -56 -8.5c-18.667 0 -36.834 2.83301 -54.501 8.5s-33.5 14 -47.5 25s-25.167 24.5 -33.5 40.5s-12.5 34 -12.5 54v166c0 20.667 4.16699 39 12.5 55
s19.5 29.5 33.5 40.5s29.833 19.333 47.5 25s35.834 8.5 54.501 8.5c19.333 0 38 -2.83301 56 -8.5s34 -14 48 -25s25.167 -24.5 33.5 -40.5s12.5 -34.333 12.5 -55v-166zM739 291c0 12.667 -3.66699 22 -11 28s-16.666 9 -27.999 9s-20.5 -3 -27.5 -9
s-10.5 -15.333 -10.5 -28v-165c0 -12 3.5 -21 10.5 -27s16.167 -9 27.5 -9s20.666 3 27.999 9s11 15 11 27v165zM372 404c0 -20 -4.16699 -38 -12.5 -54s-19.5 -29.5 -33.5 -40.5s-30 -19.333 -48 -25s-36.667 -8.5 -56 -8.5c-18.667 0 -36.834 2.83301 -54.501 8.5
s-33.5 14 -47.5 25s-25.167 24.5 -33.5 40.5s-12.5 34 -12.5 54v166c0 20.667 4.16699 39 12.5 55s19.5 29.5 33.5 40.5s29.833 19.333 47.5 25s35.834 8.5 54.501 8.5c19.333 0 38 -2.83301 56 -8.5s34 -14 48 -25s25.167 -24.5 33.5 -40.5s12.5 -34.333 12.5 -55v-166z
M261 570c0 12.667 -3.66699 22 -11 28s-16.666 9 -27.999 9s-20.5 -3 -27.5 -9s-10.5 -15.333 -10.5 -28v-165c0 -12 3.5 -21 10.5 -27s16.167 -9 27.5 -9s20.666 3 27.999 9s11 15 11 27v165zM308 -17h-117l425 730h118z" />
    <glyph glyph-name="ampersand" unicode="&#x26;" horiz-adv-x="662" 
d="M438 57c-24 -20 -49.835 -35.502 -77.502 -46.502s-56.834 -16.5 -87.501 -16.5c-36 0 -67.167 5.16699 -93.5 15.5s-48 24.166 -65 41.499s-29.5 37.333 -37.5 60s-12 46.334 -12 71.001c0 41.333 9.33301 78.5 28 111.5s48.334 64.5 89.001 94.5l-13 16
c-12.667 15.333 -23.5 33 -32.5 53s-13.5 43.333 -13.5 70c0 52 15.5 94 46.5 126s79.167 48 144.5 48c28.667 0 60.167 -4.5 94.5 -13.5s67.833 -27.5 100.5 -55.5l-77 -106c-25.333 21.333 -47.166 34.833 -65.499 40.5s-36.166 8.5 -53.499 8.5
c-16.667 0 -30.334 -4.5 -41.001 -13.5s-16 -20.167 -16 -33.5c0 -11.333 1.83301 -20.666 5.5 -27.999s10.167 -17.333 19.5 -30l158 -208c5.33301 12.667 10.166 27.334 14.499 44.001s7.83301 33.667 10.5 51l126 -33c-5.33301 -30 -13.666 -60.5 -24.999 -91.5
s-24.666 -58.167 -39.999 -81.5l121 -151h-165zM256.998 288.998c-18 -13.333 -32.667 -28.832 -44 -46.499s-17 -36.167 -17 -55.5c0 -18.667 6.66699 -34.334 20 -47.001s33 -19 59 -19c16 0 31.333 3.33301 46 10s28 14.667 40 24z" />
    <glyph glyph-name="quotesingle" unicode="'" horiz-adv-x="260" 
d="M68 469v227h123v-227h-123z" />
    <glyph glyph-name="parenleft" unicode="(" horiz-adv-x="373" 
d="M269 -142c-28 30.667 -54.5 63.334 -79.5 98.001s-46.833 71 -65.5 109s-33.5 77.167 -44.5 117.5s-16.5 81.166 -16.5 122.499c0 42.667 5.33301 84 16 124s25.167 78.667 43.5 116s39.666 73 63.999 107s50.5 66 78.5 96l86 -55
c-47.333 -62.667 -82 -127.5 -104 -194.5s-33 -129.833 -33 -188.5c0 -64 11.833 -129.833 35.5 -197.5s57.834 -131.5 102.501 -191.5z" />
    <glyph glyph-name="parenright" unicode=")" horiz-adv-x="373" 
d="M341 305c0 -41.333 -5.33105 -82.166 -15.998 -122.499s-25.334 -79.5 -44.001 -117.5s-40.5 -74.333 -65.5 -109s-51.5 -67.334 -79.5 -98.001l-84 63c45.333 60 79.666 123.833 102.999 191.5s35 133.5 35 197.5c0 58.667 -10.833 121.5 -32.5 188.5
s-56.5 131.833 -104.5 194.5l86 55c28 -30 54.333 -62 79 -96s46 -69.667 64 -107s32.333 -76 43 -116s16 -81.333 16 -124z" />
    <glyph glyph-name="asterisk" unicode="*" horiz-adv-x="464" 
d="M386 404l-91 -65l-59 103l-63 -103l-90 65l82 89l-114 26l32 102l111 -46l-13 119h113l-14 -119l110 46l32 -102l-116 -26z" />
    <glyph glyph-name="plus" unicode="+" horiz-adv-x="550" 
d="M337 240v-186h-124v186h-194v116h194v183h124v-183h194v-116h-194z" />
    <glyph glyph-name="comma" unicode="," horiz-adv-x="299" 
d="M63 -151l38 150h-36v166h169v-158l-98 -158h-73z" />
    <glyph glyph-name="hyphen" unicode="-" horiz-adv-x="440" 
d="M47 192v131h346v-131h-346z" />
    <glyph glyph-name="period" unicode="." horiz-adv-x="297" 
d="M64 0v165h169v-165h-169z" />
    <glyph glyph-name="slash" unicode="/" horiz-adv-x="368" 
d="M103 -42h-119l253 767h120z" />
    <glyph glyph-name="zero" unicode="0" horiz-adv-x="550" 
d="M506 204c0 -33.333 -6.16699 -63 -18.5 -89s-28.833 -47.833 -49.5 -65.5s-44.334 -31.167 -71.001 -40.5s-54.334 -14 -83.001 -14c-28 0 -55.333 4.66699 -82 14s-50.167 22.833 -70.5 40.5s-36.666 39.5 -48.999 65.5s-18.5 55.667 -18.5 89v287
c0 33.333 6.16699 63 18.5 89s28.666 48 48.999 66s43.833 31.667 70.5 41s54 14 82 14c28.667 0 56.334 -4.66699 83.001 -14s50.334 -23 71.001 -41s37.167 -40 49.5 -66s18.5 -55.667 18.5 -89v-287zM358 491c0 26 -6.83301 45.333 -20.5 58s-31.5 19 -53.5 19
s-39.667 -6.33301 -53 -19s-20 -32 -20 -58v-286c0 -26 6.66699 -45.333 20 -58s31 -19 53 -19s39.833 6.33301 53.5 19s20.5 32 20.5 58v286z" />
    <glyph glyph-name="one" unicode="1" horiz-adv-x="550" 
d="M253 0v531l-104 -72v154l120 83h131v-696h-147z" />
    <glyph glyph-name="two" unicode="2" horiz-adv-x="550" 
d="M54 498c3.33301 31.333 11.499 59.5 24.499 84.5s29.5 46.333 49.5 64s42.5 31.167 67.5 40.5s51.167 14 78.5 14c32 0 61.667 -4 89 -12s51 -20.333 71 -37s35.667 -37.334 47 -62.001s17 -53.667 17 -87c0 -25.333 -4.33301 -50.333 -13 -75s-20.667 -46 -36 -64
l-198 -226h246v-138h-445v123l278 319c12.667 14.667 19 31.334 19 50.001c0 18 -6.16699 34.333 -18.5 49s-30.166 22 -53.499 22c-19.333 0 -36.333 -6.83301 -51 -20.5s-24 -36.5 -28 -68.5z" />
    <glyph glyph-name="three" unicode="3" horiz-adv-x="550" 
d="M187 198c4 -22.667 13.8311 -39.1709 29.498 -49.5039s33.834 -15.5 54.501 -15.5c21.333 0 40.166 7 56.499 21s24.5 34 24.5 60c0 25.333 -7.5 46.166 -22.5 62.499s-38.5 24.5 -70.5 24.5h-60v115h62c32 0 54.667 7.66699 68 23s20 32.666 20 51.999
c0 20.667 -7.66699 37.834 -23 51.501s-33.666 20.5 -54.999 20.5c-15.333 0 -30.666 -5.16699 -45.999 -15.5s-25.333 -29.5 -30 -57.5l-141 25c6 30 16.167 56.5 30.5 79.5s31.5 42.333 51.5 58s42 27.667 66 36s49 12.5 75 12.5c39.333 0 73.5 -5.5 102.5 -16.5
s52.833 -25.667 71.5 -44s32.5 -39.666 41.5 -63.999s13.5 -49.833 13.5 -76.5c0 -11.333 -2.16699 -24 -6.5 -38s-10.5 -27.5 -18.5 -40.5s-17.667 -25.167 -29 -36.5s-24.333 -20 -39 -26c16.667 -7.33301 31.167 -16.666 43.5 -27.999s22.5 -23.666 30.5 -36.999
s13.833 -27.166 17.5 -41.499s5.5 -27.833 5.5 -40.5c0 -32 -5.66699 -61.333 -17 -88s-27.166 -49.5 -47.499 -68.5s-45 -33.833 -74 -44.5s-61.167 -16 -96.5 -16c-24.667 0 -49.167 3.33301 -73.5 10s-47 17.334 -68 32.001s-39.333 33.5 -55 56.5
s-26.834 51.167 -33.501 84.5z" />
    <glyph glyph-name="four" unicode="4" horiz-adv-x="550" 
d="M471 97v-97h-147v97h-296v115l241 484h164l-235 -466h126v182h147v-182h56v-133h-56z" />
    <glyph glyph-name="five" unicode="5" horiz-adv-x="550" 
d="M204 204c4 -28 13 -46.833 27 -56.5s30.667 -14.5 50 -14.5c16.667 0 30.167 3.66699 40.5 11s18.333 16.666 24 27.999s9.5 23.833 11.5 37.5s3 27.167 3 40.5c0 14 -1.16699 27.5 -3.5 40.5s-6.5 24.5 -12.5 34.5s-14.167 17.833 -24.5 23.5s-23.166 8.5 -38.499 8.5
c-11.333 0 -24 -4.33301 -38 -13s-25.667 -23.667 -35 -45h-134v397h414v-135h-273v-108c13.333 11.333 30.166 19.833 50.499 25.5s38.5 8.5 54.5 8.5c35.333 0 65 -5.5 89 -16.5s43.333 -26.333 58 -46s25.5 -43 32.5 -70s11.167 -56.5 12.5 -88.5
c0 -42 -4.66699 -79.667 -14 -113s-23.5 -61.666 -42.5 -84.999s-42.667 -41.333 -71 -54s-61.5 -19 -99.5 -19c-23.333 0 -47 2.66699 -71 8s-46.5 14.666 -67.5 27.999s-39.333 31.833 -55 55.5s-26.5 53.834 -32.5 90.501z" />
    <glyph glyph-name="six" unicode="6" horiz-adv-x="550" 
d="M509 225c0 -40.667 -6.66699 -75.4961 -20 -104.496s-31 -52.833 -53 -71.5s-46.833 -32.334 -74.5 -41.001s-55.834 -13 -84.501 -13c-27.333 0 -54 4.83301 -80 14.5s-49.167 23.834 -69.5 42.501s-36.666 41.667 -48.999 69s-18.5 58.666 -18.5 93.999
c0 21.333 2.33301 42 7 62s11.667 39 21 57l193 362h165l-145 -273l1 -2c32 3.33301 60.833 0.666016 86.5 -8.00098s47.5 -21.834 65.5 -39.501s31.667 -39.334 41 -65.001s14 -53.5 14 -83.5zM358 217.004c0 30 -7.50098 51.668 -22.501 65.001s-32.833 20 -53.5 20
c-20 0 -37.5 -6.66699 -52.5 -20s-22.5 -35 -22.5 -65s6.83301 -51.5 20.5 -64.5s31.834 -19.5 54.501 -19.5c8.66699 0 17.5 1.5 26.5 4.5s17.167 8 24.5 15s13.333 15.667 18 26s7 23.166 7 38.499z" />
    <glyph glyph-name="seven" unicode="7" horiz-adv-x="550" 
d="M246 0h-155l235 558h-126v-94h-147v232h443v-123z" />
    <glyph glyph-name="eight" unicode="8" horiz-adv-x="550" 
d="M427 359c16 -6 29.8271 -14.499 41.4941 -25.499s21.334 -23.333 29.001 -37s13.334 -28.167 17.001 -43.5s5.5 -30 5.5 -44c0 -32 -6.33301 -61.167 -19 -87.5s-29.667 -48.833 -51 -67.5s-46.166 -33.167 -74.499 -43.5s-58.5 -15.5 -90.5 -15.5
s-62.167 5.16699 -90.5 15.5s-53.166 24.833 -74.499 43.5s-38.333 41.167 -51 67.5s-19 55.5 -19 87.5c0 14 1.66699 28.5 5 43.5s8.83301 29.167 16.5 42.5s17.334 25.666 29.001 36.999s25.5 20 41.5 26v5c-13.333 5.33301 -25 12.833 -35 22.5s-18.167 20.5 -24.5 32.5
s-11 24.667 -14 38s-4.5 26.666 -4.5 39.999c0 29.333 5.5 56.5 16.5 81.5s26.333 46.667 46 65s43 32.666 70 42.999s56.5 15.5 88.5 15.5c37.333 0 69.833 -5.16699 97.5 -15.5s50.834 -24.666 69.501 -42.999s32.5 -40 41.5 -65s13.5 -52.167 13.5 -81.5
c0 -26.667 -6.33301 -52.167 -19 -76.5s-33 -43.166 -61 -56.499v-4zM360.994 492.001c0 22 -6.66797 40.499 -20.001 55.499s-32 22.5 -56 22.5c-23.333 0 -41.666 -7.16699 -54.999 -21.5s-20 -33.166 -20 -56.499s7.5 -40.833 22.5 -52.5s32.5 -17.5 52.5 -17.5
s37.667 6.33301 53 19s23 29.667 23 51zM372.993 214c0 22.667 -8.66699 41.667 -26 57s-38 23 -62 23c-12 0 -23.333 -2 -34 -6s-20 -9.66699 -28 -17s-14.333 -15.833 -19 -25.5s-7 -20.167 -7 -31.5c0 -23.333 8 -43.333 24 -60s37.333 -25 64 -25
c27.333 0 48.833 8.33301 64.5 25s23.5 36.667 23.5 60z" />
    <glyph glyph-name="nine" unicode="9" horiz-adv-x="550" 
d="M60 471c0 40.667 6.66895 75.4961 20.002 104.496s30.833 52.833 52.5 71.5s46.334 32.334 74.001 41.001s55.834 13 84.501 13c27.333 0 54.166 -4.83301 80.499 -14.5s49.666 -23.834 69.999 -42.501s36.666 -41.667 48.999 -69s18.5 -58.666 18.5 -93.999
c0 -21.333 -2.33301 -42 -7 -62s-12 -39 -22 -57l-193 -362h-165l145 273l-1 2c-32 -3.33301 -60.833 -0.666016 -86.5 8.00098s-47.334 21.834 -65.001 39.501s-31.167 39.334 -40.5 65.001s-14 53.5 -14 83.5zM208.002 478.996c0 -30 7.33203 -51.666 21.999 -64.999
s32.334 -20 53.001 -20c20 0 37.667 6.66699 53 20s23 35 23 65s-7 51.5 -21 64.5s-32.333 19.5 -55 19.5c-8 0 -16.5 -1.5 -25.5 -4.5s-17.167 -8 -24.5 -15s-13.333 -15.833 -18 -26.5s-7 -23.334 -7 -38.001z" />
    <glyph glyph-name="colon" unicode=":" horiz-adv-x="303" 
d="M67 0v165h169v-165h-169zM67 268v165h169v-165h-169z" />
    <glyph glyph-name="semicolon" unicode=";" horiz-adv-x="303" 
d="M67 268v165h169v-165h-169zM65 -151l38 150h-36v166h169v-158l-98 -158h-73z" />
    <glyph glyph-name="less" unicode="&#x3c;" horiz-adv-x="550" 
d="M18 242v112l511 223v-131l-353 -149l353 -149v-131z" />
    <glyph glyph-name="equal" unicode="=" horiz-adv-x="550" 
d="M18 357v111h514v-111h-514zM18 128v111h514v-111h-514z" />
    <glyph glyph-name="greater" unicode="&#x3e;" horiz-adv-x="550" 
d="M19 17v131l353 149l-353 149v131l511 -223v-112z" />
    <glyph glyph-name="question" unicode="?" horiz-adv-x="522" 
d="M33 491c3.33301 33.333 12.0039 63.002 26.0039 89.002s31.667 48 53 66s45.166 31.667 71.499 41s53.166 14 80.499 14c34.667 0 65.5 -5 92.5 -15s50 -23.833 69 -41.5s33.5 -38.667 43.5 -63s15 -50.5 15 -78.5c0 -21.333 -3.66699 -40.333 -11 -57
s-16.5 -32.334 -27.5 -47.001s-23 -28.834 -36 -42.501s-25 -27.5 -36 -41.5s-20.167 -29 -27.5 -45s-11 -34 -11 -54v-22h-147v27c0 19.333 1.66699 36.833 5 52.5s8.66602 31.167 15.999 46.5s16.666 31.333 27.999 48s25.333 35.667 42 57c8.66699 10.667 18 23 28 37
s15 28 15 42c0 18 -6.83301 32.333 -20.5 43s-29.167 16 -46.5 16c-22 0 -39.833 -6.83301 -53.5 -20.5s-21.167 -36.5 -22.5 -68.5zM188.004 0.00195312v128h147v-128h-147z" />
    <glyph glyph-name="at" unicode="@" horiz-adv-x="920" 
d="M626 258c0 -4 0.50293 -8.33398 1.50293 -13.001s3 -9.16699 6 -13.5s7.16699 -8 12.5 -11s12 -4.5 20 -4.5c18 0 32.667 4.66699 44 14s20.166 21.833 26.499 37.5s10.5 33.5 12.5 53.5s3 40.667 3 62c0 40 -7.16699 76.167 -21.5 108.5s-34.166 59.833 -59.499 82.5
s-55 40.167 -89 52.5s-70.667 18.5 -110 18.5c-45.333 0 -86.833 -8.33301 -124.5 -25s-70.167 -39.167 -97.5 -67.5s-48.666 -61.666 -63.999 -99.999s-23 -79.166 -23 -122.499c0 -45.333 8.16699 -86.5 24.5 -123.5s38.833 -68.833 67.5 -95.5
s62.5 -47.334 101.5 -62.001s81.5 -22 127.5 -22c24.667 0 47.5 1.16699 68.5 3.5s40.667 5.83301 59 10.5s36.166 10.167 53.499 16.5s34.666 13.5 51.999 21.5l32 -87c-22 -8.66699 -43.333 -16.5 -64 -23.5s-41.334 -12.833 -62.001 -17.5s-42 -8.16699 -64 -10.5
s-45.333 -3.5 -70 -3.5c-60 0 -116 8.83301 -168 26.5s-97.167 43.334 -135.5 77.001s-68.333 75 -90 124s-32.5 104.833 -32.5 167.5c0 56.667 10.5 109.5 31.5 158.5s49.833 91.167 86.5 126.5s80 63.166 130 83.499s104.333 30.5 163 30.5
c55.333 0 106.166 -8.16699 152.499 -24.5s86.166 -39.5 119.499 -69.5s59.166 -66.333 77.499 -109s27.5 -90.334 27.5 -143.001c0 -32 -3.16699 -63.833 -9.5 -95.5s-17.166 -59.834 -32.499 -84.501s-35.666 -44.667 -60.999 -60s-57 -23 -95 -23
c-9.33301 0 -19.666 1.33301 -30.999 4s-22.5 6.66699 -33.5 12s-21.167 12 -30.5 20s-16.333 17.667 -21 29h-4c-8.66699 -15.333 -23.167 -29.666 -43.5 -42.999s-43.5 -20 -69.5 -20c-20 0 -38.667 2.5 -56 7.5s-32.666 12.5 -45.999 22.5s-23.833 22.833 -31.5 38.5
s-11.5 34.5 -11.5 56.5c0 17.333 3.33301 33.666 10 48.999s16.167 28.833 28.5 40.5s27.666 20.834 45.999 27.501s39.5 10 63.5 10h92v13c0 4.66699 -0.5 9.83398 -1.5 15.501s-3.83301 11.167 -8.5 16.5s-11.667 9.83301 -21 13.5s-22 5.5 -38 5.5
c-22.667 0 -40 -2.33301 -52 -7s-25.333 -13 -40 -25l-56 75c25.333 22 51 37.167 77 45.5s54 12.5 84 12.5c21.333 0 42.166 -2.16699 62.499 -6.5s38.333 -12 54 -23s28.167 -25.5 37.5 -43.5s14 -40.333 14 -67zM515.003 289.999h-77c-10.667 0 -19.167 -1 -25.5 -3
s-11.333 -4.5 -15 -7.5s-6.16699 -6.33301 -7.5 -10s-2 -7.16699 -2 -10.5c0 -2.66699 0.666992 -6.16699 2 -10.5s4 -8.5 8 -12.5s9.66699 -7.5 17 -10.5s17 -4.5 29 -4.5c18.667 0 35.167 4.5 49.5 13.5s21.5 23.167 21.5 42.5v13z" />
    <glyph glyph-name="A" unicode="A" horiz-adv-x="660" 
d="M497 0l-52 142h-233l-52 -142h-162l270 696h121l270 -696h-162zM371 352l-41 138h-4l-40 -136l-26 -82h137z" />
    <glyph glyph-name="B" unicode="B" horiz-adv-x="637" 
d="M604 207c0 -31.333 -5.83496 -59.6689 -17.502 -85.002s-27.334 -47 -47.001 -65s-42.667 -32 -69 -42s-54.166 -15 -83.499 -15h-317v696h293c36.667 0 69.334 -4.83301 98.001 -14.5s52.834 -23.167 72.501 -40.5s34.5 -38.166 44.5 -62.499s15 -50.833 15 -79.5
c0 -25.333 -6.66699 -50.666 -20 -75.999s-35.666 -45.333 -66.999 -60v-4c16 -6 30 -14.667 42 -26s22.167 -24 30.5 -38s14.666 -28.667 18.999 -44s6.5 -30 6.5 -44zM429.998 491.997c0 19.333 -6.66699 35.167 -20 47.5s-36 18.5 -68 18.5h-118v-139h118
c32 0 54.667 7.33301 68 22s20 31.667 20 51zM445.998 213.998c0 10 -1.66797 19.6689 -5.00098 29.002s-8.66602 17.666 -15.999 24.999s-16.833 13.166 -28.5 17.499s-25.5 6.5 -41.5 6.5h-131v-154h131c32.667 0 56 7.66699 70 23s21 33 21 53z" />
    <glyph glyph-name="C" unicode="C" horiz-adv-x="600" 
d="M573 169c-17.333 -54.667 -48.5 -97.498 -93.5 -128.498s-100.167 -46.5 -165.5 -46.5c-45.333 0 -84.833 6.66699 -118.5 20s-61.667 32 -84 56s-39 52.667 -50 86s-16.5 70 -16.5 110v164c0 36 5.5 70.333 16.5 103s27.667 61.5 50 86.5s50.333 44.833 84 59.5
s73.167 22 118.5 22c66.667 0 122.167 -16.167 166.5 -48.5s75.166 -75.166 92.499 -128.499l-146 -52c-5.33301 24 -17.666 44.167 -36.999 60.5s-45 24.5 -77 24.5c-19.333 0 -36 -3.16699 -50 -9.5s-25.667 -14.833 -35 -25.5s-16.333 -22.834 -21 -36.501
s-7 -27.5 -7 -41.5v-189c0 -15.333 2.33301 -30 7 -44s11.667 -26.333 21 -37s21 -19.334 35 -26.001s30.667 -10 50 -10c31.333 0 56.833 8.16699 76.5 24.5s32.167 37.166 37.5 62.499z" />
    <glyph glyph-name="D" unicode="D" horiz-adv-x="657" 
d="M224 138h101c26 0 47.5 3.5 64.5 10.5s30.5 17 40.5 30s17.167 28.667 21.5 47s6.5 38.833 6.5 61.5v127c0 48 -10.5 83.833 -31.5 107.5s-55.833 35.5 -104.5 35.5h-98v-419zM347 696c52 0 98.999 -9.99805 140.999 -29.998s74 -53 96 -99
c12.667 -25.333 20.334 -55.333 23.001 -90s4 -73.667 4 -117c0 -48.667 -1.33301 -91 -4 -127s-9.66699 -67.667 -21 -95c-11.333 -26 -25.833 -47.833 -43.5 -65.5s-37.5 -31.834 -59.5 -42.501s-46 -18.334 -72 -23.001s-53 -7 -81 -7h-260v696h277z" />
    <glyph glyph-name="E" unicode="E" horiz-adv-x="585" 
d="M70 0v696h492v-138h-338v-141h288v-133h-288v-146h338v-138h-492z" />
    <glyph glyph-name="F" unicode="F" horiz-adv-x="566" 
d="M224 558v-147h288v-133h-288v-278h-154v696h492v-138h-338z" />
    <glyph glyph-name="G" unicode="G" horiz-adv-x="637" 
d="M318 701c66.667 0 122.169 -16.166 166.502 -48.499s75.166 -75.166 92.499 -128.499l-146 -52c-5.33301 24 -17.666 44.167 -36.999 60.5s-45 24.5 -77 24.5c-19.333 0 -36 -3.16699 -50 -9.5s-25.667 -14.833 -35 -25.5s-16.333 -22.834 -21 -36.501s-7 -27.5 -7 -41.5
v-189c0 -15.333 2.33301 -30 7 -44s11.667 -26.5 21 -37.5s21.166 -19.833 35.499 -26.5s31.166 -10 50.499 -10c16.667 0 32.167 3.16699 46.5 9.5s27 14.833 38 25.5s19.667 23 26 37s9.5 29 9.5 45v5h-142v128h294v-139c0 -36.667 -7.16699 -70.5 -21.5 -101.5
s-33.833 -57.833 -58.5 -80.5s-53.5 -40.334 -86.5 -53.001s-68.167 -19 -105.5 -19c-45.333 0 -84.833 6.66699 -118.5 20s-61.667 32 -84 56s-39 52.667 -50 86s-16.5 70 -16.5 110v164c0 36 5.5 70.333 16.5 103s27.667 61.5 50 86.5s50.333 44.833 84 59.5
s73.167 22 118.5 22z" />
    <glyph glyph-name="H" unicode="H" horiz-adv-x="674" 
d="M452 0v284h-228v-284h-154v696h154v-279h228v279h152v-696h-152z" />
    <glyph glyph-name="I" unicode="I" horiz-adv-x="294" 
d="M73 0v696h154v-696h-154z" />
    <glyph glyph-name="J" unicode="J" horiz-adv-x="511" 
d="M448 225c0 -44 -6.50098 -80.834 -19.501 -110.501s-30.167 -53.334 -51.5 -71.001s-46.166 -30.167 -74.499 -37.5s-57.833 -11 -88.5 -11c-20.667 0 -40.667 1.33301 -60 4s-38 7.5 -56 14.5s-35 16.5 -51 28.5s-30.667 27.333 -44 46l103 101
c17.333 -19.333 34.666 -33.166 51.999 -41.499s33 -12.5 47 -12.5c8.66699 0 18.334 1.16699 29.001 3.5s20.667 7 30 14s17 16.833 23 29.5s9 29.334 9 50.001v464h152v-471v0z" />
    <glyph glyph-name="K" unicode="K" horiz-adv-x="657" 
d="M495 0l-180 296l-91 -102v-194h-154v696h154v-298l2 -2l106 129l145 171h186l-244 -282l258 -414h-182z" />
    <glyph glyph-name="L" unicode="L" horiz-adv-x="585" 
d="M70 0v696h154v-558h338v-138h-492z" />
    <glyph glyph-name="M" unicode="M" horiz-adv-x="782" 
d="M568 0v331l-3 1l-63 -141l-47 -98h-118l-49 103l-61 136l-3 -3v-329h-154v696h139l94 -202l90 -209h4l87 209l92 202h145v-696h-153z" />
    <glyph glyph-name="N" unicode="N" horiz-adv-x="710" 
d="M506 0l-177 256l-103 166l-2 -1v-421h-154v696h137l146 -213l134 -209l2 1v421h154v-696h-137z" />
    <glyph glyph-name="O" unicode="O" horiz-adv-x="624" 
d="M310 701c42 0 79.832 -6.83105 113.499 -20.498s62.334 -32.5 86.001 -56.5s41.834 -52.667 54.501 -86s19 -69.333 19 -108v-164c0 -41.333 -6.5 -78.833 -19.5 -112.5s-31.333 -62.334 -55 -86.001s-52.334 -41.834 -86.001 -54.501s-71.167 -19 -112.5 -19
c-45.333 0 -84.833 7.33301 -118.5 22s-61.667 34.5 -84 59.5s-39 54 -50 87s-16.5 67.5 -16.5 103.5v164c0 36 5.5 70.333 16.5 103s27.667 61.5 50 86.5s50.333 44.833 84 59.5s73.167 22 118.5 22zM308.999 557.002c-19.333 0 -36 -3.16406 -50 -9.49707
s-25.667 -14.833 -35 -25.5s-16.333 -22.834 -21 -36.501s-7 -27.5 -7 -41.5v-189c0 -15.333 2.33301 -30 7 -44s11.667 -26.333 21 -37s21 -19.334 35 -26.001s30.667 -10 50 -10c37.333 0 66.166 11.167 86.499 33.5s30.5 50.166 30.5 83.499v189
c0 30.667 -10.167 57.167 -30.5 79.5s-49.166 33.5 -86.499 33.5z" />
    <glyph glyph-name="P" unicode="P" horiz-adv-x="609" 
d="M601 472c0 -31.333 -6.33301 -60.333 -19 -87s-29.834 -49.667 -51.501 -69s-47.167 -34.5 -76.5 -45.5s-60.666 -16.5 -93.999 -16.5h-136v-254h-154v696h287c36.667 0 70 -5.16699 100 -15.5s55.667 -25.166 77 -44.499s37.833 -42.833 49.5 -70.5
s17.5 -58.834 17.5 -93.501zM445 475c0 28 -8.33203 48.833 -24.999 62.5s-40.334 20.5 -71.001 20.5h-125v-166h129c25.333 0 47 7.5 65 22.5s27 35.167 27 60.5z" />
    <glyph glyph-name="Q" unicode="Q" horiz-adv-x="637" 
d="M559 -26l-81.002 63c-45.333 -28.667 -99 -43 -161 -43c-45.333 0 -84.833 7.33301 -118.5 22s-61.667 34.5 -84 59.5s-39 54 -50 87s-16.5 67.5 -16.5 103.5v164c0 36 5.5 70.333 16.5 103s27.667 61.5 50 86.5s50.333 44.833 84 59.5s73.167 22 118.5 22
c42 0 79.833 -6.83301 113.5 -20.5s62.334 -32.5 86.001 -56.5s41.834 -52.667 54.501 -86s19 -69.333 19 -108v-164c0 -48.667 -9.33301 -92.667 -28 -132l81 -65zM315.998 557c-19.333 0 -36.001 -3.16406 -50.001 -9.49707s-25.667 -14.833 -35 -25.5
s-16.333 -22.834 -21 -36.501s-7 -27.5 -7 -41.5v-189c0 -15.333 2.33301 -30 7 -44s11.667 -26.333 21 -37s21 -19.334 35 -26.001s30.667 -10 50 -10c10 0 20 1 30 3l-70 55l84 101l72 -58c0 2.66699 0.166992 5.16699 0.5 7.5s0.5 5.16602 0.5 8.49902v189
c0 30.667 -10.167 57.167 -30.5 79.5s-49.166 33.5 -86.499 33.5z" />
    <glyph glyph-name="R" unicode="R" horiz-adv-x="652" 
d="M434 0l-110 269h-100v-269h-154v696h308c30.667 0 59.5 -4.66699 86.5 -14s50.833 -22.833 71.5 -40.5s37 -39.5 49 -65.5s18 -55.667 18 -89c0 -42 -10.833 -79.833 -32.5 -113.5s-53.5 -59.5 -95.5 -77.5l133 -296h-174zM443 486c0 26 -8 44.667 -24 56s-37 17 -63 17
h-132v-152h127c28 0 50.333 6.66699 67 20s25 33 25 59z" />
    <glyph glyph-name="S" unicode="S" horiz-adv-x="594" 
d="M469 514c-16.667 10.667 -33.166 18.998 -49.499 24.998s-32 10.667 -47 14s-28.833 5.5 -41.5 6.5s-23.667 1.5 -33 1.5c-19.333 0 -34.833 -2 -46.5 -6s-21 -9.33301 -28 -16s-11.667 -13.834 -14 -21.501s-3.5 -14.834 -3.5 -21.501
c0 -11.333 2.16699 -20.666 6.5 -27.999s12 -13.666 23 -18.999s26 -10 45 -14s42.833 -8.33301 71.5 -13s56 -11.5 82 -20.5s48.833 -21.5 68.5 -37.5s35.334 -36.167 47.001 -60.5s17.5 -54.166 17.5 -89.499c0 -36 -8 -67.833 -24 -95.5s-36.833 -50.667 -62.5 -69
s-55 -32.166 -88 -41.499s-66.5 -14 -100.5 -14c-23.333 0 -47 1.16699 -71 3.5s-48 7 -72 14s-47.833 16.833 -71.5 29.5s-46.834 29 -69.501 49l89 118c32.667 -29.333 65.667 -48.833 99 -58.5s68 -14.5 104 -14.5c34 0 60 6.83301 78 20.5s27 29.834 27 48.501
c0 8.66699 -1 17 -3 25s-6.33301 15.5 -13 22.5s-16.334 13 -29.001 18s-29.334 8.5 -50.001 10.5c-33.333 3.33301 -65.333 8.66602 -96 15.999s-58 18.833 -82 34.5s-43.167 36 -57.5 61s-21.5 57.167 -21.5 96.5c0 36.667 7.16699 68.5 21.5 95.5s33 49.333 56 67
s48.833 30.667 77.5 39s57.334 12.5 86.001 12.5c42.667 0 85 -4.66699 127 -14s81.667 -26.333 119 -51z" />
    <glyph glyph-name="T" unicode="T" horiz-adv-x="556" 
d="M351 558v-558h-153v558h-190v138h533v-138h-190z" />
    <glyph glyph-name="U" unicode="U" horiz-adv-x="657" 
d="M600 243c0 -37.333 -7.16797 -71.167 -21.501 -101.5s-33.666 -56.333 -57.999 -78s-53 -38.5 -86 -50.5s-68.167 -18 -105.5 -18s-72.5 6.16699 -105.5 18.5s-61.833 29.666 -86.5 51.999s-44 49.333 -58 81s-21 66.834 -21 105.501v444h153v-433
c0 -40 11.5 -70.833 34.5 -92.5s50.833 -32.5 83.5 -32.5c34 0 62 9.66699 84 29s33 48.333 33 87v442h154v-453v0z" />
    <glyph glyph-name="V" unicode="V" horiz-adv-x="607" 
d="M365 0h-125l-241 696h162l89 -282l52 -177h5l49 174l88 285h161z" />
    <glyph glyph-name="W" unicode="W" horiz-adv-x="854" 
d="M667 -2h-124l-65 226l-49 190h-3l-50 -193l-64 -223h-125l-186 696h161l49 -206l44 -198h3l53 198l60 206h112l60 -205l53 -199h5l42 198l49 206h161z" />
    <glyph glyph-name="X" unicode="X" horiz-adv-x="629" 
d="M451 0l-139 226l-138 -226h-174l236 356l-223 340h175l124 -209l125 209h175l-223 -340l237 -356h-175z" />
    <glyph glyph-name="Y" unicode="Y" horiz-adv-x="605" 
d="M378 285v-285h-147v285l-224 411h165l71 -150l60 -135h4l59 134l72 151h165z" />
    <glyph glyph-name="Z" unicode="Z" horiz-adv-x="549" 
d="M28 0v131l306 428h-293v137h479v-127l-305 -428h305v-141h-492z" />
    <glyph glyph-name="bracketleft" unicode="[" horiz-adv-x="314" 
d="M67 -95v794h229v-106h-93v-583h93v-105h-229z" />
    <glyph glyph-name="backslash" unicode="\" horiz-adv-x="368" 
d="M-15 725h120l253 -767h-119z" />
    <glyph glyph-name="bracketright" unicode="]" horiz-adv-x="314" 
d="M18 -95v105h92v583h-92v106h228v-794h-228z" />
    <glyph glyph-name="asciicircum" unicode="^" horiz-adv-x="550" 
d="M391 237l-118 300l-119 -302h-130l194 460h112l191 -458h-130z" />
    <glyph glyph-name="underscore" unicode="_" horiz-adv-x="500" 
d="M0 -160v91h500v-91h-500z" />
    <glyph glyph-name="grave" unicode="`" horiz-adv-x="516" 
d="M257 537l-146 186l134 46l93 -194z" />
    <glyph glyph-name="a" unicode="a" horiz-adv-x="516" 
d="M326 0l0.00195312 46.002l-3 1c-8.66699 -10 -18.334 -18.333 -29.001 -25s-21.5 -12 -32.5 -16s-21.833 -6.83301 -32.5 -8.5s-20 -2.5 -28 -2.5c-24 0 -46.167 3 -66.5 9s-37.833 15.167 -52.5 27.5s-26.167 28 -34.5 47s-12.5 41.833 -12.5 68.5
c0 20.667 4 40.334 12 59.001s19.5 35 34.5 49s33.667 25 56 33s47.833 12 76.5 12h112v16c0 5.33301 -0.833008 11.5 -2.5 18.5s-5.33398 13.5 -11.001 19.5s-14 11.167 -25 15.5s-25.833 6.5 -44.5 6.5c-22.667 0 -43.667 -2.83301 -63 -8.5s-37.333 -15.834 -54 -30.501
l-69 97c30 27.333 62.167 45.166 96.5 53.499s69.166 12.5 104.499 12.5c28.667 0 55.834 -2.66699 81.501 -8s48 -14.5 67 -27.5s34 -30.333 45 -52s16.5 -48.834 16.5 -81.501v-331h-142zM326.002 196.002h-94.002c-12.667 0 -23 -1.16699 -31 -3.5
s-14.167 -5.33301 -18.5 -9s-7.16602 -7.66699 -8.49902 -12s-2 -8.5 -2 -12.5c0 -3.33301 0.833008 -7.5 2.5 -12.5s4.83398 -10 9.50098 -15s11.5 -9.33301 20.5 -13s20.833 -5.5 35.5 -5.5c22 0 41.833 5.33301 59.5 16s26.5 27.667 26.5 51v16z" />
    <glyph glyph-name="b" unicode="b" horiz-adv-x="533" 
d="M491 258c0 -26.667 -1.83301 -55.3359 -5.5 -86.0029s-11.834 -59.167 -24.501 -85.5s-30.834 -48.166 -54.501 -65.499s-55.5 -26 -95.5 -26c-17.333 0 -36.166 3.83301 -56.499 11.5s-37.5 19.167 -51.5 34.5l-2 -2v-39h-143v727h143v-272l2 -1
c6 6.66699 13.333 12.834 22 18.501s18 10.5 28 14.5s20.167 7.16699 30.5 9.5s19.5 3.5 27.5 3.5c39.333 0 70.833 -7.83301 94.5 -23.5s41.834 -35.5 54.501 -59.5s21 -50.167 25 -78.5s6 -55.166 6 -80.499zM345 247.998c0 13.333 -0.501953 26.999 -1.50195 40.999
s-4 26.833 -9 38.5s-12.333 21.334 -22 29.001s-23.167 11.5 -40.5 11.5c-16.667 0 -29.667 -3.83301 -39 -11.5s-16.333 -17.5 -21 -29.5s-7.66699 -25 -9 -39s-2 -27.333 -2 -40c0 -12 0.5 -25 1.5 -39s3.83301 -27.167 8.5 -39.5s11.834 -22.5 21.501 -30.5
s22.834 -12 39.501 -12c17.333 0 31 3.83301 41 11.5s17.333 17.5 22 29.5s7.5 25.167 8.5 39.5s1.5 27.833 1.5 40.5z" />
    <glyph glyph-name="c" unicode="c" horiz-adv-x="463" 
d="M444 70c-27.333 -24.667 -56.832 -43.5039 -88.499 -56.5039s-64.5 -19.5 -98.5 -19.5c-30.667 0 -59.834 4.83301 -87.501 14.5s-52 24.834 -73 45.501s-37.667 47 -50 79s-18.5 70 -18.5 114c0 44.667 6.5 82.834 19.5 114.501s30.5 57.834 52.5 78.501
s47.333 35.834 76 45.501s58.334 14.5 89.001 14.5c34 0 65.333 -5.66699 94 -17s55.667 -29.666 81 -54.999l-92 -97c-15.333 14.667 -29.833 25.167 -43.5 31.5s-26.834 9.5 -39.501 9.5c-28.667 0 -50.5 -9.66699 -65.5 -29s-22.5 -51.333 -22.5 -96
c0 -44 6.66699 -75.5 20 -94.5s35 -28.5 65 -28.5c13.333 0 27.333 3.16699 42 9.5s30 17.166 46 32.499l94 -96v0z" />
    <glyph glyph-name="d" unicode="d" horiz-adv-x="533" 
d="M340 0l-0.000976562 39.001l-2 2c-14.667 -15.333 -32 -26.833 -52 -34.5s-39 -11.5 -57 -11.5c-42.667 0 -76 8.66699 -100 26s-42 39.166 -54 65.499s-19.333 54.833 -22 85.5s-4 59.334 -4 86.001c0 24.667 2.66699 51.167 8 79.5s14.833 54.666 28.5 78.999
s32.334 44.5 56.001 60.5s54.167 24 91.5 24c19.333 0 38.333 -3.83301 57 -11.5s34.667 -19.167 48 -34.5l2 1v270h143v-726h-143zM339.999 248.001c0 12.667 -0.668945 26 -2.00195 40s-4.33301 27 -9 39s-11.667 21.833 -21 29.5s-22.333 11.5 -39 11.5
c-18 0 -32 -4.33301 -42 -13s-17.333 -19.667 -22 -33s-7.5 -27.833 -8.5 -43.5s-1.5 -30.167 -1.5 -43.5c0 -12 0.833008 -24.5 2.5 -37.5s5 -24.667 10 -35s12.333 -18.833 22 -25.5s22.5 -10 38.5 -10c16.667 0 29.834 4 39.501 12s16.834 18.167 21.501 30.5
s7.66699 25.5 9 39.5s2 27 2 39z" />
    <glyph glyph-name="e" unicode="e" horiz-adv-x="533" 
d="M183 210c3.33301 -32 11.9971 -54.502 25.9971 -67.502s33 -19.5 57 -19.5c12.667 0 29.334 3 50.001 9s41.334 18.333 62.001 37l88 -98c-32 -29.333 -66 -49.5 -102 -60.5s-70 -16.5 -102 -16.5c-27.333 0 -54.5 3.83301 -81.5 11.5s-51.333 21 -73 40
s-39.167 44.667 -52.5 77s-20 73.5 -20 123.5c0 46.667 6.5 86.167 19.5 118.5s30.167 58.5 51.5 78.5s45.5 34.5 72.5 43.5s54.5 13.5 82.5 13.5c39.333 0 73.333 -6.33301 102 -19s52.334 -30.167 71.001 -52.5s32.5 -49.166 41.5 -80.499s13.5 -65.666 13.5 -102.999v-35
h-306zM334.997 301.998c-2.66699 22.667 -11 40.167 -25 52.5s-30 18.5 -48 18.5s-34 -6.33301 -48 -19s-22.667 -30 -26 -52h147z" />
    <glyph glyph-name="f" unicode="f" horiz-adv-x="325" 
d="M218 384l-0.000976562 -384h-142v384h-56v111h56v86c0 24.667 4 46.167 12 64.5s18.833 33.5 32.5 45.5s29.834 20.833 48.501 26.5s38.667 8.5 60 8.5h86v-120h-58c-26 0 -39 -13.667 -39 -41v-70h97v-111h-97z" />
    <glyph glyph-name="g" unicode="g" horiz-adv-x="533" 
d="M474 13c0 -39.333 -6.5 -72.999 -19.5 -100.999s-30.167 -50.833 -51.5 -68.5s-46 -30.5 -74 -38.5s-57 -12 -87 -12s-60.667 4.33301 -92 13s-62 25.667 -92 51l70 99c20 -13.333 40.5 -22.5 61.5 -27.5s38.167 -7.5 51.5 -7.5c24.667 0 46 6.83301 64 20.5
s27 33.5 27 59.5v39l-2 1c-6 -7.33301 -13.167 -13.833 -21.5 -19.5s-17.166 -10.5 -26.499 -14.5s-18.833 -7.16699 -28.5 -9.5s-18.5 -3.5 -26.5 -3.5c-41.333 0 -74.333 7.83301 -99 23.5s-43.5 35.5 -56.5 59.5s-21.5 50.167 -25.5 78.5s-6 55.166 -6 80.499
c0 26.667 1.83301 55.334 5.5 86.001s12 59.167 25 85.5s31.667 48.166 56 65.499s57.5 26 99.5 26c18.667 0 36.667 -2.66699 54 -8s33.666 -16 48.999 -32l2 1v35h143v-482zM331 246.001c0 12 -0.498047 25.001 -1.49805 39.001s-3.83301 27.167 -8.5 39.5
s-11.834 22.5 -21.501 30.5s-22.834 12 -39.501 12c-17.333 0 -31 -3.83301 -41 -11.5s-17.5 -17.5 -22.5 -29.5s-8 -25.167 -9 -39.5s-1.5 -27.833 -1.5 -40.5c0 -13.333 0.666992 -27 2 -41s4.5 -26.833 9.5 -38.5s12.333 -21.334 22 -29.001s23.167 -11.5 40.5 -11.5
c16.667 0 29.667 3.83301 39 11.5s16.333 17.5 21 29.5s7.66699 25 9 39s2 27.333 2 40z" />
    <glyph glyph-name="h" unicode="h" horiz-adv-x="551" 
d="M348 0l0.00195312 292c0 25.333 -6.66699 44.333 -20 57s-30 19 -50 19c-21.333 0 -39.166 -6.33301 -53.499 -19s-21.5 -31.667 -21.5 -57v-292h-143v726h143v-266l4 -1c6.66699 6 14.667 11.5 24 16.5s19.166 9.33301 29.499 13s20.833 6.5 31.5 8.5s20.667 3 30 3
c23.333 0 45.166 -3.83301 65.499 -11.5s38.166 -19 53.499 -34s27.333 -33.667 36 -56s13 -47.833 13 -76.5v-322h-142z" />
    <glyph glyph-name="i" unicode="i" horiz-adv-x="269" 
d="M63 571v125h143v-125h-143zM63 0v495h143v-495h-143z" />
    <glyph glyph-name="j" unicode="j" horiz-adv-x="286" 
d="M72 571v125h143v-125h-143zM215 -52c0 -44.667 -13.5 -80.5 -40.5 -107.5s-68.167 -40.5 -123.5 -40.5h-60v124h26c12 0 21.667 1.5 29 4.5s13 7 17 12s6.5 10.5 7.5 16.5s1.5 12.333 1.5 19v520h143v-548z" />
    <glyph glyph-name="k" unicode="k" horiz-adv-x="533" 
d="M385 0l-133 196l-49 -53v-143h-143v726h143v-400l2 -1l65 78l86 92h178l-189 -200l203 -295h-163z" />
    <glyph glyph-name="l" unicode="l" horiz-adv-x="286" 
d="M213 0c-20 0 -39.332 2.16699 -57.999 6.5s-35 12 -49 23s-25.167 26 -33.5 45s-12.5 43.167 -12.5 72.5v579h143v-552c0 -22 4.16699 -35.833 12.5 -41.5s19.166 -8.5 32.499 -8.5h16v-124h-51z" />
    <glyph glyph-name="m" unicode="m" horiz-adv-x="838" 
d="M636 0l0.00195312 294c0 25.333 -7 44.333 -21 57s-31 19 -51 19c-21.333 0 -38.833 -6.33301 -52.5 -19s-20.5 -31.667 -20.5 -57v-294h-143v294c0 25.333 -7 44.333 -21 57s-31 19 -51 19c-21.333 0 -38.833 -6.33301 -52.5 -19s-20.5 -31.667 -20.5 -57v-294h-143v495
h143v-46l4 -1c12.667 15.333 31 27.833 55 37.5s47.333 14.5 70 14.5c29.333 0 54.666 -5.5 75.999 -16.5s38.333 -29.167 51 -54.5c18.667 19.333 41.167 36 67.5 50s54.166 21 83.499 21c52 0 93 -15 123 -45s45 -74.333 45 -133v-322h-142z" />
    <glyph glyph-name="n" unicode="n" horiz-adv-x="551" 
d="M348 0l-0.000976562 292c0 25.333 -6.66699 44.333 -20 57s-30 19 -50 19c-21.333 0 -39.166 -6.33301 -53.499 -19s-21.5 -31.667 -21.5 -57v-292h-143v495h143v-41h2c15.333 14 34.5 25.167 57.5 33.5s43.833 12.5 62.5 12.5c54 0 95 -15 123 -45s42 -74.333 42 -133
v-322h-142z" />
    <glyph glyph-name="o" unicode="o" horiz-adv-x="516" 
d="M265 501c38 0 72.666 -6.99902 103.999 -20.999s56.333 -34.667 75 -62c14 -20.667 24.167 -45.667 30.5 -75s9.16602 -62 8.49902 -98c0 -32.667 -3.33301 -61.834 -10 -87.501s-16 -48.5 -28 -68.5c-20.667 -33.333 -48.167 -57.666 -82.5 -72.999
s-71.166 -23 -110.499 -23c-38.667 0 -73.167 6.33301 -103.5 19s-54.833 32.667 -73.5 60c-15.333 22 -26.333 47.833 -33 77.5s-9.66699 62.5 -9 98.5c0.666992 25.333 3 50.333 7 75s10.333 46 19 64c17.333 37.333 44.333 65.666 81 84.999s78.334 29 125.001 29z
M259.999 373.001c-14 0 -26.8311 -3.83203 -38.498 -11.499s-20.834 -18.167 -27.501 -31.5c-5.33301 -10.667 -9 -23 -11 -37s-3.33301 -29.667 -4 -47c0 -17.333 1 -32.833 3 -46.5s5.66699 -25.5 11 -35.5c6 -12.667 14.333 -22.667 25 -30s23.334 -11 38.001 -11
c17.333 0 32.166 4.66699 44.499 14s21.166 22.666 26.499 39.999c2 7.33301 4 16.833 6 28.5s3 25.834 3 42.501c0.666992 18.667 -0.333008 35.167 -3 49.5s-5.66699 25.166 -9 32.499c-6 14.667 -14.833 25.5 -26.5 32.5s-24.167 10.5 -37.5 10.5z" />
    <glyph glyph-name="p" unicode="p" horiz-adv-x="533" 
d="M205 495l0.00195312 -35l3 -1c14 15.333 30.833 25.833 50.5 31.5s38.5 8.5 56.5 8.5c42.667 0 76.167 -8.5 100.5 -25.5s42.5 -38.167 54.5 -63.5s19.333 -53.166 22 -83.499s4 -58.833 4 -85.5c0 -25.333 -2.33301 -52.5 -7 -81.5s-13.667 -55.833 -27 -80.5
s-32.333 -45 -57 -61s-57.334 -24 -98.001 -24c-16.667 0 -34.834 3.66699 -54.501 11s-34.5 18.666 -44.5 33.999l-3 -1v-240h-142v697h142zM205.002 246c0 -12.667 0.665039 -26.167 1.99805 -40.5s4.5 -27.5 9.5 -39.5s12.167 -22 21.5 -30s22.333 -12 39 -12
s29.834 3.83301 39.501 11.5s17 17.5 22 29.5s8.16699 25.167 9.5 39.5s2 28.166 2 41.499c0 12.667 -0.5 26.167 -1.5 40.5s-3.83301 27.666 -8.5 39.999s-12 22.5 -22 30.5s-23.667 12 -41 12s-30.666 -4.16699 -39.999 -12.5s-16.5 -18.666 -21.5 -30.999
s-8 -25.666 -9 -39.999s-1.5 -27.5 -1.5 -39.5z" />
    <glyph glyph-name="q" unicode="q" horiz-adv-x="533" 
d="M51 236c0 26.667 2.00195 55.335 6.00195 86.002s12.5 59.167 25.5 85.5s32.167 48.166 57.5 65.499s59.666 26 102.999 26c17.333 0 34.166 -2.83301 50.499 -8.5s31.833 -16.167 46.5 -31.5l2 1v35h143v-697h-143v241l-2 1c-6 -6.66699 -13 -12.834 -21 -18.501
s-16.667 -10.5 -26 -14.5s-18.833 -7.16699 -28.5 -9.5s-18.5 -3.5 -26.5 -3.5c-41.333 0 -74.333 7.33301 -99 22s-43.5 33.667 -56.5 57s-21.5 49.333 -25.5 78s-6 57 -6 85zM197.002 246.001c0 -13.333 0.5 -27.166 1.5 -41.499s3.83301 -27.333 8.5 -39
s11.834 -21.334 21.501 -29.001s23.167 -11.5 40.5 -11.5c16.667 0 29.834 4 39.501 12s17 18 22 30s8.16699 25 9.5 39s2 27.333 2 40c0 12 -0.5 25.167 -1.5 39.5s-3.83301 27.5 -8.5 39.5s-11.834 22.167 -21.501 30.5s-22.834 12.5 -39.501 12.5
c-17.333 0 -31 -4 -41 -12s-17.5 -18 -22.5 -30s-8 -25.167 -9 -39.5s-1.5 -27.833 -1.5 -40.5z" />
    <glyph glyph-name="r" unicode="r" horiz-adv-x="411" 
d="M276 370c-21.333 0 -38.835 -6.33301 -52.502 -19s-20.5 -31.667 -20.5 -57v-295h-143v496h140v-56l3 -1c12.667 18 28.667 32.833 48 44.5s40 17.5 62 17.5c20.667 0 39 -2.16699 55 -6.5s32.667 -12.5 50 -24.5l-50 -125c-17.333 10.667 -33.666 17.667 -48.999 21
s-29.666 5 -42.999 5z" />
    <glyph glyph-name="s" unicode="s" horiz-adv-x="468" 
d="M445 155c0 -26.667 -5.83105 -50.001 -17.498 -70.001s-27.334 -36.833 -47.001 -50.5s-42 -23.834 -67 -30.501s-50.833 -10 -77.5 -10c-18.667 0 -37.167 0.833008 -55.5 2.5s-36.666 5.33398 -54.999 11.001s-36.833 13.5 -55.5 23.5s-37.334 23.333 -56.001 40
l70 100c24.667 -23.333 50.334 -38.666 77.001 -45.999s53.667 -11 81 -11c18 0 33 3.66699 45 11s18 16 18 26c0 9.33301 -3.66699 18 -11 26s-24.333 13.667 -51 17c-24.667 2.66699 -49 6.33398 -73 11.001s-45.333 12.167 -64 22.5s-33.667 24.333 -45 42
s-17 41.167 -17 70.5c0 26.667 5 50.167 15 70.5s23.5 37 40.5 50s37 22.833 60 29.5s47.167 10 72.5 10c38 0 73.333 -3.83301 106 -11.5s64.667 -23.167 96 -46.5l-64 -106c-26.667 18 -52.334 29.333 -77.001 34s-44 7 -58 7c-21.333 0 -36.333 -3.5 -45 -10.5
s-13 -14.167 -13 -21.5c0 -11.333 7.33301 -20 22 -26s40.667 -11.333 78 -16c22.667 -2.66699 44.167 -6.83398 64.5 -12.501s38.166 -14 53.499 -25s27.5 -25.5 36.5 -43.5s13.5 -40.333 13.5 -67z" />
    <glyph glyph-name="t" unicode="t" horiz-adv-x="333" 
d="M229 384v-209.001c0 -21.333 3.5 -35.166 10.5 -41.499s17.833 -9.5 32.5 -9.5h31v-124h-77c-40 0 -73.333 11.667 -100 35s-40 56 -40 98v251h-54v112h56v136h139v-136h75v-112h-73z" />
    <glyph glyph-name="u" unicode="u" horiz-adv-x="551" 
d="M204 495l0.00292969 -293c0 -25.333 6.5 -44.333 19.5 -57s29.5 -19 49.5 -19c21.333 0 39.333 6.33301 54 19s22 31.667 22 57v293h143v-495h-143v42h-2c-6.66699 -8 -14.834 -15 -24.501 -21s-19.834 -11 -30.501 -15s-21.334 -7 -32.001 -9s-20.667 -3 -30 -3
c-52 0 -93.167 15 -123.5 45s-45.5 74.333 -45.5 133v323h143z" />
    <glyph glyph-name="v" unicode="v" horiz-adv-x="508" 
d="M310 0h-111l-195 495h153l44 -133l52 -166h2l52 166l45 133h152z" />
    <glyph glyph-name="w" unicode="w" horiz-adv-x="753" 
d="M581 0h-120l-38 122l-44 151h-3l-43 -150l-40 -123h-119l-169 495h152l35 -123l39 -154h5l45 154l40 123h114l39 -123l44 -154h6l39 154l35 123h152z" />
    <glyph glyph-name="x" unicode="x" horiz-adv-x="538" 
d="M358 0l-90 142l-89 -142h-172l189 252l-182 243h171l83 -136l83 136h172l-183 -243l191 -252h-173z" />
    <glyph glyph-name="y" unicode="y" horiz-adv-x="502" 
d="M278 -96c-15.333 -40 -37 -67.333 -65 -82s-58.667 -22 -92 -22h-57v117h37c15.333 0 27.5 4.83301 36.5 14.5s15.833 21.167 20.5 34.5l24 74l-182 455h153l48 -141l48 -156h4l47 154l50 143h152z" />
    <glyph glyph-name="z" unicode="z" horiz-adv-x="463" 
d="M28 0v119l229 254h-215v122h392v-114l-228 -253h228v-128h-406z" />
    <glyph glyph-name="braceleft" unicode="{" horiz-adv-x="314" 
d="M207 -93c-33.333 0 -61.5 11.1699 -84.5 33.5029s-34.5 52.5 -34.5 90.5v131c0 58 -25.333 87 -76 87v104c50.667 2 76 32 76 90v129c0 38 11.5 68.167 34.5 90.5s51.167 33.5 84.5 33.5h98v-101h-41c-7.33301 0 -13.666 -1.83301 -18.999 -5.5
s-9.5 -8.33398 -12.5 -14.001s-5.16699 -12 -6.5 -19s-2 -13.5 -2 -19.5v-117c0 -30.667 -7.83301 -55.834 -23.5 -75.501s-33.167 -34.167 -52.5 -43.5c23.333 -8.66699 41.833 -22.834 55.5 -42.501s20.5 -44.5 20.5 -74.5v-118c0 -6 0.166992 -12.5 0.5 -19.5
s1.66602 -13.5 3.99902 -19.5s6.33301 -10.833 12 -14.5s13.5 -5.5 23.5 -5.5h41v-100h-98z" />
    <glyph glyph-name="bar" unicode="|" horiz-adv-x="259" 
d="M67 -228v958h124v-958h-124z" />
    <glyph glyph-name="braceright" unicode="}" horiz-adv-x="314" 
d="M304 249c-51.333 0 -76.999 -29.002 -76.999 -87.002v-131c0 -38 -11.333 -68.167 -34 -90.5s-50.667 -33.5 -84 -33.5h-98v100h41c10 0 17.833 1.83301 23.5 5.5s9.66699 8.5 12 14.5s3.66602 12.5 3.99902 19.5s0.5 13.5 0.5 19.5v118c0 30 6.83301 54.833 20.5 74.5
s32.167 33.834 55.5 42.501c-19.333 9.33301 -36.833 23.833 -52.5 43.5s-23.5 44.834 -23.5 75.501v117c0 12.667 -3 25.5 -9 38.5s-16.333 19.5 -31 19.5h-41v101h98c33.333 0 61.333 -11.167 84 -33.5s34 -52.5 34 -90.5v-129c0 -58 25.667 -88 77 -90v-104v0z" />
    <glyph glyph-name="asciitilde" unicode="~" horiz-adv-x="550" 
d="M197 350c15.333 0 30.334 -3 45.001 -9s28.667 -12.333 42 -19l37.5 -18.5c11.667 -5.66699 22.167 -8.5 31.5 -8.5c13.333 0 26.333 4.5 39 13.5s26.667 23.167 42 42.5l77 -47c-20.667 -43.333 -42.5 -74.5 -65.5 -93.5s-48.5 -28.5 -76.5 -28.5
c-16 0 -31.5 2.83301 -46.5 8.5s-29.333 11.667 -43 18l-39.5 18c-12.667 5.66699 -24.334 8.5 -35.001 8.5c-13.333 0 -26.833 -3.83301 -40.5 -11.5s-29.167 -22.5 -46.5 -44.5l-75 47c20 39.333 41.833 69.833 65.5 91.5s53.167 32.5 88.5 32.5z" />
    <glyph glyph-name="exclamdown" unicode="&#xa1;" horiz-adv-x="294" 
d="M87 304h123l11 -505h-144zM222 495v-128h-147v128h147z" />
    <glyph glyph-name="cent" unicode="&#xa2;" horiz-adv-x="550" 
d="M484 70c-23.333 -21.333 -48.3301 -38.167 -74.9971 -50.5s-54.334 -20.166 -83.001 -23.499v-131h-58v131c-28 2.66699 -54.167 9.5 -78.5 20.5s-45.5 26.833 -63.5 47.5s-32.167 46.167 -42.5 76.5s-15.5 65.833 -15.5 106.5c0 40 5.33301 74.833 16 104.5
s25.167 54.667 43.5 75s39.5 36.333 63.5 48s49.667 19.167 77 22.5v139h58v-137c29.333 -2 56.666 -8.66699 81.999 -20s49.333 -28.333 72 -51l-92 -97c-15.333 14.667 -29.833 25.167 -43.5 31.5s-26.834 9.5 -39.501 9.5c-28.667 0 -50.5 -9.66699 -65.5 -29
s-22.5 -51.333 -22.5 -96c0 -44 6.66699 -75.5 20 -94.5s35 -28.5 65 -28.5c13.333 0 27.333 3.16699 42 9.5s30 17.166 46 32.499l94 -96v0z" />
    <glyph glyph-name="sterling" unicode="&#xa3;" horiz-adv-x="550" 
d="M400 499c-10 14 -19.498 25.501 -28.498 34.501s-17.833 16 -26.5 21s-17.167 8.5 -25.5 10.5s-17.5 3 -27.5 3c-8.66699 0 -17.167 -1.66699 -25.5 -5s-16 -8.16602 -23 -14.499s-12.667 -14 -17 -23s-6.5 -19.167 -6.5 -30.5c0 -8.66699 1.5 -17.334 4.5 -26.001
s6.83301 -17.834 11.5 -27.501s9.16699 -20.334 13.5 -32.001s8.16602 -24.5 11.499 -38.5h141v-104h-140c-2.66699 -25.333 -7.16699 -50.333 -13.5 -75s-14.833 -47 -25.5 -67h284v-125h-472v108c20 26 35.5 51 46.5 75s18.167 52 21.5 84h-73v104h65
c-7.33301 24.667 -15.666 47.5 -24.999 68.5s-14 41.167 -14 60.5c0 24.667 4.16699 49 12.5 73s21.666 45.333 39.999 64s41.833 33.834 70.5 45.501s63.667 17.5 105 17.5c22.667 0 44.167 -1.16699 64.5 -3.5s39.833 -7.5 58.5 -15.5s37.167 -20 55.5 -36
s37.166 -37.667 56.499 -65z" />
    <glyph glyph-name="currency" unicode="&#xa4;" horiz-adv-x="556" 
d="M168 321c0 -14.667 2.83301 -28.5 8.5 -41.5s13.334 -24.333 23.001 -34s21 -17.334 34 -23.001s26.833 -8.5 41.5 -8.5s28.5 2.83301 41.5 8.5s24.5 13.334 34.5 23.001s17.833 21 23.5 34s8.5 26.833 8.5 41.5c0 15.333 -2.83301 29.5 -8.5 42.5s-13.5 24.333 -23.5 34
s-21.5 17.167 -34.5 22.5s-26.833 8 -41.5 8s-28.5 -2.66699 -41.5 -8s-24.333 -12.833 -34 -22.5s-17.334 -21 -23.001 -34s-8.5 -27.167 -8.5 -42.5zM26 496l73 74l68 -68c18 10 35.833 17.833 53.5 23.5s36.167 8.5 55.5 8.5c20 0 38.833 -2.5 56.5 -7.5
s35.167 -12.5 52.5 -22.5l33.5 33l33.5 33l73 -74l-68 -67c10 -18 17.833 -36 23.5 -54s8.5 -36 8.5 -54c0 -20 -2.33301 -38.5 -7 -55.5s-12.667 -34.833 -24 -53.5c9.33301 -8 20.666 -18.667 33.999 -32l33 -33l-73 -74l-66 67
c-17.333 -10 -35.166 -17.833 -53.499 -23.5s-37.166 -8.5 -56.499 -8.5s-38.333 3 -57 9s-36.334 13.667 -53.001 23l-67 -67l-73 73l67 66c-20 36 -30 72.333 -30 109c0 34.667 10.333 70.667 31 108z" />
    <glyph glyph-name="yen" unicode="&#xa5;" horiz-adv-x="550" 
d="M201 241v42h-142v82h98l-170 331h171l74 -165l47 -124h4l46 126l75 163h159l-171 -331h101v-82h-145v-42h145v-82h-145v-159h-147v159h-142v82h142z" />
    <glyph glyph-name="brokenbar" unicode="&#xa6;" horiz-adv-x="259" 
d="M67 284v446h124v-446h-124zM191 219v-447h-124v447h124z" />
    <glyph glyph-name="section" unicode="&#xa7;" horiz-adv-x="510" 
d="M405 189c16 -11.333 28.832 -25.668 38.499 -43.001s14.5 -35 14.5 -53c0 -29.333 -5.83301 -55 -17.5 -77s-27.334 -40.5 -47.001 -55.5s-42.5 -26.333 -68.5 -34s-53.667 -11.5 -83 -11.5c-40 0 -78 7.33301 -114 22s-68.333 35.334 -97 62.001l79 94
c20.667 -18.667 43 -33.5 67 -44.5s46.667 -16.5 68 -16.5c28 0 48.667 4.83301 62 14.5s20 22.5 20 38.5c0 6 -1.33301 11.5 -4 16.5s-7.5 10 -14.5 15s-16.833 10 -29.5 15s-29 10.5 -49 16.5c-27.333 8 -52.333 16.5 -75 25.5s-42 20 -58 33s-28.333 29 -37 48
s-13 42.167 -13 69.5c0 10.667 2 21.334 6 32.001s9.5 20.667 16.5 30s14.667 17.5 23 24.5s17.166 12.167 26.499 15.5c-17.333 13.333 -31.166 29 -41.499 47s-15.5 37 -15.5 57c0 26 5 49.333 15 70s24 38.334 42 53.001s39.167 26 63.5 34s50.5 12 78.5 12
c40 0 76.167 -3.83301 108.5 -11.5s64.5 -23.5 96.5 -47.5l-68 -97c-26 15.333 -51 25.666 -75 30.999s-47 8 -69 8c-24.667 0 -41.5 -4.83301 -50.5 -14.5s-13.5 -20.167 -13.5 -31.5c0 -10.667 5.16699 -19.834 15.5 -27.501s22.5 -14.167 36.5 -19.5
s28.5 -9.83301 43.5 -13.5s27.167 -6.83398 36.5 -9.50098c18.667 -5.33301 36.834 -12 54.501 -20s33.334 -18.333 47.001 -31s24.667 -28.5 33 -47.5s12.5 -41.833 12.5 -68.5c0 -12 -1.83301 -23.833 -5.5 -35.5s-8.5 -22.5 -14.5 -32.5s-12.833 -18.667 -20.5 -26
s-15.5 -12.666 -23.5 -15.999zM244.999 353.998l-23.002 6.00098c-7.33301 2 -14.333 4.33301 -21 7c-10 -4 -16.667 -9.16699 -20 -15.5s-5 -13.833 -5 -22.5c0 -17.333 15 -31.333 45 -42c15.333 -5.33301 31.833 -10.333 49.5 -15s35.834 -10.334 54.501 -17.001
c11.333 6.66699 17 18.667 17 36c0 6 -1.33301 11.667 -4 17s-7.66699 10.5 -15 15.5s-17.166 10 -29.499 15s-28.5 10.167 -48.5 15.5z" />
    <glyph glyph-name="dieresis" unicode="&#xa8;" horiz-adv-x="516" 
d="M294 569v130h149v-130h-149zM76 569v130h148v-130h-148z" />
    <glyph glyph-name="copyright" unicode="&#xa9;" horiz-adv-x="820" 
d="M411 -16c-50 0 -96.667 8.66797 -140 26.001s-81 41.666 -113 72.999s-57 69 -75 113s-27 92.667 -27 146c0 52 9 100 27 144s43 82 75 114s69.667 57 113 75s90 27 140 27s96.667 -8.83301 140 -26.5s81 -42.5 113 -74.5s57 -70 75 -114s27 -92.333 27 -145
c0 -52 -9 -99.833 -27 -143.5s-43 -81.5 -75 -113.5s-69.667 -56.833 -113 -74.5s-90 -26.5 -140 -26.5zM411 623.001c-38 0 -73.333 -7.16992 -106 -21.5029s-60.834 -34.166 -84.501 -59.499s-42.334 -55 -56.001 -89s-20.5 -71 -20.5 -111s6.83301 -77 20.5 -111
s32.334 -63.5 56.001 -88.5s51.834 -44.667 84.501 -59s68 -21.5 106 -21.5s73.333 7.16699 106 21.5s60.834 34 84.501 59s42.334 54.5 56.001 88.5s20.5 71 20.5 111c0 41.333 -6.83301 79.333 -20.5 114s-32.334 64.334 -56.001 89.001s-51.834 43.834 -84.501 57.501
s-68 20.5 -106 20.5zM576 220.998c-10.667 -35.333 -30.168 -62.666 -58.501 -81.999s-63.5 -29 -105.5 -29c-28.667 0 -53.667 4.33301 -75 13s-39 20.5 -53 35.5s-24.5 33 -31.5 54s-10.5 44.167 -10.5 69.5v103c0 22.667 3.5 44.334 10.5 65.001s17.5 39 31.5 55
s31.667 28.667 53 38s46.333 14 75 14c42 0 77.167 -10.167 105.5 -30.5s47.833 -47.5 58.5 -81.5l-92 -33c-3.33301 15.333 -11.166 28.166 -23.499 38.499s-28.833 15.5 -49.5 15.5c-24.667 0 -42.667 -7.33301 -54 -22s-17 -31.334 -17 -50.001v-119
c0 -19.333 5.66699 -36.5 17 -51.5s29.333 -22.5 54 -22.5c19.333 0 35.5 5.16699 48.5 15.5s21.167 23.833 24.5 40.5z" />
    <glyph glyph-name="ordfeminine" unicode="&#xaa;" horiz-adv-x="356" 
d="M218 279l-0.00292969 35.001c-5.33301 -8 -11.833 -14.5 -19.5 -19.5s-15.5 -9 -23.5 -12s-15.667 -5 -23 -6s-13.333 -1.5 -18 -1.5c-34.667 0 -62.167 8.33301 -82.5 25s-30.5 43 -30.5 79c0 28 10.833 51.167 32.5 69.5s53.167 27.5 94.5 27.5h70v12
c0 6.66699 -3.66699 13.834 -11 21.501s-19.666 11.5 -36.999 11.5c-16 0 -30.833 -2 -44.5 -6s-25.834 -11.333 -36.501 -22l-58 64c20.667 21.333 43.334 35.5 68.001 42.5s49.334 10.5 74.001 10.5c21.333 0 41.333 -1.83301 60 -5.5s34.834 -9.83398 48.501 -18.501
s24.5 -20.334 32.5 -35.001s12 -33 12 -55v-217h-108zM217.997 410.001h-58c-14.667 0 -24 -3 -28 -9s-6 -11 -6 -15c0 -3.33301 2.33301 -8 7 -14s15.667 -9 33 -9c13.333 0 25.333 2.83301 36 8.5s16 15.167 16 28.5v10z" />
    <glyph glyph-name="guillemotleft" unicode="&#xab;" horiz-adv-x="591" 
d="M420 10l-146 214l146 214h140l-142 -214l142 -214h-140zM192 10l-146 214l146 214h140l-143 -214l143 -214h-140z" />
    <glyph glyph-name="logicalnot" unicode="&#xac;" horiz-adv-x="550" 
d="M532 54h-124v186h-389v116h512z" />
    <glyph glyph-name="sfthyphen" unicode="&#xad;" horiz-adv-x="440" 
d="M47 192v131h346v-131h-346z" />
    <glyph glyph-name="registered" unicode="&#xae;" horiz-adv-x="526" 
d="M263 457l-28.999 0.000976562v-93h-52v244h97c21.333 0 39.666 -6.5 54.999 -19.5s23 -31.167 23 -54.5c0 -13.333 -3.16699 -25.833 -9.5 -37.5s-16.5 -21.834 -30.5 -30.501l47 -102h-59zM234.001 558.001l0.000976562 -52h43c9.33301 0 16.666 2.5 21.999 7.5
s8 11.833 8 20.5c0 16 -9.33301 24 -28 24h-45zM265.002 269.001c-31.333 0 -60.332 5.5 -86.999 16.5s-49.834 26 -69.501 45s-35.167 41.667 -46.5 68s-17 54.833 -17 85.5s6 59.334 18 86.001s28 49.667 48 69s43.333 34.5 70 45.5s54.667 16.5 84 16.5
c31.333 0 60.5 -5.5 87.5 -16.5s50.333 -26.167 70 -45.5s35.167 -42.333 46.5 -69s17 -55.334 17 -86.001s-6 -59.167 -18 -85.5s-28.167 -49 -48.5 -68s-43.833 -34 -70.5 -45s-54.667 -16.5 -84 -16.5zM265.003 650.001c-23.333 0 -45 -4.16699 -65 -12.5
s-37.5 -20 -52.5 -35s-26.667 -32.667 -35 -53s-12.5 -42.166 -12.5 -65.499s4.16699 -45 12.5 -65s20 -37.5 35 -52.5s32.5 -26.833 52.5 -35.5s41.667 -13 65 -13s45 4.33301 65 13s37.333 20.5 52 35.5s26.167 32.5 34.5 52.5s12.5 41.667 12.5 65
s-4.16699 45.166 -12.5 65.499s-19.833 38 -34.5 53s-32 26.667 -52 35s-41.667 12.5 -65 12.5z" />
    <glyph glyph-name="macron" unicode="&#xaf;" horiz-adv-x="516" 
d="M92 578v118h333v-118h-333z" />
    <glyph glyph-name="degree" unicode="&#xb0;" horiz-adv-x="433" 
d="M380 548c0 -21.333 -4.33301 -41.333 -13 -60s-20.334 -35 -35.001 -49s-32 -25 -52 -33s-41.333 -12 -64 -12s-43.834 4 -63.501 12s-36.834 19 -51.501 33s-26.334 30.333 -35.001 49s-13 38.667 -13 60c0 20.667 4.33301 40.334 13 59.001s20.334 35 35.001 49
s31.834 25 51.501 33s40.834 12 63.501 12s44 -4 64 -12s37.333 -19 52 -33s26.334 -30.333 35.001 -49s13 -38.334 13 -59.001zM281 548c0 17.333 -6.33301 31.833 -19 43.5s-28 17.5 -46 17.5c-17.333 0 -32.5 -5.83301 -45.5 -17.5s-19.5 -26.167 -19.5 -43.5
s6.5 -32 19.5 -44s28.167 -18 45.5 -18c18 0 33.333 6 46 18s19 26.667 19 44z" />
    <glyph glyph-name="plusminus" unicode="&#xb1;" horiz-adv-x="550" 
d="M337 320v-173h-124v173h-195v116h195v182h124v-182h195v-116h-195zM14 0v113h522v-113h-522z" />
    <glyph glyph-name="twosuperior" unicode="&#xb2;" horiz-adv-x="343" 
d="M21 657c2.66699 20.667 8.66699 39.166 18 55.499s20.833 30.166 34.5 41.499s29.167 20 46.5 26s35 9 53 9c43.333 0 79 -10.167 107 -30.5s42 -50.833 42 -91.5c0 -17.333 -3.16699 -33.166 -9.5 -47.499s-14.833 -27.166 -25.5 -38.499l-112 -117h145v-95h-299v83
l179 185c7.33301 7.33301 11 15 11 23c0 9.33301 -3.16699 17.333 -9.5 24s-15.5 10 -27.5 10c-9.33301 0 -18.5 -4 -27.5 -12s-14.833 -21.333 -17.5 -40z" />
    <glyph glyph-name="threesuperior" unicode="&#xb3;" horiz-adv-x="346" 
d="M125 500c2.66699 -13.333 8.33301 -23.165 17 -29.498s18.667 -9.5 30 -9.5c12 0 22.167 3.5 30.5 10.5s12.5 16.5 12.5 28.5s-4.16699 22.167 -12.5 30.5s-21.166 12.5 -38.499 12.5h-36v81h37c17.333 0 29.666 3.66699 36.999 11s11 15.666 11 24.999
s-3.83301 17.333 -11.5 24s-17.5 10 -29.5 10c-8.66699 0 -17.167 -3 -25.5 -9s-14.166 -17.333 -17.499 -34l-105 16c8.66699 38.667 27.5 68.667 56.5 90s60.833 32 95.5 32c26.667 0 49.5 -3.33301 68.5 -10s34.667 -15.667 47 -27s21.5 -24.5 27.5 -39.5
s9 -30.833 9 -47.5c0 -12.667 -3.66699 -27.334 -11 -44.001s-20.333 -29 -39 -37c10 -4 18.333 -9.33301 25 -16s12.167 -14 16.5 -22s7.33301 -16.167 9 -24.5s2.5 -15.833 2.5 -22.5c0 -39.333 -14.167 -71.333 -42.5 -96s-66.5 -37 -114.5 -37
c-16 0 -32.333 2.16699 -49 6.5s-32 11.333 -46 21s-26.333 22 -37 37s-18.334 33.5 -23.001 55.5z" />
    <glyph glyph-name="acute" unicode="&#xb4;" horiz-adv-x="516" 
d="M183 567l85 203l133 -43l-135 -190z" />
    <glyph glyph-name="mu" unicode="&#xb5;" horiz-adv-x="551" 
d="M348 1l-0.000976562 34l-4 2c-13.333 -13.333 -28.666 -23.5 -45.999 -30.5s-35.333 -10.5 -54 -10.5c-12 0 -25.333 1.66699 -40 5v-201h-144l1 695h143v-293c0 -25.333 6.83301 -44.166 20.5 -56.499s30.5 -18.5 50.5 -18.5c21.333 0 38.833 6.16699 52.5 18.5
s20.5 31.166 20.5 56.499v293h143v-494h-143z" />
    <glyph glyph-name="mu" unicode="&#x3bc;" horiz-adv-x="551" 
d="M348 1l-0.000976562 34l-4 2c-13.333 -13.333 -28.666 -23.5 -45.999 -30.5s-35.333 -10.5 -54 -10.5c-12 0 -25.333 1.66699 -40 5v-201h-144l1 695h143v-293c0 -25.333 6.83301 -44.166 20.5 -56.499s30.5 -18.5 50.5 -18.5c21.333 0 38.833 6.16699 52.5 18.5
s20.5 31.166 20.5 56.499v293h143v-494h-143z" />
    <glyph glyph-name="paragraph" unicode="&#xb6;" horiz-adv-x="563" 
d="M212 311l-24 -0.000976562c-26 0 -49 5.33301 -69 16s-36.833 24.834 -50.5 42.501s-24 38 -31 61s-10.5 46.833 -10.5 71.5c0 24 3.83301 48.167 11.5 72.5s19.334 46 35.001 65s35 34.5 58 46.5s50.167 18 81.5 18h79c25.333 0 50.666 0.166992 75.999 0.5
s51 0.5 77 0.5h82v-86h-43v-698h-99v698h-71v-698h-102v390z" />
    <glyph glyph-name="periodcentered" unicode="&#xb7;" horiz-adv-x="303" 
d="M67 198v165h169v-165h-169z" />
    <glyph glyph-name="cedilla" unicode="&#xb8;" horiz-adv-x="463" 
d="M209 49l71.9961 1l-28 -86c34.667 -4 59.334 -15 74.001 -33s22 -37 22 -57c0 -12 -2.66699 -23.5 -8 -34.5s-13.166 -21 -23.499 -30s-23 -16.167 -38 -21.5s-31.833 -8 -50.5 -8c-21.333 0 -41.666 2.5 -60.999 7.5s-36.333 12.167 -51 21.5l25 62
c16.667 -8 30.334 -13 41.001 -15s21.667 -3 33 -3c10.667 0 20 2.5 28 7.5s12 12.5 12 22.5c0 6.66699 -1.83301 12 -5.5 16s-8 6.5 -13 7.5s-10.167 1.16699 -15.5 0.5s-10 -2 -14 -4l-39 20z" />
    <glyph glyph-name="onesuperior" unicode="&#xb9;" horiz-adv-x="285" 
d="M106 369v299l-65 -41v109l82 50h93v-417h-110z" />
    <glyph glyph-name="ordmasculine" unicode="&#xba;" horiz-adv-x="356" 
d="M184 611c26.667 0 51.165 -4.83203 73.498 -14.499s40.166 -23.834 53.499 -42.501c9.33301 -13.333 16.166 -29.666 20.499 -48.999s6.5 -40.666 6.5 -63.999c0 -20.667 -2.33301 -39.334 -7 -56.001s-11.334 -31.667 -20.001 -45c-14 -22 -33.333 -38.5 -58 -49.5
s-50.667 -16.5 -78 -16.5s-51.666 4.5 -72.999 13.5s-38.666 22.5 -51.999 40.5c-11.333 15.333 -19.166 32.5 -23.499 51.5s-6.16602 40.167 -5.49902 63.5c0.666992 17.333 2.33398 33.666 5.00098 48.999s7 29.333 13 42c12 24.667 31 43.667 57 57s55.333 20 88 20z
M180.998 517.001c-18 0 -31.3311 -7.99902 -39.998 -23.999c-6 -11.333 -9 -28.333 -9 -51c0 -20.667 3 -37 9 -49c7.33301 -16 19.666 -24 36.999 -24c11.333 0 20.333 2.83301 27 8.5s11.667 13.167 15 22.5c1.33301 4.66699 2.66602 10.667 3.99902 18s2 15.666 2 24.999
c0 23.333 -2.33301 40.333 -7 51c-3.33301 7.33301 -8.5 13 -15.5 17s-14.5 6 -22.5 6z" />
    <glyph glyph-name="guillemotright" unicode="&#xbb;" horiz-adv-x="591" 
d="M46 10l142 214l-142 214h140l146 -214l-146 -214h-140zM274 10l143 214l-143 214h140l146 -214l-146 -214h-140z" />
    <glyph glyph-name="onequarter" unicode="&#xbc;" horiz-adv-x="925" 
d="M168 279v299l-65 -41v109l82 50h93v-417h-110zM294 -17h-117l425 730h118zM786 56v-56h-109v56h-188v76l156 285h123l-149 -268h58v74h109v-74h36v-93h-36z" />
    <glyph glyph-name="onehalf" unicode="&#xbd;" horiz-adv-x="925" 
d="M145 279v299l-65 -41v109l82 50h93v-417h-110zM270 -17h-117l425 730h118zM544 288c2.66699 20.667 8.50195 39.166 17.502 55.499s20.167 30.166 33.5 41.499s28.5 20 45.5 26s34.5 9 52.5 9c21.333 0 41.166 -2.5 59.499 -7.5s34.333 -12.667 48 -23
s24.334 -23.166 32.001 -38.499s11.5 -33 11.5 -53c0 -16 -3 -31.5 -9 -46.5s-14.333 -28.167 -25 -39.5l-112 -117h145v-95h-299v83l179 186v-1c6.66699 6.66699 10 14.334 10 23.001c0 9.33301 -3.33301 17.333 -10 24s-16 10 -28 10c-10.667 0 -19.834 -4 -27.501 -12
s-12.834 -21.333 -15.501 -40z" />
    <glyph glyph-name="threequarters" unicode="&#xbe;" horiz-adv-x="925" 
d="M168 410c2.66699 -13.333 8.33301 -23.165 17 -29.498s18.667 -9.5 30 -9.5c12 0 22.167 3.5 30.5 10.5s12.5 16.5 12.5 28.5s-4.16699 22.167 -12.5 30.5s-21.166 12.5 -38.499 12.5h-36v81h37c17.333 0 29.666 3.66699 36.999 11s11 15.666 11 24.999
s-3.83301 17.333 -11.5 24s-17.5 10 -29.5 10c-8.66699 0 -17.167 -3 -25.5 -9s-14.166 -17.333 -17.499 -34l-105 16c8.66699 38.667 27.5 68.667 56.5 90s60.833 32 95.5 32c26.667 0 49.5 -3.33301 68.5 -10s34.667 -15.667 47 -27s21.5 -24.5 27.5 -39.5
s9 -30.833 9 -47.5c0 -12.667 -3.66699 -27.334 -11 -44.001s-20.333 -29 -39 -37c10 -4 18.333 -9.33301 25 -16s12.167 -14 16.5 -22s7.33301 -16.167 9 -24.5s2.5 -15.833 2.5 -22.5c0 -39.333 -14.167 -71.333 -42.5 -96s-66.5 -37 -114.5 -37
c-16 0 -32.333 2.16699 -49 6.5s-32 11.333 -46 21s-26.333 22 -37 37s-18.334 33.5 -23.001 55.5zM331.999 -16.999h-117l425 730h118zM826.999 56.001v-56h-109v56h-188v76l156 285h123l-149 -268h58v74h109v-74h36v-93h-36z" />
    <glyph glyph-name="questiondown" unicode="&#xbf;" horiz-adv-x="495" 
d="M485 3c-3.33301 -33.333 -12.0039 -63.002 -26.0039 -89.002s-31.667 -48 -53 -66s-45.166 -31.667 -71.499 -41s-53.166 -14 -80.499 -14c-34.667 0 -65.5 5 -92.5 15s-50 23.833 -69 41.5s-33.5 38.667 -43.5 63s-15 50.5 -15 78.5c0 21.333 3.66699 40.333 11 57
s16.5 32.334 27.5 47.001s23 28.834 36 42.501s25 27.5 36 41.5s20.167 29 27.5 45s11 34 11 54v22h147v-27c0 -19.333 -1.66699 -36.833 -5 -52.5s-8.66602 -31.167 -15.999 -46.5s-16.666 -31.333 -27.999 -48s-25.333 -35.667 -42 -57c-8.66699 -10.667 -18 -23 -28 -37
s-15 -28 -15 -42c0 -18 6.83301 -32.333 20.5 -43s29.167 -16 46.5 -16c22 0 39.833 6.83301 53.5 20.5s21.167 36.5 22.5 68.5zM329.996 493.998v-128h-147v128h147z" />
    <glyph glyph-name="Agrave" unicode="&#xc0;" horiz-adv-x="660" 
d="M344 733l-214 90l90 107l180 -128zM497 0l-52 142h-233l-52 -142h-162l270 696h121l270 -696h-162zM371 352l-41 138h-4l-40 -136l-26 -82h137z" />
    <glyph glyph-name="Aacute" unicode="&#xc1;" horiz-adv-x="660" 
d="M271 802l180 128l90 -107l-214 -90zM497 0l-52 142h-233l-52 -142h-162l270 696h121l270 -696h-162zM371 352l-41 138h-4l-40 -136l-26 -82h137z" />
    <glyph glyph-name="Acircumflex" unicode="&#xc2;" horiz-adv-x="660" 
d="M497 0l-52 142h-233l-52 -142h-162l270 696h121l270 -696h-162zM371 352l-41 138h-4l-40 -136l-26 -82h137zM327 805l-150 -78l-48 58l149 120h98l151 -120l-51 -59z" />
    <glyph glyph-name="Atilde" unicode="&#xc3;" horiz-adv-x="660" 
d="M497 0l-52 142h-233l-52 -142h-162l270 696h121l270 -696h-162zM371 352l-41 138h-4l-40 -136l-26 -82h137zM256 881c12.667 0 25.335 -2.66602 38.002 -7.99902s24.667 -11 36 -17l32 -16.5c10 -5 19 -7.5 27 -7.5c11.333 0 22 3.66699 32 11s21.667 19.666 35 36.999
l68 -40c-17.333 -38.667 -36 -66.5 -56 -83.5s-41.667 -25.5 -65 -25.5c-13.333 0 -26.5 2.5 -39.5 7.5s-25.333 10.333 -37 16l-33.5 16c-10.667 5 -20.667 7.5 -30 7.5c-11.333 0 -22.833 -3.5 -34.5 -10.5s-24.834 -20.167 -39.501 -39.5l-65 41
c17.333 36 36.166 63.667 56.499 83s45.5 29 75.5 29z" />
    <glyph glyph-name="Adieresis" unicode="&#xc4;" horiz-adv-x="660" 
d="M497 0l-52 142h-233l-52 -142h-162l270 696h121l270 -696h-162zM371 352l-41 138h-4l-40 -136l-26 -82h137zM360 744v133h152v-133h-152zM145 744v133h153v-133h-153z" />
    <glyph glyph-name="Aring" unicode="&#xc5;" horiz-adv-x="660" 
d="M497 0l-52 142h-233l-52 -142h-162l270 696h121l270 -696h-162zM371 352l-41 138h-4l-40 -136l-26 -82h137zM369 831c0 10.667 -3.83301 19.5 -11.5 26.5s-17.167 10.5 -28.5 10.5s-21 -3.5 -29 -10.5s-12 -15.833 -12 -26.5s4 -19.667 12 -27s17.667 -11 29 -11
s20.833 3.66699 28.5 11s11.5 16.333 11.5 27zM204 831c0 16 3.33301 31 10 45s15.667 26.333 27 37s24.5 19 39.5 25s31.167 9 48.5 9c16.667 0 32.667 -3 48 -9s28.5 -14.333 39.5 -25s19.833 -23 26.5 -37s10 -29 10 -45s-3.33301 -31 -10 -45s-15.667 -26.333 -27 -37
s-24.5 -19 -39.5 -25s-31.167 -9 -48.5 -9s-33.5 3 -48.5 9s-28 14.333 -39 25s-19.833 23 -26.5 37s-10 29 -10 45z" />
    <glyph glyph-name="AE" unicode="&#xc6;" horiz-adv-x="1091" 
d="M1035 696v-138h-338v-141h288v-133h-288v-146h338v-138h-492v149h-234l-84 -149h-182l421 696h571zM539 558l-157 -275h161v275h-4z" />
    <glyph glyph-name="Ccedilla" unicode="&#xc7;" horiz-adv-x="600" 
d="M266 -3c-37.333 4.66699 -69.8369 14.501 -97.5039 29.501s-50.667 34.167 -69 57.5s-32 50.5 -41 81.5s-13.5 64.5 -13.5 100.5v164c0 36 5.5 70.333 16.5 103s27.667 61.5 50 86.5s50.333 44.833 84 59.5s73.167 22 118.5 22c66.667 0 122.167 -16.167 166.5 -48.5
s75.166 -75.166 92.499 -128.499l-146 -52c-5.33301 24 -17.666 44.167 -36.999 60.5s-45 24.5 -77 24.5c-19.333 0 -36 -3.16699 -50 -9.5s-25.667 -14.833 -35 -25.5s-16.333 -22.834 -21 -36.501s-7 -27.5 -7 -41.5v-189c0 -15.333 2.33301 -30 7 -44
s11.667 -26.333 21 -37s21 -19.334 35 -26.001s30.667 -10 50 -10c31.333 0 56.833 8.16699 76.5 24.5s32.167 37.166 37.5 62.499l146 -56c-16 -52 -44.5 -93.167 -85.5 -123.5s-91.167 -47.166 -150.5 -50.499l-10 -31c34.667 -4 59.334 -15 74.001 -33s22 -37 22 -57
c0 -12 -2.66699 -23.5 -8 -34.5s-13.166 -21 -23.499 -30s-23 -16.167 -38 -21.5s-31.833 -8 -50.5 -8c-21.333 0 -41.666 2.5 -60.999 7.5s-36.333 12.167 -51 21.5l25 62c16.667 -8 30.334 -13 41.001 -15s21.667 -3 33 -3c10.667 0 20 2.5 28 7.5s12 12.5 12 22.5
c0 6.66699 -1.83301 12 -5.5 16s-8 6.5 -13 7.5s-10.167 1.16699 -15.5 0.5s-10 -2 -14 -4l-39 20z" />
    <glyph glyph-name="Egrave" unicode="&#xc8;" horiz-adv-x="585" 
d="M70 0v696h492v-138h-338v-141h288v-133h-288v-146h338v-138h-492zM322 733l-214 90l90 107l180 -128z" />
    <glyph glyph-name="Eacute" unicode="&#xc9;" horiz-adv-x="585" 
d="M201 802l180 128l90 -107l-214 -90zM70 0v696h492v-138h-338v-141h288v-133h-288v-146h338v-138h-492z" />
    <glyph glyph-name="Ecircumflex" unicode="&#xca;" horiz-adv-x="585" 
d="M70 0v696h492v-138h-338v-141h288v-133h-288v-146h338v-138h-492zM299 805l-150 -78l-48 58l149 120h98l151 -120l-51 -59z" />
    <glyph glyph-name="Edieresis" unicode="&#xcb;" horiz-adv-x="585" 
d="M70 0v696h492v-138h-338v-141h288v-133h-288v-146h338v-138h-492zM360 744v133h152v-133h-152zM145 744v133h153v-133h-153z" />
    <glyph glyph-name="Igrave" unicode="&#xcc;" horiz-adv-x="294" 
d="M73 0v696h154v-696h-154zM150 733l-214 90l90 107l180 -128z" />
    <glyph glyph-name="Iacute" unicode="&#xcd;" horiz-adv-x="294" 
d="M87 802l180 128l90 -107l-214 -90zM73 0v696h154v-696h-154z" />
    <glyph glyph-name="Icircumflex" unicode="&#xce;" horiz-adv-x="294" 
d="M73 0v696h154v-696h-154zM151 805l-150 -78l-48 58l149 120h98l151 -120l-51 -59z" />
    <glyph glyph-name="Idieresis" unicode="&#xcf;" horiz-adv-x="294" 
d="M73 0v696h154v-696h-154zM179 744v133h152v-133h-152zM-36 744v133h153v-133h-153z" />
    <glyph glyph-name="Eth" unicode="&#xd0;" horiz-adv-x="657" 
d="M6 407l63.999 0.00195312v289h277c52 0 99 -10 141 -30s74 -53 96 -99c12.667 -25.333 20.334 -55.333 23.001 -90s4 -73.667 4 -117c0 -48.667 -1.33301 -91 -4 -127s-9.66699 -67.667 -21 -95c-11.333 -26 -25.833 -47.833 -43.5 -65.5s-37.5 -31.834 -59.5 -42.501
s-46 -18.334 -72 -23.001s-53 -7 -81 -7h-260v300h-64v107zM223.999 407.002h109v-107h-109v-162h101c26 0 47.5 3.5 64.5 10.5s30.5 17 40.5 30s17.167 28.667 21.5 47s6.5 38.833 6.5 61.5v127c0 48 -10.5 83.833 -31.5 107.5s-55.833 35.5 -104.5 35.5h-98v-150z" />
    <glyph glyph-name="Ntilde" unicode="&#xd1;" horiz-adv-x="710" 
d="M506 0l-177 256l-103 166l-2 -1v-421h-154v696h137l146 -213l134 -209l2 1v421h154v-696h-137zM278 884c12.667 0 25.335 -2.66602 38.002 -7.99902s24.667 -11 36 -17l32 -16.5c10 -5 19 -7.5 27 -7.5c11.333 0 22 3.66699 32 11s21.667 19.666 35 36.999l68 -40
c-17.333 -38.667 -36 -66.5 -56 -83.5s-41.667 -25.5 -65 -25.5c-13.333 0 -26.5 2.5 -39.5 7.5s-25.333 10.333 -37 16l-33.5 16c-10.667 5 -20.667 7.5 -30 7.5c-11.333 0 -22.833 -3.5 -34.5 -10.5s-24.834 -20.167 -39.501 -39.5l-65 41
c17.333 36 36.166 63.667 56.499 83s45.5 29 75.5 29z" />
    <glyph glyph-name="Ograve" unicode="&#xd2;" horiz-adv-x="624" 
d="M310 701c42 0 79.832 -6.83105 113.499 -20.498s62.334 -32.5 86.001 -56.5s41.834 -52.667 54.501 -86s19 -69.333 19 -108v-164c0 -41.333 -6.5 -78.833 -19.5 -112.5s-31.333 -62.334 -55 -86.001s-52.334 -41.834 -86.001 -54.501s-71.167 -19 -112.5 -19
c-45.333 0 -84.833 7.33301 -118.5 22s-61.667 34.5 -84 59.5s-39 54 -50 87s-16.5 67.5 -16.5 103.5v164c0 36 5.5 70.333 16.5 103s27.667 61.5 50 86.5s50.333 44.833 84 59.5s73.167 22 118.5 22zM308.999 557.002c-19.333 0 -36 -3.16406 -50 -9.49707
s-25.667 -14.833 -35 -25.5s-16.333 -22.834 -21 -36.501s-7 -27.5 -7 -41.5v-189c0 -15.333 2.33301 -30 7 -44s11.667 -26.333 21 -37s21 -19.334 35 -26.001s30.667 -10 50 -10c37.333 0 66.166 11.167 86.499 33.5s30.5 50.166 30.5 83.499v189
c0 30.667 -10.167 57.167 -30.5 79.5s-49.166 33.5 -86.499 33.5zM343.999 733.005l-214 90l90 107l180 -128z" />
    <glyph glyph-name="Oacute" unicode="&#xd3;" horiz-adv-x="624" 
d="M201 802l180 128l90 -107l-214 -90zM310 701c42 0 79.832 -6.83105 113.499 -20.498s62.334 -32.5 86.001 -56.5s41.834 -52.667 54.501 -86s19 -69.333 19 -108v-164c0 -41.333 -6.5 -78.833 -19.5 -112.5s-31.333 -62.334 -55 -86.001s-52.334 -41.834 -86.001 -54.501
s-71.167 -19 -112.5 -19c-45.333 0 -84.833 7.33301 -118.5 22s-61.667 34.5 -84 59.5s-39 54 -50 87s-16.5 67.5 -16.5 103.5v164c0 36 5.5 70.333 16.5 103s27.667 61.5 50 86.5s50.333 44.833 84 59.5s73.167 22 118.5 22zM308.999 557.002
c-19.333 0 -36 -3.16406 -50 -9.49707s-25.667 -14.833 -35 -25.5s-16.333 -22.834 -21 -36.501s-7 -27.5 -7 -41.5v-189c0 -15.333 2.33301 -30 7 -44s11.667 -26.333 21 -37s21 -19.334 35 -26.001s30.667 -10 50 -10c37.333 0 66.166 11.167 86.499 33.5
s30.5 50.166 30.5 83.499v189c0 30.667 -10.167 57.167 -30.5 79.5s-49.166 33.5 -86.499 33.5z" />
    <glyph glyph-name="Ocircumflex" unicode="&#xd4;" horiz-adv-x="624" 
d="M310 701c42 0 79.832 -6.83105 113.499 -20.498s62.334 -32.5 86.001 -56.5s41.834 -52.667 54.501 -86s19 -69.333 19 -108v-164c0 -41.333 -6.5 -78.833 -19.5 -112.5s-31.333 -62.334 -55 -86.001s-52.334 -41.834 -86.001 -54.501s-71.167 -19 -112.5 -19
c-45.333 0 -84.833 7.33301 -118.5 22s-61.667 34.5 -84 59.5s-39 54 -50 87s-16.5 67.5 -16.5 103.5v164c0 36 5.5 70.333 16.5 103s27.667 61.5 50 86.5s50.333 44.833 84 59.5s73.167 22 118.5 22zM308.999 557.002c-19.333 0 -36 -3.16406 -50 -9.49707
s-25.667 -14.833 -35 -25.5s-16.333 -22.834 -21 -36.501s-7 -27.5 -7 -41.5v-189c0 -15.333 2.33301 -30 7 -44s11.667 -26.333 21 -37s21 -19.334 35 -26.001s30.667 -10 50 -10c37.333 0 66.166 11.167 86.499 33.5s30.5 50.166 30.5 83.499v189
c0 30.667 -10.167 57.167 -30.5 79.5s-49.166 33.5 -86.499 33.5zM310.999 805.005l-150 -78l-48 58l149 120h98l151 -120l-51 -59z" />
    <glyph glyph-name="Otilde" unicode="&#xd5;" horiz-adv-x="624" 
d="M310 701c42 0 79.832 -6.83105 113.499 -20.498s62.334 -32.5 86.001 -56.5s41.834 -52.667 54.501 -86s19 -69.333 19 -108v-164c0 -41.333 -6.5 -78.833 -19.5 -112.5s-31.333 -62.334 -55 -86.001s-52.334 -41.834 -86.001 -54.501s-71.167 -19 -112.5 -19
c-45.333 0 -84.833 7.33301 -118.5 22s-61.667 34.5 -84 59.5s-39 54 -50 87s-16.5 67.5 -16.5 103.5v164c0 36 5.5 70.333 16.5 103s27.667 61.5 50 86.5s50.333 44.833 84 59.5s73.167 22 118.5 22zM308.999 557.002c-19.333 0 -36 -3.16406 -50 -9.49707
s-25.667 -14.833 -35 -25.5s-16.333 -22.834 -21 -36.501s-7 -27.5 -7 -41.5v-189c0 -15.333 2.33301 -30 7 -44s11.667 -26.333 21 -37s21 -19.334 35 -26.001s30.667 -10 50 -10c37.333 0 66.166 11.167 86.499 33.5s30.5 50.166 30.5 83.499v189
c0 30.667 -10.167 57.167 -30.5 79.5s-49.166 33.5 -86.499 33.5zM240.999 881.005c12.667 0 25.335 -2.66602 38.002 -7.99902s24.667 -11 36 -17l32 -16.5c10 -5 19 -7.5 27 -7.5c11.333 0 22 3.66699 32 11s21.667 19.666 35 36.999l68 -40
c-17.333 -38.667 -36 -66.5 -56 -83.5s-41.667 -25.5 -65 -25.5c-13.333 0 -26.5 2.5 -39.5 7.5s-25.333 10.333 -37 16l-33.5 16c-10.667 5 -20.667 7.5 -30 7.5c-11.333 0 -22.833 -3.5 -34.5 -10.5s-24.834 -20.167 -39.501 -39.5l-65 41
c17.333 36 36.166 63.667 56.499 83s45.5 29 75.5 29z" />
    <glyph glyph-name="Odieresis" unicode="&#xd6;" horiz-adv-x="624" 
d="M310 701c42 0 79.832 -6.83105 113.499 -20.498s62.334 -32.5 86.001 -56.5s41.834 -52.667 54.501 -86s19 -69.333 19 -108v-164c0 -41.333 -6.5 -78.833 -19.5 -112.5s-31.333 -62.334 -55 -86.001s-52.334 -41.834 -86.001 -54.501s-71.167 -19 -112.5 -19
c-45.333 0 -84.833 7.33301 -118.5 22s-61.667 34.5 -84 59.5s-39 54 -50 87s-16.5 67.5 -16.5 103.5v164c0 36 5.5 70.333 16.5 103s27.667 61.5 50 86.5s50.333 44.833 84 59.5s73.167 22 118.5 22zM308.999 557.002c-19.333 0 -36 -3.16406 -50 -9.49707
s-25.667 -14.833 -35 -25.5s-16.333 -22.834 -21 -36.501s-7 -27.5 -7 -41.5v-189c0 -15.333 2.33301 -30 7 -44s11.667 -26.333 21 -37s21 -19.334 35 -26.001s30.667 -10 50 -10c37.333 0 66.166 11.167 86.499 33.5s30.5 50.166 30.5 83.499v189
c0 30.667 -10.167 57.167 -30.5 79.5s-49.166 33.5 -86.499 33.5zM345.999 744.005v133h152v-133h-152zM130.999 744.005v133h153v-133h-153z" />
    <glyph glyph-name="multiply" unicode="&#xd7;" horiz-adv-x="550" 
d="M286 213l-160 -160l-87 87l160 160l-166 166l82 82l166 -166l157 158l88 -88l-158 -157l166 -166l-82 -82z" />
    <glyph glyph-name="Oslash" unicode="&#xd8;" horiz-adv-x="624" 
d="M310 701c36 0 68.835 -4.99805 98.502 -14.998s56.167 -24.333 79.5 -43l44 61l51 -37l-51 -69c34 -47.333 51 -103.333 51 -168v-164c0 -41.333 -6.5 -78.833 -19.5 -112.5s-31.333 -62.334 -55 -86.001s-52.334 -41.834 -86.001 -54.501s-71.167 -19 -112.5 -19
c-38 0 -72 5.16699 -102 15.5s-55.667 24.833 -77 43.5l-43 -58l-49 35l50 68c-16.667 23.333 -28.834 49.333 -36.501 78s-11.5 58.667 -11.5 90v164c0 36 5.5 70.333 16.5 103s27.667 61.5 50 86.5s50.333 44.833 84 59.5s73.167 22 118.5 22zM426.002 444.002
c0 1.33301 -0.166016 2.83398 -0.499023 4.50098s-0.5 3.16699 -0.5 4.5l-204 -277c9.33301 -11.333 21.333 -20.5 36 -27.5s32 -10.5 52 -10.5c37.333 0 66.166 11.167 86.499 33.5s30.5 50.166 30.5 83.499v189zM309.003 557.003c-19.333 0 -36 -3.16602 -50 -9.49902
s-25.667 -14.833 -35 -25.5s-16.333 -22.834 -21 -36.501s-7 -27.5 -7 -41.5v-189v-10l202 275c-10 11.333 -22.5 20.333 -37.5 27s-32.167 10 -51.5 10z" />
    <glyph glyph-name="Ugrave" unicode="&#xd9;" horiz-adv-x="657" 
d="M600 243c0 -37.333 -7.16797 -71.167 -21.501 -101.5s-33.666 -56.333 -57.999 -78s-53 -38.5 -86 -50.5s-68.167 -18 -105.5 -18s-72.5 6.16699 -105.5 18.5s-61.833 29.666 -86.5 51.999s-44 49.333 -58 81s-21 66.834 -21 105.501v444h153v-433
c0 -40 11.5 -70.833 34.5 -92.5s50.833 -32.5 83.5 -32.5c34 0 62 9.66699 84 29s33 48.333 33 87v442h154v-453zM341.999 732.999l-214 90l90 107l180 -128z" />
    <glyph glyph-name="Uacute" unicode="&#xda;" horiz-adv-x="657" 
d="M243 802l180 128l90 -107l-214 -90zM600 243c0 -37.333 -7.16797 -71.167 -21.501 -101.5s-33.666 -56.333 -57.999 -78s-53 -38.5 -86 -50.5s-68.167 -18 -105.5 -18s-72.5 6.16699 -105.5 18.5s-61.833 29.666 -86.5 51.999s-44 49.333 -58 81s-21 66.834 -21 105.501
v444h153v-433c0 -40 11.5 -70.833 34.5 -92.5s50.833 -32.5 83.5 -32.5c34 0 62 9.66699 84 29s33 48.333 33 87v442h154v-453z" />
    <glyph glyph-name="Ucircumflex" unicode="&#xdb;" horiz-adv-x="657" 
d="M600 243c0 -37.333 -7.16797 -71.167 -21.501 -101.5s-33.666 -56.333 -57.999 -78s-53 -38.5 -86 -50.5s-68.167 -18 -105.5 -18s-72.5 6.16699 -105.5 18.5s-61.833 29.666 -86.5 51.999s-44 49.333 -58 81s-21 66.834 -21 105.501v444h153v-433
c0 -40 11.5 -70.833 34.5 -92.5s50.833 -32.5 83.5 -32.5c34 0 62 9.66699 84 29s33 48.333 33 87v442h154v-453zM328.999 804.999l-150 -78l-48 58l149 120h98l151 -120l-51 -59z" />
    <glyph glyph-name="Udieresis" unicode="&#xdc;" horiz-adv-x="657" 
d="M600 243c0 -37.333 -7.16797 -71.167 -21.501 -101.5s-33.666 -56.333 -57.999 -78s-53 -38.5 -86 -50.5s-68.167 -18 -105.5 -18s-72.5 6.16699 -105.5 18.5s-61.833 29.666 -86.5 51.999s-44 49.333 -58 81s-21 66.834 -21 105.501v444h153v-433
c0 -40 11.5 -70.833 34.5 -92.5s50.833 -32.5 83.5 -32.5c34 0 62 9.66699 84 29s33 48.333 33 87v442h154v-453zM363.999 743.999v133h152v-133h-152zM148.999 743.999v133h153v-133h-153z" />
    <glyph glyph-name="Yacute" unicode="&#xdd;" horiz-adv-x="605" 
d="M224 802l180 128l90 -107l-214 -90zM378 285v-285h-147v285l-224 411h165l71 -150l60 -135h4l59 134l72 151h165z" />
    <glyph glyph-name="Thorn" unicode="&#xde;" horiz-adv-x="609" 
d="M601 349c0 -31.333 -6.33398 -60.333 -19.001 -87s-29.834 -49.667 -51.501 -69s-47.167 -34.5 -76.5 -45.5s-60.666 -16.5 -93.999 -16.5h-136v-131h-154v696h154v-123h123c36.667 0 70.5 -5.16699 101.5 -15.5s57.833 -25.166 80.5 -44.499
s40.334 -42.833 53.001 -70.5s19 -58.834 19 -93.501zM447.999 352c0 28 -8.33203 48.833 -24.999 62.5s-40.334 20.5 -71.001 20.5h-128v-166h132c25.333 0 47 7.5 65 22.5s27 35.167 27 60.5z" />
    <glyph glyph-name="germandbls" unicode="&#xdf;" horiz-adv-x="566" 
d="M521 242c0 -25.333 -3.00488 -52.165 -9.00488 -80.498s-17.167 -54.5 -33.5 -78.5s-39.166 -43.833 -68.499 -59.5s-67.333 -23.5 -114 -23.5h-31v119h23c23.333 0 43.166 9.16699 59.499 27.5s24.5 47.5 24.5 87.5c0 11.333 -0.5 23.833 -1.5 37.5
s-4.16699 26.5 -9.5 38.5s-13.333 22 -24 30s-25.667 12 -45 12v104c10.667 0 19.834 2.33301 27.501 7s13.834 10.5 18.501 17.5s8 14.5 10 22.5s3 15.667 3 23c0 6.66699 -0.833008 14.5 -2.5 23.5s-5 17.5 -10 25.5s-12.167 14.833 -21.5 20.5s-22 8.5 -38 8.5
c-14 0 -25.833 -2.33301 -35.5 -7s-17.5 -11 -23.5 -19s-10.333 -17 -13 -27s-4 -20 -4 -30v-521h-145v518c0 33.333 5.33301 62.833 16 88.5s25.834 47.167 45.501 64.5s42.834 30.5 69.501 39.5s56 13.5 88 13.5c38 0 70.167 -5.5 96.5 -16.5s47.833 -25.333 64.5 -43
s28.667 -37.334 36 -59.001s11 -42.834 11 -63.501c0 -10 -1 -21 -3 -33s-5.66699 -23.833 -11 -35.5s-12.5 -22.667 -21.5 -33s-20.5 -18.5 -34.5 -24.5v-3c20.667 -6 37.834 -15.833 51.501 -29.5s24.5 -28.667 32.5 -45s13.667 -33 17 -50s5 -32.5 5 -46.5z" />
    <glyph glyph-name="agrave" unicode="&#xe0;" horiz-adv-x="516" 
d="M326 0l0.00195312 46.002l-3 1c-8.66699 -10 -18.334 -18.333 -29.001 -25s-21.5 -12 -32.5 -16s-21.833 -6.83301 -32.5 -8.5s-20 -2.5 -28 -2.5c-24 0 -46.167 3 -66.5 9s-37.833 15.167 -52.5 27.5s-26.167 28 -34.5 47s-12.5 41.833 -12.5 68.5
c0 20.667 4 40.334 12 59.001s19.5 35 34.5 49s33.667 25 56 33s47.833 12 76.5 12h112v16c0 5.33301 -0.833008 11.5 -2.5 18.5s-5.33398 13.5 -11.001 19.5s-14 11.167 -25 15.5s-25.833 6.5 -44.5 6.5c-22.667 0 -43.667 -2.83301 -63 -8.5s-37.333 -15.834 -54 -30.501
l-69 97c30 27.333 62.167 45.166 96.5 53.499s69.166 12.5 104.499 12.5c28.667 0 55.834 -2.66699 81.501 -8s48 -14.5 67 -27.5s34 -30.333 45 -52s16.5 -48.834 16.5 -81.501v-331h-142zM326.002 196.002h-94.002c-12.667 0 -23 -1.16699 -31 -3.5
s-14.167 -5.33301 -18.5 -9s-7.16602 -7.66699 -8.49902 -12s-2 -8.5 -2 -12.5c0 -3.33301 0.833008 -7.5 2.5 -12.5s4.83398 -10 9.50098 -15s11.5 -9.33301 20.5 -13s20.833 -5.5 35.5 -5.5c22 0 41.833 5.33301 59.5 16s26.5 27.667 26.5 51v16zM260 537.002l-146 186
l134 46l93 -194z" />
    <glyph glyph-name="aacute" unicode="&#xe1;" horiz-adv-x="516" 
d="M326 0l0.00195312 46.002l-3 1c-8.66699 -10 -18.334 -18.333 -29.001 -25s-21.5 -12 -32.5 -16s-21.833 -6.83301 -32.5 -8.5s-20 -2.5 -28 -2.5c-24 0 -46.167 3 -66.5 9s-37.833 15.167 -52.5 27.5s-26.167 28 -34.5 47s-12.5 41.833 -12.5 68.5
c0 20.667 4 40.334 12 59.001s19.5 35 34.5 49s33.667 25 56 33s47.833 12 76.5 12h112v16c0 5.33301 -0.833008 11.5 -2.5 18.5s-5.33398 13.5 -11.001 19.5s-14 11.167 -25 15.5s-25.833 6.5 -44.5 6.5c-22.667 0 -43.667 -2.83301 -63 -8.5s-37.333 -15.834 -54 -30.501
l-69 97c30 27.333 62.167 45.166 96.5 53.499s69.166 12.5 104.499 12.5c28.667 0 55.834 -2.66699 81.501 -8s48 -14.5 67 -27.5s34 -30.333 45 -52s16.5 -48.834 16.5 -81.501v-331h-142zM326.002 196.002h-94.002c-12.667 0 -23 -1.16699 -31 -3.5
s-14.167 -5.33301 -18.5 -9s-7.16602 -7.66699 -8.49902 -12s-2 -8.5 -2 -12.5c0 -3.33301 0.833008 -7.5 2.5 -12.5s4.83398 -10 9.50098 -15s11.5 -9.33301 20.5 -13s20.833 -5.5 35.5 -5.5c22 0 41.833 5.33301 59.5 16s26.5 27.667 26.5 51v16zM200 567.002l85 203
l133 -43l-135 -190z" />
    <glyph glyph-name="acircumflex" unicode="&#xe2;" horiz-adv-x="516" 
d="M326 0l0.00195312 46.002l-3 1c-8.66699 -10 -18.334 -18.333 -29.001 -25s-21.5 -12 -32.5 -16s-21.833 -6.83301 -32.5 -8.5s-20 -2.5 -28 -2.5c-24 0 -46.167 3 -66.5 9s-37.833 15.167 -52.5 27.5s-26.167 28 -34.5 47s-12.5 41.833 -12.5 68.5
c0 20.667 4 40.334 12 59.001s19.5 35 34.5 49s33.667 25 56 33s47.833 12 76.5 12h112v16c0 5.33301 -0.833008 11.5 -2.5 18.5s-5.33398 13.5 -11.001 19.5s-14 11.167 -25 15.5s-25.833 6.5 -44.5 6.5c-22.667 0 -43.667 -2.83301 -63 -8.5s-37.333 -15.834 -54 -30.501
l-69 97c30 27.333 62.167 45.166 96.5 53.499s69.166 12.5 104.499 12.5c28.667 0 55.834 -2.66699 81.501 -8s48 -14.5 67 -27.5s34 -30.333 45 -52s16.5 -48.834 16.5 -81.501v-331h-142zM326.002 196.002h-94.002c-12.667 0 -23 -1.16699 -31 -3.5
s-14.167 -5.33301 -18.5 -9s-7.16602 -7.66699 -8.49902 -12s-2 -8.5 -2 -12.5c0 -3.33301 0.833008 -7.5 2.5 -12.5s4.83398 -10 9.50098 -15s11.5 -9.33301 20.5 -13s20.833 -5.5 35.5 -5.5c22 0 41.833 5.33301 59.5 16s26.5 27.667 26.5 51v16zM254 625.002l-72.5 -52
l-72.5 -51l-53 48l147 155h103l148 -155l-56 -49z" />
    <glyph glyph-name="atilde" unicode="&#xe3;" horiz-adv-x="516" 
d="M326 0l0.00195312 46.002l-3 1c-8.66699 -10 -18.334 -18.333 -29.001 -25s-21.5 -12 -32.5 -16s-21.833 -6.83301 -32.5 -8.5s-20 -2.5 -28 -2.5c-24 0 -46.167 3 -66.5 9s-37.833 15.167 -52.5 27.5s-26.167 28 -34.5 47s-12.5 41.833 -12.5 68.5
c0 20.667 4 40.334 12 59.001s19.5 35 34.5 49s33.667 25 56 33s47.833 12 76.5 12h112v16c0 5.33301 -0.833008 11.5 -2.5 18.5s-5.33398 13.5 -11.001 19.5s-14 11.167 -25 15.5s-25.833 6.5 -44.5 6.5c-22.667 0 -43.667 -2.83301 -63 -8.5s-37.333 -15.834 -54 -30.501
l-69 97c30 27.333 62.167 45.166 96.5 53.499s69.166 12.5 104.499 12.5c28.667 0 55.834 -2.66699 81.501 -8s48 -14.5 67 -27.5s34 -30.333 45 -52s16.5 -48.834 16.5 -81.501v-331h-142zM326.002 196.002h-94.002c-12.667 0 -23 -1.16699 -31 -3.5
s-14.167 -5.33301 -18.5 -9s-7.16602 -7.66699 -8.49902 -12s-2 -8.5 -2 -12.5c0 -3.33301 0.833008 -7.5 2.5 -12.5s4.83398 -10 9.50098 -15s11.5 -9.33301 20.5 -13s20.833 -5.5 35.5 -5.5c22 0 41.833 5.33301 59.5 16s26.5 27.667 26.5 51v16zM194 711.002
c12.667 0 25.335 -2.66602 38.002 -7.99902s24.667 -11 36 -17l32 -16.5c10 -5 19 -7.5 27 -7.5c11.333 0 22 3.66699 32 11s21.667 19.666 35 36.999l68 -40c-17.333 -38.667 -36 -66.5 -56 -83.5s-41.667 -25.5 -65 -25.5c-13.333 0 -26.5 2.5 -39.5 7.5
s-25.333 10.333 -37 16l-33.5 16c-10.667 5 -20.667 7.5 -30 7.5c-11.333 0 -22.833 -3.5 -34.5 -10.5s-24.834 -20.167 -39.501 -39.5l-65 41c17.333 36 36.166 63.667 56.499 83s45.5 29 75.5 29z" />
    <glyph glyph-name="adieresis" unicode="&#xe4;" horiz-adv-x="516" 
d="M326 0l0.00195312 46.002l-3 1c-8.66699 -10 -18.334 -18.333 -29.001 -25s-21.5 -12 -32.5 -16s-21.833 -6.83301 -32.5 -8.5s-20 -2.5 -28 -2.5c-24 0 -46.167 3 -66.5 9s-37.833 15.167 -52.5 27.5s-26.167 28 -34.5 47s-12.5 41.833 -12.5 68.5
c0 20.667 4 40.334 12 59.001s19.5 35 34.5 49s33.667 25 56 33s47.833 12 76.5 12h112v16c0 5.33301 -0.833008 11.5 -2.5 18.5s-5.33398 13.5 -11.001 19.5s-14 11.167 -25 15.5s-25.833 6.5 -44.5 6.5c-22.667 0 -43.667 -2.83301 -63 -8.5s-37.333 -15.834 -54 -30.501
l-69 97c30 27.333 62.167 45.166 96.5 53.499s69.166 12.5 104.499 12.5c28.667 0 55.834 -2.66699 81.501 -8s48 -14.5 67 -27.5s34 -30.333 45 -52s16.5 -48.834 16.5 -81.501v-331h-142zM326.002 196.002h-94.002c-12.667 0 -23 -1.16699 -31 -3.5
s-14.167 -5.33301 -18.5 -9s-7.16602 -7.66699 -8.49902 -12s-2 -8.5 -2 -12.5c0 -3.33301 0.833008 -7.5 2.5 -12.5s4.83398 -10 9.50098 -15s11.5 -9.33301 20.5 -13s20.833 -5.5 35.5 -5.5c22 0 41.833 5.33301 59.5 16s26.5 27.667 26.5 51v16zM294 569.002v130h149
v-130h-149zM76 569.002v130h148v-130h-148z" />
    <glyph glyph-name="aring" unicode="&#xe5;" horiz-adv-x="516" 
d="M326 0l0.00195312 46.002l-3 1c-8.66699 -10 -18.334 -18.333 -29.001 -25s-21.5 -12 -32.5 -16s-21.833 -6.83301 -32.5 -8.5s-20 -2.5 -28 -2.5c-24 0 -46.167 3 -66.5 9s-37.833 15.167 -52.5 27.5s-26.167 28 -34.5 47s-12.5 41.833 -12.5 68.5
c0 20.667 4 40.334 12 59.001s19.5 35 34.5 49s33.667 25 56 33s47.833 12 76.5 12h112v16c0 5.33301 -0.833008 11.5 -2.5 18.5s-5.33398 13.5 -11.001 19.5s-14 11.167 -25 15.5s-25.833 6.5 -44.5 6.5c-22.667 0 -43.667 -2.83301 -63 -8.5s-37.333 -15.834 -54 -30.501
l-69 97c30 27.333 62.167 45.166 96.5 53.499s69.166 12.5 104.499 12.5c28.667 0 55.834 -2.66699 81.501 -8s48 -14.5 67 -27.5s34 -30.333 45 -52s16.5 -48.834 16.5 -81.501v-331h-142zM326.002 196.002h-94.002c-12.667 0 -23 -1.16699 -31 -3.5
s-14.167 -5.33301 -18.5 -9s-7.16602 -7.66699 -8.49902 -12s-2 -8.5 -2 -12.5c0 -3.33301 0.833008 -7.5 2.5 -12.5s4.83398 -10 9.50098 -15s11.5 -9.33301 20.5 -13s20.833 -5.5 35.5 -5.5c22 0 41.833 5.33301 59.5 16s26.5 27.667 26.5 51v16zM308 643.002
c0 10.667 -3.83301 19.5 -11.5 26.5s-17.167 10.5 -28.5 10.5s-21 -3.5 -29 -10.5s-12 -15.833 -12 -26.5s4 -19.667 12 -27s17.667 -11 29 -11s20.833 3.66699 28.5 11s11.5 16.333 11.5 27zM143 643.002c0 16 3.33301 31 10 45s15.667 26.333 27 37s24.5 19 39.5 25
s31.167 9 48.5 9c16.667 0 32.667 -3 48 -9s28.5 -14.333 39.5 -25s19.833 -23 26.5 -37s10 -29 10 -45s-3.33301 -31 -10 -45s-15.667 -26.333 -27 -37s-24.5 -19 -39.5 -25s-31.167 -9 -48.5 -9s-33.5 3 -48.5 9s-28 14.333 -39 25s-19.833 23 -26.5 37s-10 29 -10 45z
" />
    <glyph glyph-name="ae" unicode="&#xe6;" horiz-adv-x="833" 
d="M477 210c4.66699 -32.667 15.1699 -55.1699 31.5029 -67.5029s36.5 -18.5 60.5 -18.5c12.667 0 27.667 2.83301 45 8.5s36.333 17.834 57 36.501l88 -98c-32 -29.333 -65 -49.333 -99 -60s-67 -16 -99 -16c-30.667 0 -61.667 4.66699 -93 14s-58.666 26.333 -81.999 51
c-18.667 -17.333 -42.167 -32.5 -70.5 -45.5s-63.166 -19.5 -104.499 -19.5c-24 0 -46.667 3 -68 9s-40 15.167 -56 27.5s-28.667 28 -38 47s-14 41.833 -14 68.5c0 20.667 4 40.334 12 59.001s19.5 35 34.5 49s33.667 25 56 33s47.833 12 76.5 12h112v16
c0 5.33301 -1 11.833 -3 19.5s-6 15 -12 22s-14.667 13 -26 18s-26.333 7.5 -45 7.5c-28 0 -51.833 -3.66699 -71.5 -11s-36.834 -18.333 -51.501 -33l-64 92c12.667 14 26.667 25.5 42 34.5s31.166 16 47.499 21s33.166 8.5 50.499 10.5s34.666 3 51.999 3
c12.667 0 26.667 -0.5 42 -1.5s30.666 -3.5 45.999 -7.5s30 -9.5 44 -16.5s26 -16.5 36 -28.5c18.667 19.333 40.5 33.166 65.5 41.499s49.167 12.5 72.5 12.5c39.333 0 73.5 -6.33301 102.5 -19s53 -30.167 72 -52.5s33.167 -49.166 42.5 -80.499s14 -65.666 14 -102.999
v-35h-305zM326.003 195.997h-94.002c-12.667 0 -23 -1.16699 -31 -3.5s-14.167 -5.33301 -18.5 -9s-7.16602 -7.66699 -8.49902 -12s-2 -8.5 -2 -12.5c0 -3.33301 0.833008 -7.5 2.5 -12.5s4.83398 -10 9.50098 -15s11.5 -9.33301 20.5 -13s20.833 -5.5 35.5 -5.5
c22 0 41.833 5.33301 59.5 16s26.5 27.667 26.5 51v16zM632.001 301.997c-2.66699 22.667 -11.5 39.833 -26.5 51.5s-31.5 17.5 -49.5 17.5s-34 -6 -48 -18s-22.667 -29 -26 -51h150z" />
    <glyph glyph-name="ccedilla" unicode="&#xe7;" horiz-adv-x="463" 
d="M197 0c-24 5.33301 -46.3369 14.3291 -67.0039 26.9961s-38.5 29.167 -53.5 49.5s-26.833 44.5 -35.5 72.5s-13 60.667 -13 98c0 44.667 6.5 82.834 19.5 114.501s30.5 57.834 52.5 78.501s47.333 35.834 76 45.501s58.334 14.5 89.001 14.5c34 0 65.333 -5.66699 94 -17
s55.667 -29.666 81 -54.999l-92 -97c-15.333 14.667 -29.833 25.167 -43.5 31.5s-26.834 9.5 -39.501 9.5c-28.667 0 -50.5 -9.66699 -65.5 -29s-22.5 -51.333 -22.5 -96c0 -44 6.66699 -75.5 20 -94.5s35 -28.5 65 -28.5c13.333 0 27.333 3.16699 42 9.5
s30 17.166 46 32.499l94 -96c-52.667 -47.333 -111.667 -72.666 -177 -75.999l-10 -30c34.667 -4 59.334 -15 74.001 -33s22 -37 22 -57c0 -12 -2.66699 -23.5 -8 -34.5s-13.166 -21 -23.499 -30s-23 -16.167 -38 -21.5s-31.833 -8 -50.5 -8
c-21.333 0 -41.666 2.5 -60.999 7.5s-36.333 12.167 -51 21.5l25 62c16.667 -8 30.334 -13 41.001 -15s21.667 -3 33 -3c10.667 0 20 2.5 28 7.5s12 12.5 12 22.5c0 6.66699 -1.83301 12 -5.5 16s-8 6.5 -13 7.5s-10.167 1.16699 -15.5 0.5s-10 -2 -14 -4l-39 20z" />
    <glyph glyph-name="egrave" unicode="&#xe8;" horiz-adv-x="533" 
d="M183 210c3.33301 -32 11.9971 -54.502 25.9971 -67.502s33 -19.5 57 -19.5c12.667 0 29.334 3 50.001 9s41.334 18.333 62.001 37l88 -98c-32 -29.333 -66 -49.5 -102 -60.5s-70 -16.5 -102 -16.5c-27.333 0 -54.5 3.83301 -81.5 11.5s-51.333 21 -73 40
s-39.167 44.667 -52.5 77s-20 73.5 -20 123.5c0 46.667 6.5 86.167 19.5 118.5s30.167 58.5 51.5 78.5s45.5 34.5 72.5 43.5s54.5 13.5 82.5 13.5c39.333 0 73.333 -6.33301 102 -19s52.334 -30.167 71.001 -52.5s32.5 -49.166 41.5 -80.499s13.5 -65.666 13.5 -102.999v-35
h-306zM334.997 301.998c-2.66699 22.667 -11 40.167 -25 52.5s-30 18.5 -48 18.5s-34 -6.33301 -48 -19s-22.667 -30 -26 -52h147zM256.997 536.998l-146 186l134 46l93 -194z" />
    <glyph glyph-name="eacute" unicode="&#xe9;" horiz-adv-x="533" 
d="M183 210c3.33301 -32 11.9971 -54.502 25.9971 -67.502s33 -19.5 57 -19.5c12.667 0 29.334 3 50.001 9s41.334 18.333 62.001 37l88 -98c-32 -29.333 -66 -49.5 -102 -60.5s-70 -16.5 -102 -16.5c-27.333 0 -54.5 3.83301 -81.5 11.5s-51.333 21 -73 40
s-39.167 44.667 -52.5 77s-20 73.5 -20 123.5c0 46.667 6.5 86.167 19.5 118.5s30.167 58.5 51.5 78.5s45.5 34.5 72.5 43.5s54.5 13.5 82.5 13.5c39.333 0 73.333 -6.33301 102 -19s52.334 -30.167 71.001 -52.5s32.5 -49.166 41.5 -80.499s13.5 -65.666 13.5 -102.999v-35
h-306zM334.997 301.998c-2.66699 22.667 -11 40.167 -25 52.5s-30 18.5 -48 18.5s-34 -6.33301 -48 -19s-22.667 -30 -26 -52h147zM194.997 566.998l85 203l133 -43l-135 -190z" />
    <glyph glyph-name="ecircumflex" unicode="&#xea;" horiz-adv-x="533" 
d="M183 210c3.33301 -32 11.9971 -54.502 25.9971 -67.502s33 -19.5 57 -19.5c12.667 0 29.334 3 50.001 9s41.334 18.333 62.001 37l88 -98c-32 -29.333 -66 -49.5 -102 -60.5s-70 -16.5 -102 -16.5c-27.333 0 -54.5 3.83301 -81.5 11.5s-51.333 21 -73 40
s-39.167 44.667 -52.5 77s-20 73.5 -20 123.5c0 46.667 6.5 86.167 19.5 118.5s30.167 58.5 51.5 78.5s45.5 34.5 72.5 43.5s54.5 13.5 82.5 13.5c39.333 0 73.333 -6.33301 102 -19s52.334 -30.167 71.001 -52.5s32.5 -49.166 41.5 -80.499s13.5 -65.666 13.5 -102.999v-35
h-306zM334.997 301.998c-2.66699 22.667 -11 40.167 -25 52.5s-30 18.5 -48 18.5s-34 -6.33301 -48 -19s-22.667 -30 -26 -52h147zM264.997 624.998l-72.5 -52l-72.5 -51l-53 48l147 155h103l148 -155l-56 -49z" />
    <glyph glyph-name="edieresis" unicode="&#xeb;" horiz-adv-x="533" 
d="M183 210c3.33301 -32 11.9971 -54.502 25.9971 -67.502s33 -19.5 57 -19.5c12.667 0 29.334 3 50.001 9s41.334 18.333 62.001 37l88 -98c-32 -29.333 -66 -49.5 -102 -60.5s-70 -16.5 -102 -16.5c-27.333 0 -54.5 3.83301 -81.5 11.5s-51.333 21 -73 40
s-39.167 44.667 -52.5 77s-20 73.5 -20 123.5c0 46.667 6.5 86.167 19.5 118.5s30.167 58.5 51.5 78.5s45.5 34.5 72.5 43.5s54.5 13.5 82.5 13.5c39.333 0 73.333 -6.33301 102 -19s52.334 -30.167 71.001 -52.5s32.5 -49.166 41.5 -80.499s13.5 -65.666 13.5 -102.999v-35
h-306zM334.997 301.998c-2.66699 22.667 -11 40.167 -25 52.5s-30 18.5 -48 18.5s-34 -6.33301 -48 -19s-22.667 -30 -26 -52h147zM293.997 568.998v130h149v-130h-149zM75.9971 568.998v130h148v-130h-148z" />
    <glyph glyph-name="igrave" unicode="&#xec;" horiz-adv-x="269" 
d="M114 537l-146 186l134 46l93 -194zM63 0v495h143v-495h-143z" />
    <glyph glyph-name="iacute" unicode="&#xed;" horiz-adv-x="269" 
d="M67 567l85 203l133 -43l-135 -190zM63 0v495h143v-495h-143z" />
    <glyph glyph-name="icircumflex" unicode="&#xee;" horiz-adv-x="357" 
d="M177 625l-72.5 -52l-72.5 -51l-53 48l147 155h103l148 -155l-56 -49zM104 0v495h143v-495h-143z" />
    <glyph glyph-name="idieresis" unicode="&#xef;" horiz-adv-x="327" 
d="M198 569v130h149v-130h-149zM-20 569v130h148v-130h-148zM92 0v495h143v-495h-143z" />
    <glyph glyph-name="eth" unicode="&#xf0;" horiz-adv-x="537" 
d="M247 476c12 0 24.1592 -1.66504 36.4922 -4.99805s23.833 -7.66602 34.5 -12.999s20.334 -11.5 29.001 -18.5s15.334 -14.5 20.001 -22.5h2c0.666992 0 1.33398 0.333008 2.00098 1c-1.33301 23.333 -4.5 47.166 -9.5 71.499s-14.167 44.5 -27.5 60.5l-49 -42l-46 50
l48 42c-17.333 12 -36.666 21.167 -57.999 27.5s-44.666 10.5 -69.999 12.5l21 111c42.667 -3.33301 81.167 -10.833 115.5 -22.5s64.833 -29.167 91.5 -52.5l61 53l50 -48l-61 -53c14.667 -19.333 26.5 -40.5 35.5 -63.5s16 -47.5 21 -73.5s8.33301 -53.333 10 -82
s2.5 -58.334 2.5 -89.001c0 -44 -4.83301 -85.667 -14.5 -125s-24.667 -74 -45 -104s-46.666 -53.833 -78.999 -71.5s-71.166 -26.5 -116.499 -26.5c-40 0 -74 6.33301 -102 19s-51 30 -69 52s-31 47.667 -39 77s-12 61 -12 95c0 26.667 3.33301 54.167 10 82.5
s18.334 54.166 35.001 77.499s39 42.5 67 57.5s63.333 22.5 106 22.5zM252.992 345.002c-14 0 -25.8311 -3 -35.498 -9s-17.5 -14.167 -23.5 -24.5s-10.333 -22.5 -13 -36.5s-4 -29.333 -4 -46c0 -15.333 1.83301 -30.5 5.5 -45.5s9.5 -27.5 17.5 -37.5
c12 -14.667 29.667 -22 53 -22c13.333 0 25.166 3.16699 35.499 9.5s18.166 13.833 23.499 22.5c6 10 10.333 22.167 13 36.5s4 29.5 4 45.5c0 32 -6 57.833 -18 77.5s-31.333 29.5 -58 29.5z" />
    <glyph glyph-name="ntilde" unicode="&#xf1;" horiz-adv-x="551" 
d="M348 0l-0.000976562 292c0 25.333 -6.66699 44.333 -20 57s-30 19 -50 19c-21.333 0 -39.166 -6.33301 -53.499 -19s-21.5 -31.667 -21.5 -57v-292h-143v495h143v-41h2c15.333 14 34.5 25.167 57.5 33.5s43.833 12.5 62.5 12.5c54 0 95 -15 123 -45s42 -74.333 42 -133
v-322h-142zM192.999 711c12.667 0 25.335 -2.66602 38.002 -7.99902s24.667 -11 36 -17l32 -16.5c10 -5 19 -7.5 27 -7.5c11.333 0 22 3.66699 32 11s21.667 19.666 35 36.999l68 -40c-17.333 -38.667 -36 -66.5 -56 -83.5s-41.667 -25.5 -65 -25.5
c-13.333 0 -26.5 2.5 -39.5 7.5s-25.333 10.333 -37 16l-33.5 16c-10.667 5 -20.667 7.5 -30 7.5c-11.333 0 -22.833 -3.5 -34.5 -10.5s-24.834 -20.167 -39.501 -39.5l-65 41c17.333 36 36.166 63.667 56.499 83s45.5 29 75.5 29z" />
    <glyph glyph-name="ograve" unicode="&#xf2;" horiz-adv-x="516" 
d="M265 501c38 0 72.666 -6.99902 103.999 -20.999s56.333 -34.667 75 -62c14 -20.667 24.167 -45.667 30.5 -75s9.16602 -62 8.49902 -98c0 -32.667 -3.33301 -61.834 -10 -87.501s-16 -48.5 -28 -68.5c-20.667 -33.333 -48.167 -57.666 -82.5 -72.999
s-71.166 -23 -110.499 -23c-38.667 0 -73.167 6.33301 -103.5 19s-54.833 32.667 -73.5 60c-15.333 22 -26.333 47.833 -33 77.5s-9.66699 62.5 -9 98.5c0.666992 25.333 3 50.333 7 75s10.333 46 19 64c17.333 37.333 44.333 65.666 81 84.999s78.334 29 125.001 29z
M259.999 373.001c-14 0 -26.8311 -3.83203 -38.498 -11.499s-20.834 -18.167 -27.501 -31.5c-5.33301 -10.667 -9 -23 -11 -37s-3.33301 -29.667 -4 -47c0 -17.333 1 -32.833 3 -46.5s5.66699 -25.5 11 -35.5c6 -12.667 14.333 -22.667 25 -30s23.334 -11 38.001 -11
c17.333 0 32.166 4.66699 44.499 14s21.166 22.666 26.499 39.999c2 7.33301 4 16.833 6 28.5s3 25.834 3 42.501c0.666992 18.667 -0.333008 35.167 -3 49.5s-5.66699 25.166 -9 32.499c-6 14.667 -14.833 25.5 -26.5 32.5s-24.167 10.5 -37.5 10.5zM258.001 537.002
l-146 186l134 46l93 -194z" />
    <glyph glyph-name="oacute" unicode="&#xf3;" horiz-adv-x="516" 
d="M265 501c38 0 72.666 -6.99902 103.999 -20.999s56.333 -34.667 75 -62c14 -20.667 24.167 -45.667 30.5 -75s9.16602 -62 8.49902 -98c0 -32.667 -3.33301 -61.834 -10 -87.501s-16 -48.5 -28 -68.5c-20.667 -33.333 -48.167 -57.666 -82.5 -72.999
s-71.166 -23 -110.499 -23c-38.667 0 -73.167 6.33301 -103.5 19s-54.833 32.667 -73.5 60c-15.333 22 -26.333 47.833 -33 77.5s-9.66699 62.5 -9 98.5c0.666992 25.333 3 50.333 7 75s10.333 46 19 64c17.333 37.333 44.333 65.666 81 84.999s78.334 29 125.001 29z
M259.999 373.001c-14 0 -26.8311 -3.83203 -38.498 -11.499s-20.834 -18.167 -27.501 -31.5c-5.33301 -10.667 -9 -23 -11 -37s-3.33301 -29.667 -4 -47c0 -17.333 1 -32.833 3 -46.5s5.66699 -25.5 11 -35.5c6 -12.667 14.333 -22.667 25 -30s23.334 -11 38.001 -11
c17.333 0 32.166 4.66699 44.499 14s21.166 22.666 26.499 39.999c2 7.33301 4 16.833 6 28.5s3 25.834 3 42.501c0.666992 18.667 -0.333008 35.167 -3 49.5s-5.66699 25.166 -9 32.499c-6 14.667 -14.833 25.5 -26.5 32.5s-24.167 10.5 -37.5 10.5zM204.001 567.002
l85 203l133 -43l-135 -190z" />
    <glyph glyph-name="ocircumflex" unicode="&#xf4;" horiz-adv-x="516" 
d="M265 501c38 0 72.666 -6.99902 103.999 -20.999s56.333 -34.667 75 -62c14 -20.667 24.167 -45.667 30.5 -75s9.16602 -62 8.49902 -98c0 -32.667 -3.33301 -61.834 -10 -87.501s-16 -48.5 -28 -68.5c-20.667 -33.333 -48.167 -57.666 -82.5 -72.999
s-71.166 -23 -110.499 -23c-38.667 0 -73.167 6.33301 -103.5 19s-54.833 32.667 -73.5 60c-15.333 22 -26.333 47.833 -33 77.5s-9.66699 62.5 -9 98.5c0.666992 25.333 3 50.333 7 75s10.333 46 19 64c17.333 37.333 44.333 65.666 81 84.999s78.334 29 125.001 29z
M259.999 373.001c-14 0 -26.8311 -3.83203 -38.498 -11.499s-20.834 -18.167 -27.501 -31.5c-5.33301 -10.667 -9 -23 -11 -37s-3.33301 -29.667 -4 -47c0 -17.333 1 -32.833 3 -46.5s5.66699 -25.5 11 -35.5c6 -12.667 14.333 -22.667 25 -30s23.334 -11 38.001 -11
c17.333 0 32.166 4.66699 44.499 14s21.166 22.666 26.499 39.999c2 7.33301 4 16.833 6 28.5s3 25.834 3 42.501c0.666992 18.667 -0.333008 35.167 -3 49.5s-5.66699 25.166 -9 32.499c-6 14.667 -14.833 25.5 -26.5 32.5s-24.167 10.5 -37.5 10.5zM261.001 625.002
l-72.5 -52l-72.5 -51l-53 48l147 155h103l148 -155l-56 -49z" />
    <glyph glyph-name="otilde" unicode="&#xf5;" horiz-adv-x="516" 
d="M265 501c38 0 72.666 -6.99902 103.999 -20.999s56.333 -34.667 75 -62c14 -20.667 24.167 -45.667 30.5 -75s9.16602 -62 8.49902 -98c0 -32.667 -3.33301 -61.834 -10 -87.501s-16 -48.5 -28 -68.5c-20.667 -33.333 -48.167 -57.666 -82.5 -72.999
s-71.166 -23 -110.499 -23c-38.667 0 -73.167 6.33301 -103.5 19s-54.833 32.667 -73.5 60c-15.333 22 -26.333 47.833 -33 77.5s-9.66699 62.5 -9 98.5c0.666992 25.333 3 50.333 7 75s10.333 46 19 64c17.333 37.333 44.333 65.666 81 84.999s78.334 29 125.001 29z
M259.999 373.001c-14 0 -26.8311 -3.83203 -38.498 -11.499s-20.834 -18.167 -27.501 -31.5c-5.33301 -10.667 -9 -23 -11 -37s-3.33301 -29.667 -4 -47c0 -17.333 1 -32.833 3 -46.5s5.66699 -25.5 11 -35.5c6 -12.667 14.333 -22.667 25 -30s23.334 -11 38.001 -11
c17.333 0 32.166 4.66699 44.499 14s21.166 22.666 26.499 39.999c2 7.33301 4 16.833 6 28.5s3 25.834 3 42.501c0.666992 18.667 -0.333008 35.167 -3 49.5s-5.66699 25.166 -9 32.499c-6 14.667 -14.833 25.5 -26.5 32.5s-24.167 10.5 -37.5 10.5zM191.001 711.002
c12.667 0 25.335 -2.66602 38.002 -7.99902s24.667 -11 36 -17l32 -16.5c10 -5 19 -7.5 27 -7.5c11.333 0 22 3.66699 32 11s21.667 19.666 35 36.999l68 -40c-17.333 -38.667 -36 -66.5 -56 -83.5s-41.667 -25.5 -65 -25.5c-13.333 0 -26.5 2.5 -39.5 7.5
s-25.333 10.333 -37 16l-33.5 16c-10.667 5 -20.667 7.5 -30 7.5c-11.333 0 -22.833 -3.5 -34.5 -10.5s-24.834 -20.167 -39.501 -39.5l-65 41c17.333 36 36.166 63.667 56.499 83s45.5 29 75.5 29z" />
    <glyph glyph-name="odieresis" unicode="&#xf6;" horiz-adv-x="516" 
d="M265 501c38 0 72.666 -6.99902 103.999 -20.999s56.333 -34.667 75 -62c14 -20.667 24.167 -45.667 30.5 -75s9.16602 -62 8.49902 -98c0 -32.667 -3.33301 -61.834 -10 -87.501s-16 -48.5 -28 -68.5c-20.667 -33.333 -48.167 -57.666 -82.5 -72.999
s-71.166 -23 -110.499 -23c-38.667 0 -73.167 6.33301 -103.5 19s-54.833 32.667 -73.5 60c-15.333 22 -26.333 47.833 -33 77.5s-9.66699 62.5 -9 98.5c0.666992 25.333 3 50.333 7 75s10.333 46 19 64c17.333 37.333 44.333 65.666 81 84.999s78.334 29 125.001 29z
M259.999 373.001c-14 0 -26.8311 -3.83203 -38.498 -11.499s-20.834 -18.167 -27.501 -31.5c-5.33301 -10.667 -9 -23 -11 -37s-3.33301 -29.667 -4 -47c0 -17.333 1 -32.833 3 -46.5s5.66699 -25.5 11 -35.5c6 -12.667 14.333 -22.667 25 -30s23.334 -11 38.001 -11
c17.333 0 32.166 4.66699 44.499 14s21.166 22.666 26.499 39.999c2 7.33301 4 16.833 6 28.5s3 25.834 3 42.501c0.666992 18.667 -0.333008 35.167 -3 49.5s-5.66699 25.166 -9 32.499c-6 14.667 -14.833 25.5 -26.5 32.5s-24.167 10.5 -37.5 10.5zM294.001 569.002v130
h149v-130h-149zM76.001 569.002v130h148v-130h-148z" />
    <glyph glyph-name="divide" unicode="&#xf7;" horiz-adv-x="550" 
d="M364 505c0 -23.333 -8.66699 -43 -26 -59s-38.333 -24 -63 -24s-45.667 8 -63 24s-26 35.667 -26 59c0 12 2.33301 23 7 33s11 18.833 19 26.5s17.5 13.667 28.5 18s22.5 6.5 34.5 6.5s23.5 -2.16699 34.5 -6.5s20.5 -10.333 28.5 -18s14.333 -16.5 19 -26.5s7 -21 7 -33
zM18 240v116h514v-116h-514zM364 81c0 -12 -2.33301 -23 -7 -33s-11 -18.833 -19 -26.5s-17.5 -13.667 -28.5 -18s-22.5 -6.5 -34.5 -6.5s-23.5 2.16699 -34.5 6.5s-20.5 10.333 -28.5 18s-14.333 16.5 -19 26.5s-7 21 -7 33c0 23.333 8.66699 43 26 59s38.333 24 63 24
s45.667 -8 63 -24s26 -35.667 26 -59z" />
    <glyph glyph-name="oslash" unicode="&#xf8;" horiz-adv-x="516" 
d="M265 501c28.667 0 55.5 -3.99805 80.5 -11.998s47.167 -20 66.5 -36l43 50l33 -29l-47 -53l3 -3c14 -20.667 24.167 -45.667 30.5 -75s9.16602 -62 8.49902 -98c0 -32.667 -3.33301 -61.834 -10 -87.501s-16 -48.5 -28 -68.5
c-20.667 -33.333 -48.167 -57.666 -82.5 -72.999s-71.166 -23 -110.499 -23c-30 0 -57.333 3.66699 -82 11s-46.334 18.666 -65.001 33.999l-40 -46l-32 27l44 50c-1.33301 1.33301 -2 2.33301 -2 3c-15.333 22 -26.333 47.833 -33 77.5s-9.66699 62.5 -9 98.5
c0.666992 25.333 3 50.333 7 75s10.333 46 19 64c17.333 37.333 44.333 65.666 81 84.999s78.334 29 125.001 29zM260 373.002c-14 0 -26.8311 -3.83301 -38.498 -11.5s-20.834 -18.167 -27.501 -31.5c-5.33301 -10.667 -9 -23 -11 -37s-3.33301 -29.667 -4 -47
c0 -22.667 1.33301 -40.667 4 -54l133 152c-6.66699 9.33301 -14.834 16.5 -24.501 21.5s-20.167 7.5 -31.5 7.5zM336.002 248.002c0 18.667 -0.998047 35 -2.99805 49l-131 -149c13.333 -16.667 31.333 -25 54 -25c17.333 0 32.166 4.66699 44.499 14
s21.166 22.666 26.499 39.999c2 7.33301 4 16.833 6 28.5s3 25.834 3 42.501z" />
    <glyph glyph-name="ugrave" unicode="&#xf9;" horiz-adv-x="551" 
d="M204 495l0.00292969 -293c0 -25.333 6.5 -44.333 19.5 -57s29.5 -19 49.5 -19c21.333 0 39.333 6.33301 54 19s22 31.667 22 57v293h143v-495h-143v42h-2c-6.66699 -8 -14.834 -15 -24.501 -21s-19.834 -11 -30.501 -15s-21.334 -7 -32.001 -9s-20.667 -3 -30 -3
c-52 0 -93.167 15 -123.5 45s-45.5 74.333 -45.5 133v323h143zM266.003 537l-146 186l134 46l93 -194z" />
    <glyph glyph-name="uacute" unicode="&#xfa;" horiz-adv-x="551" 
d="M204 495l0.00292969 -293c0 -25.333 6.5 -44.333 19.5 -57s29.5 -19 49.5 -19c21.333 0 39.333 6.33301 54 19s22 31.667 22 57v293h143v-495h-143v42h-2c-6.66699 -8 -14.834 -15 -24.501 -21s-19.834 -11 -30.501 -15s-21.334 -7 -32.001 -9s-20.667 -3 -30 -3
c-52 0 -93.167 15 -123.5 45s-45.5 74.333 -45.5 133v323h143zM219.003 567l85 203l133 -43l-135 -190z" />
    <glyph glyph-name="ucircumflex" unicode="&#xfb;" horiz-adv-x="551" 
d="M204 495l0.00292969 -293c0 -25.333 6.5 -44.333 19.5 -57s29.5 -19 49.5 -19c21.333 0 39.333 6.33301 54 19s22 31.667 22 57v293h143v-495h-143v42h-2c-6.66699 -8 -14.834 -15 -24.501 -21s-19.834 -11 -30.501 -15s-21.334 -7 -32.001 -9s-20.667 -3 -30 -3
c-52 0 -93.167 15 -123.5 45s-45.5 74.333 -45.5 133v323h143zM274.003 625l-72.5 -52l-72.5 -51l-53 48l147 155h103l148 -155l-56 -49z" />
    <glyph glyph-name="udieresis" unicode="&#xfc;" horiz-adv-x="551" 
d="M204 495l0.00292969 -293c0 -25.333 6.5 -44.333 19.5 -57s29.5 -19 49.5 -19c21.333 0 39.333 6.33301 54 19s22 31.667 22 57v293h143v-495h-143v42h-2c-6.66699 -8 -14.834 -15 -24.501 -21s-19.834 -11 -30.501 -15s-21.334 -7 -32.001 -9s-20.667 -3 -30 -3
c-52 0 -93.167 15 -123.5 45s-45.5 74.333 -45.5 133v323h143zM306.003 569v130h149v-130h-149zM88.0029 569v130h148v-130h-148z" />
    <glyph glyph-name="yacute" unicode="&#xfd;" horiz-adv-x="502" 
d="M278 -96c-15.333 -40 -37 -67.333 -65 -82s-58.667 -22 -92 -22h-57v117h37c15.333 0 27.5 4.83301 36.5 14.5s15.833 21.167 20.5 34.5l24 74l-182 455h153l48 -141l48 -156h4l47 154l50 143h152zM206 567l85 203l133 -43l-135 -190z" />
    <glyph glyph-name="thorn" unicode="&#xfe;" horiz-adv-x="533" 
d="M205 727l-0.000976562 -267l3 -1c14 15.333 29.333 25.833 46 31.5s34 8.5 52 8.5c42.667 0 76.667 -8.66699 102 -26s44.5 -39.166 57.5 -65.499s21.333 -54.833 25 -85.5s5.5 -59.334 5.5 -86.001c0 -25.333 -2.5 -52.166 -7.5 -80.499s-14.667 -54.5 -29 -78.5
s-34.166 -43.833 -59.499 -59.5s-58.333 -23.5 -99 -23.5c-16.667 0 -33.5 4.16699 -50.5 12.5s-31.167 19.166 -42.5 32.499l-3 -1v-240h-142v929h142zM204.999 246c0 -12.667 0.665039 -26.167 1.99805 -40.5s4.5 -27.5 9.5 -39.5s12.167 -22 21.5 -30s22.333 -12 39 -12
s29.834 3.83301 39.501 11.5s17 17.5 22 29.5s8.16699 25.167 9.5 39.5s2 28.166 2 41.499c0 12.667 -0.5 26.167 -1.5 40.5s-3.83301 27.666 -8.5 39.999s-12 22.5 -22 30.5s-23.667 12 -41 12s-30.666 -4.16699 -39.999 -12.5s-16.5 -18.666 -21.5 -30.999
s-8 -25.666 -9 -39.999s-1.5 -27.5 -1.5 -39.5z" />
    <glyph glyph-name="ydieresis" unicode="&#xff;" horiz-adv-x="502" 
d="M278 -96c-15.333 -40 -37 -67.333 -65 -82s-58.667 -22 -92 -22h-57v117h37c15.333 0 27.5 4.83301 36.5 14.5s15.833 21.167 20.5 34.5l24 74l-182 455h153l48 -141l48 -156h4l47 154l50 143h152zM277 569v130h149v-130h-149zM59 569v130h148v-130h-148z" />
    <glyph glyph-name="Amacron" unicode="&#x100;" horiz-adv-x="660" 
d="M497 0l-52 142h-233l-52 -142h-162l270 696h121l270 -696h-162zM371 352l-41 138h-4l-40 -136l-26 -82h137zM163 758v118h333v-118h-333z" />
    <glyph glyph-name="amacron" unicode="&#x101;" horiz-adv-x="516" 
d="M326 0l0.00195312 46.002l-3 1c-8.66699 -10 -18.334 -18.333 -29.001 -25s-21.5 -12 -32.5 -16s-21.833 -6.83301 -32.5 -8.5s-20 -2.5 -28 -2.5c-24 0 -46.167 3 -66.5 9s-37.833 15.167 -52.5 27.5s-26.167 28 -34.5 47s-12.5 41.833 -12.5 68.5
c0 20.667 4 40.334 12 59.001s19.5 35 34.5 49s33.667 25 56 33s47.833 12 76.5 12h112v16c0 5.33301 -0.833008 11.5 -2.5 18.5s-5.33398 13.5 -11.001 19.5s-14 11.167 -25 15.5s-25.833 6.5 -44.5 6.5c-22.667 0 -43.667 -2.83301 -63 -8.5s-37.333 -15.834 -54 -30.501
l-69 97c30 27.333 62.167 45.166 96.5 53.499s69.166 12.5 104.499 12.5c28.667 0 55.834 -2.66699 81.501 -8s48 -14.5 67 -27.5s34 -30.333 45 -52s16.5 -48.834 16.5 -81.501v-331h-142zM326.002 196.002h-94.002c-12.667 0 -23 -1.16699 -31 -3.5
s-14.167 -5.33301 -18.5 -9s-7.16602 -7.66699 -8.49902 -12s-2 -8.5 -2 -12.5c0 -3.33301 0.833008 -7.5 2.5 -12.5s4.83398 -10 9.50098 -15s11.5 -9.33301 20.5 -13s20.833 -5.5 35.5 -5.5c22 0 41.833 5.33301 59.5 16s26.5 27.667 26.5 51v16zM92 578.002v118h333v-118
h-333z" />
    <glyph glyph-name="Abreve" unicode="&#x102;" horiz-adv-x="660" 
d="M497 0l-52 142h-233l-52 -142h-162l270 696h121l270 -696h-162zM371 352l-41 138h-4l-40 -136l-26 -82h137zM328 731c-28.667 0 -52.665 5.5 -71.998 16.5s-34.833 24.667 -46.5 41s-20.334 33.833 -26.001 52.5s-9.5 35.667 -11.5 51h100
c0 -6.66699 1.16699 -13.834 3.5 -21.501s5.83301 -15 10.5 -22s10.5 -12.833 17.5 -17.5s15.167 -7 24.5 -7s17.5 2.33301 24.5 7s12.833 10.5 17.5 17.5s8.16699 14.333 10.5 22s3.5 14.834 3.5 21.501h100c-2 -15.333 -5.83301 -32.333 -11.5 -51
s-14.334 -36.167 -26.001 -52.5s-27.167 -30 -46.5 -41s-43.333 -16.5 -72 -16.5z" />
    <glyph glyph-name="abreve" unicode="&#x103;" horiz-adv-x="516" 
d="M326 0l0.00195312 46.002l-3 1c-8.66699 -10 -18.334 -18.333 -29.001 -25s-21.5 -12 -32.5 -16s-21.833 -6.83301 -32.5 -8.5s-20 -2.5 -28 -2.5c-24 0 -46.167 3 -66.5 9s-37.833 15.167 -52.5 27.5s-26.167 28 -34.5 47s-12.5 41.833 -12.5 68.5
c0 20.667 4 40.334 12 59.001s19.5 35 34.5 49s33.667 25 56 33s47.833 12 76.5 12h112v16c0 5.33301 -0.833008 11.5 -2.5 18.5s-5.33398 13.5 -11.001 19.5s-14 11.167 -25 15.5s-25.833 6.5 -44.5 6.5c-22.667 0 -43.667 -2.83301 -63 -8.5s-37.333 -15.834 -54 -30.501
l-69 97c30 27.333 62.167 45.166 96.5 53.499s69.166 12.5 104.499 12.5c28.667 0 55.834 -2.66699 81.501 -8s48 -14.5 67 -27.5s34 -30.333 45 -52s16.5 -48.834 16.5 -81.501v-331h-142zM326.002 196.002h-94.002c-12.667 0 -23 -1.16699 -31 -3.5
s-14.167 -5.33301 -18.5 -9s-7.16602 -7.66699 -8.49902 -12s-2 -8.5 -2 -12.5c0 -3.33301 0.833008 -7.5 2.5 -12.5s4.83398 -10 9.50098 -15s11.5 -9.33301 20.5 -13s20.833 -5.5 35.5 -5.5c22 0 41.833 5.33301 59.5 16s26.5 27.667 26.5 51v16zM266 561.002
c-28.667 0 -52.665 5.5 -71.998 16.5s-34.833 24.667 -46.5 41s-20.334 33.833 -26.001 52.5s-9.5 35.667 -11.5 51h100c0 -6.66699 1.16699 -13.834 3.5 -21.501s5.83301 -15 10.5 -22s10.5 -12.833 17.5 -17.5s15.167 -7 24.5 -7s17.5 2.33301 24.5 7
s12.833 10.5 17.5 17.5s8.16699 14.333 10.5 22s3.5 14.834 3.5 21.501h100c-2 -15.333 -5.83301 -32.333 -11.5 -51s-14.334 -36.167 -26.001 -52.5s-27.167 -30 -46.5 -41s-43.333 -16.5 -72 -16.5z" />
    <glyph glyph-name="Aogonek" unicode="&#x104;" horiz-adv-x="660" 
d="M454 -104c0 14.667 3.16797 30.001 9.50098 46.001s17.166 35.667 32.499 59l-51 141h-233l-52 -142h-162l270 696h121l270 -696h-70c-15.333 -21.333 -26.5 -39 -33.5 -53s-10.5 -26 -10.5 -36c0 -18 10.667 -27 32 -27c6 0 14.333 1.16699 25 3.5
s23.667 6.16602 39 11.499l28 -70c-17.333 -9.33301 -35.333 -16.833 -54 -22.5s-36.667 -8.5 -54 -8.5c-32 0 -57.833 9.66699 -77.5 29s-29.5 42.333 -29.5 69zM371.001 352.001l-41 138h-4l-40 -136l-26 -82h137z" />
    <glyph glyph-name="aogonek" unicode="&#x105;" horiz-adv-x="516" 
d="M284 -104c0 14.667 3.00195 30.0029 9.00195 46.0029s17 35.667 33 59v45l-3 1c-8.66699 -10 -18.334 -18.333 -29.001 -25s-21.5 -12 -32.5 -16s-21.833 -6.83301 -32.5 -8.5s-20 -2.5 -28 -2.5c-24 0 -46.167 3 -66.5 9s-37.833 15.167 -52.5 27.5s-26.167 28 -34.5 47
s-12.5 41.833 -12.5 68.5c0 20.667 4 40.334 12 59.001s19.5 35 34.5 49s33.667 25 56 33s47.833 12 76.5 12h112v16c0 5.33301 -0.833008 11.5 -2.5 18.5s-5.33398 13.5 -11.001 19.5s-14 11.167 -25 15.5s-25.833 6.5 -44.5 6.5c-22.667 0 -43.667 -2.83301 -63 -8.5
s-37.333 -15.834 -54 -30.501l-69 97c30 27.333 62.167 45.166 96.5 53.499s69.166 12.5 104.499 12.5c28.667 0 55.834 -2.66699 81.501 -8s48 -14.5 67 -27.5s34 -30.333 45 -52s16.5 -48.834 16.5 -81.501v-331h-49c-15.333 -21.333 -26.5 -39 -33.5 -53
s-10.5 -26 -10.5 -36c0 -18 10.667 -27 32 -27c6 0 14.333 1.16699 25 3.5s23.667 6.16602 39 11.499l28 -70c-17.333 -9.33301 -35.333 -16.833 -54 -22.5s-36.667 -8.5 -54 -8.5c-32 0 -57.833 9.66699 -77.5 29s-29.5 42.333 -29.5 69zM326.002 196.003h-94.002
c-12.667 0 -23 -1.16699 -31 -3.5s-14.167 -5.33301 -18.5 -9s-7.16602 -7.66699 -8.49902 -12s-2 -8.5 -2 -12.5c0 -3.33301 0.833008 -7.5 2.5 -12.5s4.83398 -10 9.50098 -15s11.5 -9.33301 20.5 -13s20.833 -5.5 35.5 -5.5c22 0 41.833 5.33301 59.5 16
s26.5 27.667 26.5 51v16z" />
    <glyph glyph-name="Cacute" unicode="&#x106;" horiz-adv-x="600" 
d="M181 802l180 128l90 -107l-214 -90zM573 169c-17.333 -54.667 -48.5 -97.498 -93.5 -128.498s-100.167 -46.5 -165.5 -46.5c-45.333 0 -84.833 6.66699 -118.5 20s-61.667 32 -84 56s-39 52.667 -50 86s-16.5 70 -16.5 110v164c0 36 5.5 70.333 16.5 103
s27.667 61.5 50 86.5s50.333 44.833 84 59.5s73.167 22 118.5 22c66.667 0 122.167 -16.167 166.5 -48.5s75.166 -75.166 92.499 -128.499l-146 -52c-5.33301 24 -17.666 44.167 -36.999 60.5s-45 24.5 -77 24.5c-19.333 0 -36 -3.16699 -50 -9.5s-25.667 -14.833 -35 -25.5
s-16.333 -22.834 -21 -36.501s-7 -27.5 -7 -41.5v-189c0 -15.333 2.33301 -30 7 -44s11.667 -26.333 21 -37s21 -19.334 35 -26.001s30.667 -10 50 -10c31.333 0 56.833 8.16699 76.5 24.5s32.167 37.166 37.5 62.499z" />
    <glyph glyph-name="cacute" unicode="&#x107;" horiz-adv-x="463" 
d="M444 70c-27.333 -24.667 -56.832 -43.5039 -88.499 -56.5039s-64.5 -19.5 -98.5 -19.5c-30.667 0 -59.834 4.83301 -87.501 14.5s-52 24.834 -73 45.501s-37.667 47 -50 79s-18.5 70 -18.5 114c0 44.667 6.5 82.834 19.5 114.501s30.5 57.834 52.5 78.501
s47.333 35.834 76 45.501s58.334 14.5 89.001 14.5c34 0 65.333 -5.66699 94 -17s55.667 -29.666 81 -54.999l-92 -97c-15.333 14.667 -29.833 25.167 -43.5 31.5s-26.834 9.5 -39.501 9.5c-28.667 0 -50.5 -9.66699 -65.5 -29s-22.5 -51.333 -22.5 -96
c0 -44 6.66699 -75.5 20 -94.5s35 -28.5 65 -28.5c13.333 0 27.333 3.16699 42 9.5s30 17.166 46 32.499zM183.001 566.996l85 203l133 -43l-135 -190z" />
    <glyph glyph-name="Ccircumflex" unicode="&#x108;" horiz-adv-x="600" 
d="M573 169c-17.333 -54.667 -48.5 -97.498 -93.5 -128.498s-100.167 -46.5 -165.5 -46.5c-45.333 0 -84.833 6.66699 -118.5 20s-61.667 32 -84 56s-39 52.667 -50 86s-16.5 70 -16.5 110v164c0 36 5.5 70.333 16.5 103s27.667 61.5 50 86.5s50.333 44.833 84 59.5
s73.167 22 118.5 22c66.667 0 122.167 -16.167 166.5 -48.5s75.166 -75.166 92.499 -128.499l-146 -52c-5.33301 24 -17.666 44.167 -36.999 60.5s-45 24.5 -77 24.5c-19.333 0 -36 -3.16699 -50 -9.5s-25.667 -14.833 -35 -25.5s-16.333 -22.834 -21 -36.501
s-7 -27.5 -7 -41.5v-189c0 -15.333 2.33301 -30 7 -44s11.667 -26.333 21 -37s21 -19.334 35 -26.001s30.667 -10 50 -10c31.333 0 56.833 8.16699 76.5 24.5s32.167 37.166 37.5 62.499zM309 805.002l-150 -78l-48 58l149 120h98l151 -120l-51 -59z" />
    <glyph glyph-name="ccircumflex" unicode="&#x109;" horiz-adv-x="463" 
d="M444 70c-27.333 -24.667 -56.832 -43.5039 -88.499 -56.5039s-64.5 -19.5 -98.5 -19.5c-30.667 0 -59.834 4.83301 -87.501 14.5s-52 24.834 -73 45.501s-37.667 47 -50 79s-18.5 70 -18.5 114c0 44.667 6.5 82.834 19.5 114.501s30.5 57.834 52.5 78.501
s47.333 35.834 76 45.501s58.334 14.5 89.001 14.5c34 0 65.333 -5.66699 94 -17s55.667 -29.666 81 -54.999l-92 -97c-15.333 14.667 -29.833 25.167 -43.5 31.5s-26.834 9.5 -39.501 9.5c-28.667 0 -50.5 -9.66699 -65.5 -29s-22.5 -51.333 -22.5 -96
c0 -44 6.66699 -75.5 20 -94.5s35 -28.5 65 -28.5c13.333 0 27.333 3.16699 42 9.5s30 17.166 46 32.499zM254.001 624.996l-72.5 -52l-72.5 -51l-53 48l147 155h103l148 -155l-56 -49z" />
    <glyph glyph-name="Cdotaccent" unicode="&#x10a;" horiz-adv-x="600" 
d="M573 169c-17.333 -54.667 -48.5 -97.498 -93.5 -128.498s-100.167 -46.5 -165.5 -46.5c-45.333 0 -84.833 6.66699 -118.5 20s-61.667 32 -84 56s-39 52.667 -50 86s-16.5 70 -16.5 110v164c0 36 5.5 70.333 16.5 103s27.667 61.5 50 86.5s50.333 44.833 84 59.5
s73.167 22 118.5 22c66.667 0 122.167 -16.167 166.5 -48.5s75.166 -75.166 92.499 -128.499l-146 -52c-5.33301 24 -17.666 44.167 -36.999 60.5s-45 24.5 -77 24.5c-19.333 0 -36 -3.16699 -50 -9.5s-25.667 -14.833 -35 -25.5s-16.333 -22.834 -21 -36.501
s-7 -27.5 -7 -41.5v-189c0 -15.333 2.33301 -30 7 -44s11.667 -26.333 21 -37s21 -19.334 35 -26.001s30.667 -10 50 -10c31.333 0 56.833 8.16699 76.5 24.5s32.167 37.166 37.5 62.499zM249 749.002v130h148v-130h-148z" />
    <glyph glyph-name="cdotaccent" unicode="&#x10b;" horiz-adv-x="463" 
d="M444 70c-27.333 -24.667 -56.832 -43.5039 -88.499 -56.5039s-64.5 -19.5 -98.5 -19.5c-30.667 0 -59.834 4.83301 -87.501 14.5s-52 24.834 -73 45.501s-37.667 47 -50 79s-18.5 70 -18.5 114c0 44.667 6.5 82.834 19.5 114.501s30.5 57.834 52.5 78.501
s47.333 35.834 76 45.501s58.334 14.5 89.001 14.5c34 0 65.333 -5.66699 94 -17s55.667 -29.666 81 -54.999l-92 -97c-15.333 14.667 -29.833 25.167 -43.5 31.5s-26.834 9.5 -39.501 9.5c-28.667 0 -50.5 -9.66699 -65.5 -29s-22.5 -51.333 -22.5 -96
c0 -44 6.66699 -75.5 20 -94.5s35 -28.5 65 -28.5c13.333 0 27.333 3.16699 42 9.5s30 17.166 46 32.499zM178.001 568.996v130h148v-130h-148z" />
    <glyph glyph-name="Ccaron" unicode="&#x10c;" horiz-adv-x="600" 
d="M573 169c-17.333 -54.667 -48.5 -97.498 -93.5 -128.498s-100.167 -46.5 -165.5 -46.5c-45.333 0 -84.833 6.66699 -118.5 20s-61.667 32 -84 56s-39 52.667 -50 86s-16.5 70 -16.5 110v164c0 36 5.5 70.333 16.5 103s27.667 61.5 50 86.5s50.333 44.833 84 59.5
s73.167 22 118.5 22c66.667 0 122.167 -16.167 166.5 -48.5s75.166 -75.166 92.499 -128.499l-146 -52c-5.33301 24 -17.666 44.167 -36.999 60.5s-45 24.5 -77 24.5c-19.333 0 -36 -3.16699 -50 -9.5s-25.667 -14.833 -35 -25.5s-16.333 -22.834 -21 -36.501
s-7 -27.5 -7 -41.5v-189c0 -15.333 2.33301 -30 7 -44s11.667 -26.333 21 -37s21 -19.334 35 -26.001s30.667 -10 50 -10c31.333 0 56.833 8.16699 76.5 24.5s32.167 37.166 37.5 62.499zM459 908.002l51 -59l-151 -120h-98l-149 120l48 58l150 -78z" />
    <glyph glyph-name="ccaron" unicode="&#x10d;" horiz-adv-x="463" 
d="M444 70c-27.333 -24.667 -56.832 -43.5039 -88.499 -56.5039s-64.5 -19.5 -98.5 -19.5c-30.667 0 -59.834 4.83301 -87.501 14.5s-52 24.834 -73 45.501s-37.667 47 -50 79s-18.5 70 -18.5 114c0 44.667 6.5 82.834 19.5 114.501s30.5 57.834 52.5 78.501
s47.333 35.834 76 45.501s58.334 14.5 89.001 14.5c34 0 65.333 -5.66699 94 -17s55.667 -29.666 81 -54.999l-92 -97c-15.333 14.667 -29.833 25.167 -43.5 31.5s-26.834 9.5 -39.501 9.5c-28.667 0 -50.5 -9.66699 -65.5 -29s-22.5 -51.333 -22.5 -96
c0 -44 6.66699 -75.5 20 -94.5s35 -28.5 65 -28.5c13.333 0 27.333 3.16699 42 9.5s30 17.166 46 32.499zM398.001 724.996l56 -49l-148 -155h-103l-147 155l53 48l72.5 -51l72.5 -52z" />
    <glyph glyph-name="Dcaron" unicode="&#x10e;" horiz-adv-x="657" 
d="M224 138h101c26 0 47.5 3.5 64.5 10.5s30.5 17 40.5 30s17.167 28.667 21.5 47s6.5 38.833 6.5 61.5v127c0 48 -10.5 83.833 -31.5 107.5s-55.833 35.5 -104.5 35.5h-98v-419zM347 696c52 0 98.999 -9.99805 140.999 -29.998s74 -53 96 -99
c12.667 -25.333 20.334 -55.333 23.001 -90s4 -73.667 4 -117c0 -48.667 -1.33301 -91 -4 -127s-9.66699 -67.667 -21 -95c-11.333 -26 -25.833 -47.833 -43.5 -65.5s-37.5 -31.834 -59.5 -42.501s-46 -18.334 -72 -23.001s-53 -7 -81 -7h-260v696h277zM473.999 908.002
l51 -59l-151 -120h-98l-149 120l48 58l150 -78z" />
    <glyph glyph-name="dcaron" unicode="&#x10f;" horiz-adv-x="704" 
d="M542 469l35 108h-33v151h154v-143l-89 -116h-67zM340 0l-0.000976562 39.001l-2 2c-14.667 -15.333 -32 -26.833 -52 -34.5s-39 -11.5 -57 -11.5c-42.667 0 -76 8.66699 -100 26s-42 39.166 -54 65.499s-19.333 54.833 -22 85.5s-4 59.334 -4 86.001
c0 24.667 2.66699 51.167 8 79.5s14.833 54.666 28.5 78.999s32.334 44.5 56.001 60.5s54.167 24 91.5 24c19.333 0 38.333 -3.83301 57 -11.5s34.667 -19.167 48 -34.5l2 1v270h143v-726h-143zM339.999 248.001c0 12.667 -0.668945 26 -2.00195 40s-4.33301 27 -9 39
s-11.667 21.833 -21 29.5s-22.333 11.5 -39 11.5c-18 0 -32 -4.33301 -42 -13s-17.333 -19.667 -22 -33s-7.5 -27.833 -8.5 -43.5s-1.5 -30.167 -1.5 -43.5c0 -12 0.833008 -24.5 2.5 -37.5s5 -24.667 10 -35s12.333 -18.833 22 -25.5s22.5 -10 38.5 -10
c16.667 0 29.834 4 39.501 12s16.834 18.167 21.501 30.5s7.66699 25.5 9 39.5s2 27 2 39z" />
    <glyph glyph-name="Dcroat" unicode="&#x110;" horiz-adv-x="657" 
d="M6 407l63.999 0.00195312v289h277c52 0 99 -10 141 -30s74 -53 96 -99c12.667 -25.333 20.334 -55.333 23.001 -90s4 -73.667 4 -117c0 -48.667 -1.33301 -91 -4 -127s-9.66699 -67.667 -21 -95c-11.333 -26 -25.833 -47.833 -43.5 -65.5s-37.5 -31.834 -59.5 -42.501
s-46 -18.334 -72 -23.001s-53 -7 -81 -7h-260v300h-64v107zM223.999 407.002h109v-107h-109v-162h101c26 0 47.5 3.5 64.5 10.5s30.5 17 40.5 30s17.167 28.667 21.5 47s6.5 38.833 6.5 61.5v127c0 48 -10.5 83.833 -31.5 107.5s-55.833 35.5 -104.5 35.5h-98v-150z" />
    <glyph glyph-name="dcroat" unicode="&#x111;" horiz-adv-x="533" 
d="M226 631l113.999 0.000976562v95h143v-95h50v-87h-50v-544h-143v39l-2 2c-14.667 -15.333 -32 -26.833 -52 -34.5s-39 -11.5 -57 -11.5c-42.667 0 -76 8.66699 -100 26s-42 39.166 -54 65.499s-19.333 54.833 -22 85.5s-4 59.334 -4 86.001
c0 24.667 2.66699 51.167 8 79.5s14.833 54.666 28.5 78.999s32.334 44.5 56.001 60.5s54.167 24 91.5 24c19.333 0 38.333 -3.83301 57 -11.5s34.667 -19.167 48 -34.5l2 1v88h-114v87zM339.999 248.001c0 12.667 -0.668945 26 -2.00195 40s-4.33301 27 -9 39
s-11.667 21.833 -21 29.5s-22.333 11.5 -39 11.5c-18 0 -32 -4.33301 -42 -13s-17.333 -19.667 -22 -33s-7.5 -27.833 -8.5 -43.5s-1.5 -30.167 -1.5 -43.5c0 -12 0.833008 -24.5 2.5 -37.5s5 -24.667 10 -35s12.333 -18.833 22 -25.5s22.5 -10 38.5 -10
c16.667 0 29.834 4 39.501 12s16.834 18.167 21.501 30.5s7.66699 25.5 9 39.5s2 27 2 39z" />
    <glyph glyph-name="Emacron" unicode="&#x112;" horiz-adv-x="585" 
d="M70 0v696h492v-138h-338v-141h288v-133h-288v-146h338v-138h-492zM143 758v118h333v-118h-333z" />
    <glyph glyph-name="emacron" unicode="&#x113;" horiz-adv-x="533" 
d="M183 210c3.33301 -32 11.9971 -54.502 25.9971 -67.502s33 -19.5 57 -19.5c12.667 0 29.334 3 50.001 9s41.334 18.333 62.001 37l88 -98c-32 -29.333 -66 -49.5 -102 -60.5s-70 -16.5 -102 -16.5c-27.333 0 -54.5 3.83301 -81.5 11.5s-51.333 21 -73 40
s-39.167 44.667 -52.5 77s-20 73.5 -20 123.5c0 46.667 6.5 86.167 19.5 118.5s30.167 58.5 51.5 78.5s45.5 34.5 72.5 43.5s54.5 13.5 82.5 13.5c39.333 0 73.333 -6.33301 102 -19s52.334 -30.167 71.001 -52.5s32.5 -49.166 41.5 -80.499s13.5 -65.666 13.5 -102.999v-35
h-306zM334.997 301.998c-2.66699 22.667 -11 40.167 -25 52.5s-30 18.5 -48 18.5s-34 -6.33301 -48 -19s-22.667 -30 -26 -52h147zM101.997 577.998v118h333v-118h-333z" />
    <glyph glyph-name="Ebreve" unicode="&#x114;" horiz-adv-x="585" 
d="M70 0v696h492v-138h-338v-141h288v-133h-288v-146h338v-138h-492zM318 731c-28.667 0 -52.665 5.5 -71.998 16.5s-34.833 24.667 -46.5 41s-20.334 33.833 -26.001 52.5s-9.5 35.667 -11.5 51h100c0 -6.66699 1.16699 -13.834 3.5 -21.501s5.83301 -15 10.5 -22
s10.5 -12.833 17.5 -17.5s15.167 -7 24.5 -7s17.5 2.33301 24.5 7s12.833 10.5 17.5 17.5s8.16699 14.333 10.5 22s3.5 14.834 3.5 21.501h100c-2 -15.333 -5.83301 -32.333 -11.5 -51s-14.334 -36.167 -26.001 -52.5s-27.167 -30 -46.5 -41s-43.333 -16.5 -72 -16.5z" />
    <glyph glyph-name="ebreve" unicode="&#x115;" horiz-adv-x="533" 
d="M183 210c3.33301 -32 11.9971 -54.502 25.9971 -67.502s33 -19.5 57 -19.5c12.667 0 29.334 3 50.001 9s41.334 18.333 62.001 37l88 -98c-32 -29.333 -66 -49.5 -102 -60.5s-70 -16.5 -102 -16.5c-27.333 0 -54.5 3.83301 -81.5 11.5s-51.333 21 -73 40
s-39.167 44.667 -52.5 77s-20 73.5 -20 123.5c0 46.667 6.5 86.167 19.5 118.5s30.167 58.5 51.5 78.5s45.5 34.5 72.5 43.5s54.5 13.5 82.5 13.5c39.333 0 73.333 -6.33301 102 -19s52.334 -30.167 71.001 -52.5s32.5 -49.166 41.5 -80.499s13.5 -65.666 13.5 -102.999v-35
h-306zM334.997 301.998c-2.66699 22.667 -11 40.167 -25 52.5s-30 18.5 -48 18.5s-34 -6.33301 -48 -19s-22.667 -30 -26 -52h147zM265.997 560.998c-28.667 0 -52.665 5.5 -71.998 16.5s-34.833 24.667 -46.5 41s-20.334 33.833 -26.001 52.5s-9.5 35.667 -11.5 51h100
c0 -6.66699 1.16699 -13.834 3.5 -21.501s5.83301 -15 10.5 -22s10.5 -12.833 17.5 -17.5s15.167 -7 24.5 -7s17.5 2.33301 24.5 7s12.833 10.5 17.5 17.5s8.16699 14.333 10.5 22s3.5 14.834 3.5 21.501h100c-2 -15.333 -5.83301 -32.333 -11.5 -51
s-14.334 -36.167 -26.001 -52.5s-27.167 -30 -46.5 -41s-43.333 -16.5 -72 -16.5z" />
    <glyph glyph-name="Edotaccent" unicode="&#x116;" horiz-adv-x="585" 
d="M70 0v696h492v-138h-338v-141h288v-133h-288v-146h338v-138h-492zM244 749v130h148v-130h-148z" />
    <glyph glyph-name="edotaccent" unicode="&#x117;" horiz-adv-x="533" 
d="M183 210c3.33301 -32 11.9971 -54.502 25.9971 -67.502s33 -19.5 57 -19.5c12.667 0 29.334 3 50.001 9s41.334 18.333 62.001 37l88 -98c-32 -29.333 -66 -49.5 -102 -60.5s-70 -16.5 -102 -16.5c-27.333 0 -54.5 3.83301 -81.5 11.5s-51.333 21 -73 40
s-39.167 44.667 -52.5 77s-20 73.5 -20 123.5c0 46.667 6.5 86.167 19.5 118.5s30.167 58.5 51.5 78.5s45.5 34.5 72.5 43.5s54.5 13.5 82.5 13.5c39.333 0 73.333 -6.33301 102 -19s52.334 -30.167 71.001 -52.5s32.5 -49.166 41.5 -80.499s13.5 -65.666 13.5 -102.999v-35
h-306zM334.997 301.998c-2.66699 22.667 -11 40.167 -25 52.5s-30 18.5 -48 18.5s-34 -6.33301 -48 -19s-22.667 -30 -26 -52h147zM196.997 568.998v130h148v-130h-148z" />
    <glyph glyph-name="Eogonek" unicode="&#x118;" horiz-adv-x="585" 
d="M427 -104c0 14 3 29.168 9 45.501s16.667 35.833 32 58.5h-398v696h492v-138h-338v-141h288v-133h-288v-146h338v-138c-15.333 -21.333 -26.5 -39 -33.5 -53s-10.5 -26 -10.5 -36c0 -18 10.667 -27 32 -27c6 0 14.333 1.16699 25 3.5s23.667 6.16602 39 11.499l28 -70
c-17.333 -9.33301 -35.333 -16.833 -54 -22.5s-36.667 -8.5 -54 -8.5c-32 0 -57.833 9.66699 -77.5 29s-29.5 42.333 -29.5 69z" />
    <glyph glyph-name="eogonek" unicode="&#x119;" horiz-adv-x="533" 
d="M280 -70c0 10 1.32715 20.165 3.99414 30.498s7.33398 22.166 14.001 35.499c-6 -0.666992 -12.167 -1.16699 -18.5 -1.5s-12.166 -0.5 -17.499 -0.5c-27.333 0 -54.5 3.83301 -81.5 11.5s-51.333 21 -73 40s-39.167 44.667 -52.5 77s-20 73.5 -20 123.5
c0 46.667 6.5 86.167 19.5 118.5s30.167 58.5 51.5 78.5s45.5 34.5 72.5 43.5s54.5 13.5 82.5 13.5c39.333 0 73.333 -6.33301 102 -19s52.334 -30.167 71.001 -52.5s32.5 -49.166 41.5 -80.499s13.5 -65.666 13.5 -102.999v-35h-306c3.33301 -32 12 -54.5 26 -67.5
s33 -19.5 57 -19.5c12.667 0 29.334 3 50.001 9s41.334 18.333 62.001 37l88 -98c-8.66699 -7.33301 -17.167 -14.166 -25.5 -20.499s-17.166 -12.166 -26.499 -17.499c-15.333 -20.667 -26.333 -38 -33 -52s-10 -26 -10 -36c0 -18 10.667 -27 32 -27
c6 0 14.333 1.16699 25 3.5s23.667 6.16602 39 11.499l28 -70c-17.333 -9.33301 -35.333 -16.833 -54 -22.5s-36.667 -8.5 -54 -8.5c-32 0 -57.833 9.66699 -77.5 29s-29.5 42.333 -29.5 69zM334.994 301.998c-2.66699 22.667 -11 40.167 -25 52.5s-30 18.5 -48 18.5
s-34 -6.33301 -48 -19s-22.667 -30 -26 -52h147z" />
    <glyph glyph-name="Ecaron" unicode="&#x11a;" horiz-adv-x="585" 
d="M70 0v696h492v-138h-338v-141h288v-133h-288v-146h338v-138h-492zM462 908l51 -59l-151 -120h-98l-149 120l48 58l150 -78z" />
    <glyph glyph-name="ecaron" unicode="&#x11b;" horiz-adv-x="533" 
d="M183 210c3.33301 -32 11.9971 -54.502 25.9971 -67.502s33 -19.5 57 -19.5c12.667 0 29.334 3 50.001 9s41.334 18.333 62.001 37l88 -98c-32 -29.333 -66 -49.5 -102 -60.5s-70 -16.5 -102 -16.5c-27.333 0 -54.5 3.83301 -81.5 11.5s-51.333 21 -73 40
s-39.167 44.667 -52.5 77s-20 73.5 -20 123.5c0 46.667 6.5 86.167 19.5 118.5s30.167 58.5 51.5 78.5s45.5 34.5 72.5 43.5s54.5 13.5 82.5 13.5c39.333 0 73.333 -6.33301 102 -19s52.334 -30.167 71.001 -52.5s32.5 -49.166 41.5 -80.499s13.5 -65.666 13.5 -102.999v-35
h-306zM334.997 301.998c-2.66699 22.667 -11 40.167 -25 52.5s-30 18.5 -48 18.5s-34 -6.33301 -48 -19s-22.667 -30 -26 -52h147zM409.997 724.998l56 -49l-148 -155h-103l-147 155l53 48l72.5 -51l72.5 -52z" />
    <glyph glyph-name="Gcircumflex" unicode="&#x11c;" horiz-adv-x="637" 
d="M318 701c66.667 0 122.169 -16.166 166.502 -48.499s75.166 -75.166 92.499 -128.499l-146 -52c-5.33301 24 -17.666 44.167 -36.999 60.5s-45 24.5 -77 24.5c-19.333 0 -36 -3.16699 -50 -9.5s-25.667 -14.833 -35 -25.5s-16.333 -22.834 -21 -36.501s-7 -27.5 -7 -41.5
v-189c0 -15.333 2.33301 -30 7 -44s11.667 -26.5 21 -37.5s21.166 -19.833 35.499 -26.5s31.166 -10 50.499 -10c16.667 0 32.167 3.16699 46.5 9.5s27 14.833 38 25.5s19.667 23 26 37s9.5 29 9.5 45v5h-142v128h294v-139c0 -36.667 -7.16699 -70.5 -21.5 -101.5
s-33.833 -57.833 -58.5 -80.5s-53.5 -40.334 -86.5 -53.001s-68.167 -19 -105.5 -19c-45.333 0 -84.833 6.66699 -118.5 20s-61.667 32 -84 56s-39 52.667 -50 86s-16.5 70 -16.5 110v164c0 36 5.5 70.333 16.5 103s27.667 61.5 50 86.5s50.333 44.833 84 59.5
s73.167 22 118.5 22zM309.002 805.001l-150 -78l-48 58l149 120h98l151 -120l-51 -59z" />
    <glyph glyph-name="gcircumflex" unicode="&#x11d;" horiz-adv-x="533" 
d="M474 13c0 -39.333 -6.5 -72.999 -19.5 -100.999s-30.167 -50.833 -51.5 -68.5s-46 -30.5 -74 -38.5s-57 -12 -87 -12s-60.667 4.33301 -92 13s-62 25.667 -92 51l70 99c20 -13.333 40.5 -22.5 61.5 -27.5s38.167 -7.5 51.5 -7.5c24.667 0 46 6.83301 64 20.5
s27 33.5 27 59.5v39l-2 1c-6 -7.33301 -13.167 -13.833 -21.5 -19.5s-17.166 -10.5 -26.499 -14.5s-18.833 -7.16699 -28.5 -9.5s-18.5 -3.5 -26.5 -3.5c-41.333 0 -74.333 7.83301 -99 23.5s-43.5 35.5 -56.5 59.5s-21.5 50.167 -25.5 78.5s-6 55.166 -6 80.499
c0 26.667 1.83301 55.334 5.5 86.001s12 59.167 25 85.5s31.667 48.166 56 65.499s57.5 26 99.5 26c18.667 0 36.667 -2.66699 54 -8s33.666 -16 48.999 -32l2 1v35h143v-482zM331 246.001c0 12 -0.498047 25.001 -1.49805 39.001s-3.83301 27.167 -8.5 39.5
s-11.834 22.5 -21.501 30.5s-22.834 12 -39.501 12c-17.333 0 -31 -3.83301 -41 -11.5s-17.5 -17.5 -22.5 -29.5s-8 -25.167 -9 -39.5s-1.5 -27.833 -1.5 -40.5c0 -13.333 0.666992 -27 2 -41s4.5 -26.833 9.5 -38.5s12.333 -21.334 22 -29.001s23.167 -11.5 40.5 -11.5
c16.667 0 29.667 3.83301 39 11.5s16.333 17.5 21 29.5s7.66699 25 9 39s2 27.333 2 40zM264.002 625.002l-72.5 -52l-72.5 -51l-53 48l147 155h103l148 -155l-56 -49z" />
    <glyph glyph-name="Gbreve" unicode="&#x11e;" horiz-adv-x="637" 
d="M318 701c66.667 0 122.169 -16.166 166.502 -48.499s75.166 -75.166 92.499 -128.499l-146 -52c-5.33301 24 -17.666 44.167 -36.999 60.5s-45 24.5 -77 24.5c-19.333 0 -36 -3.16699 -50 -9.5s-25.667 -14.833 -35 -25.5s-16.333 -22.834 -21 -36.501s-7 -27.5 -7 -41.5
v-189c0 -15.333 2.33301 -30 7 -44s11.667 -26.5 21 -37.5s21.166 -19.833 35.499 -26.5s31.166 -10 50.499 -10c16.667 0 32.167 3.16699 46.5 9.5s27 14.833 38 25.5s19.667 23 26 37s9.5 29 9.5 45v5h-142v128h294v-139c0 -36.667 -7.16699 -70.5 -21.5 -101.5
s-33.833 -57.833 -58.5 -80.5s-53.5 -40.334 -86.5 -53.001s-68.167 -19 -105.5 -19c-45.333 0 -84.833 6.66699 -118.5 20s-61.667 32 -84 56s-39 52.667 -50 86s-16.5 70 -16.5 110v164c0 36 5.5 70.333 16.5 103s27.667 61.5 50 86.5s50.333 44.833 84 59.5
s73.167 22 118.5 22zM316.002 731.001c-28.667 0 -52.665 5.5 -71.998 16.5s-34.833 24.667 -46.5 41s-20.334 33.833 -26.001 52.5s-9.5 35.667 -11.5 51h100c0 -6.66699 1.16699 -13.834 3.5 -21.501s5.83301 -15 10.5 -22s10.5 -12.833 17.5 -17.5s15.167 -7 24.5 -7
s17.5 2.33301 24.5 7s12.833 10.5 17.5 17.5s8.16699 14.333 10.5 22s3.5 14.834 3.5 21.501h100c-2 -15.333 -5.83301 -32.333 -11.5 -51s-14.334 -36.167 -26.001 -52.5s-27.167 -30 -46.5 -41s-43.333 -16.5 -72 -16.5z" />
    <glyph glyph-name="gbreve" unicode="&#x11f;" horiz-adv-x="533" 
d="M474 13c0 -39.333 -6.5 -72.999 -19.5 -100.999s-30.167 -50.833 -51.5 -68.5s-46 -30.5 -74 -38.5s-57 -12 -87 -12s-60.667 4.33301 -92 13s-62 25.667 -92 51l70 99c20 -13.333 40.5 -22.5 61.5 -27.5s38.167 -7.5 51.5 -7.5c24.667 0 46 6.83301 64 20.5
s27 33.5 27 59.5v39l-2 1c-6 -7.33301 -13.167 -13.833 -21.5 -19.5s-17.166 -10.5 -26.499 -14.5s-18.833 -7.16699 -28.5 -9.5s-18.5 -3.5 -26.5 -3.5c-41.333 0 -74.333 7.83301 -99 23.5s-43.5 35.5 -56.5 59.5s-21.5 50.167 -25.5 78.5s-6 55.166 -6 80.499
c0 26.667 1.83301 55.334 5.5 86.001s12 59.167 25 85.5s31.667 48.166 56 65.499s57.5 26 99.5 26c18.667 0 36.667 -2.66699 54 -8s33.666 -16 48.999 -32l2 1v35h143v-482zM331 246.001c0 12 -0.498047 25.001 -1.49805 39.001s-3.83301 27.167 -8.5 39.5
s-11.834 22.5 -21.501 30.5s-22.834 12 -39.501 12c-17.333 0 -31 -3.83301 -41 -11.5s-17.5 -17.5 -22.5 -29.5s-8 -25.167 -9 -39.5s-1.5 -27.833 -1.5 -40.5c0 -13.333 0.666992 -27 2 -41s4.5 -26.833 9.5 -38.5s12.333 -21.334 22 -29.001s23.167 -11.5 40.5 -11.5
c16.667 0 29.667 3.83301 39 11.5s16.333 17.5 21 29.5s7.66699 25 9 39s2 27.333 2 40zM266.002 561.002c-28.667 0 -52.665 5.5 -71.998 16.5s-34.833 24.667 -46.5 41s-20.334 33.833 -26.001 52.5s-9.5 35.667 -11.5 51h100c0 -6.66699 1.16699 -13.834 3.5 -21.501
s5.83301 -15 10.5 -22s10.5 -12.833 17.5 -17.5s15.167 -7 24.5 -7s17.5 2.33301 24.5 7s12.833 10.5 17.5 17.5s8.16699 14.333 10.5 22s3.5 14.834 3.5 21.501h100c-2 -15.333 -5.83301 -32.333 -11.5 -51s-14.334 -36.167 -26.001 -52.5s-27.167 -30 -46.5 -41
s-43.333 -16.5 -72 -16.5z" />
    <glyph glyph-name="Gdotaccent" unicode="&#x120;" horiz-adv-x="637" 
d="M318 701c66.667 0 122.169 -16.166 166.502 -48.499s75.166 -75.166 92.499 -128.499l-146 -52c-5.33301 24 -17.666 44.167 -36.999 60.5s-45 24.5 -77 24.5c-19.333 0 -36 -3.16699 -50 -9.5s-25.667 -14.833 -35 -25.5s-16.333 -22.834 -21 -36.501s-7 -27.5 -7 -41.5
v-189c0 -15.333 2.33301 -30 7 -44s11.667 -26.5 21 -37.5s21.166 -19.833 35.499 -26.5s31.166 -10 50.499 -10c16.667 0 32.167 3.16699 46.5 9.5s27 14.833 38 25.5s19.667 23 26 37s9.5 29 9.5 45v5h-142v128h294v-139c0 -36.667 -7.16699 -70.5 -21.5 -101.5
s-33.833 -57.833 -58.5 -80.5s-53.5 -40.334 -86.5 -53.001s-68.167 -19 -105.5 -19c-45.333 0 -84.833 6.66699 -118.5 20s-61.667 32 -84 56s-39 52.667 -50 86s-16.5 70 -16.5 110v164c0 36 5.5 70.333 16.5 103s27.667 61.5 50 86.5s50.333 44.833 84 59.5
s73.167 22 118.5 22zM242.002 749.001v130h148v-130h-148z" />
    <glyph glyph-name="gdotaccent" unicode="&#x121;" horiz-adv-x="533" 
d="M474 13c0 -39.333 -6.5 -72.999 -19.5 -100.999s-30.167 -50.833 -51.5 -68.5s-46 -30.5 -74 -38.5s-57 -12 -87 -12s-60.667 4.33301 -92 13s-62 25.667 -92 51l70 99c20 -13.333 40.5 -22.5 61.5 -27.5s38.167 -7.5 51.5 -7.5c24.667 0 46 6.83301 64 20.5
s27 33.5 27 59.5v39l-2 1c-6 -7.33301 -13.167 -13.833 -21.5 -19.5s-17.166 -10.5 -26.499 -14.5s-18.833 -7.16699 -28.5 -9.5s-18.5 -3.5 -26.5 -3.5c-41.333 0 -74.333 7.83301 -99 23.5s-43.5 35.5 -56.5 59.5s-21.5 50.167 -25.5 78.5s-6 55.166 -6 80.499
c0 26.667 1.83301 55.334 5.5 86.001s12 59.167 25 85.5s31.667 48.166 56 65.499s57.5 26 99.5 26c18.667 0 36.667 -2.66699 54 -8s33.666 -16 48.999 -32l2 1v35h143v-482zM331 246.001c0 12 -0.498047 25.001 -1.49805 39.001s-3.83301 27.167 -8.5 39.5
s-11.834 22.5 -21.501 30.5s-22.834 12 -39.501 12c-17.333 0 -31 -3.83301 -41 -11.5s-17.5 -17.5 -22.5 -29.5s-8 -25.167 -9 -39.5s-1.5 -27.833 -1.5 -40.5c0 -13.333 0.666992 -27 2 -41s4.5 -26.833 9.5 -38.5s12.333 -21.334 22 -29.001s23.167 -11.5 40.5 -11.5
c16.667 0 29.667 3.83301 39 11.5s16.333 17.5 21 29.5s7.66699 25 9 39s2 27.333 2 40zM213.002 569.002v130h148v-130h-148z" />
    <glyph glyph-name="Gcommaaccent" unicode="&#x122;" horiz-adv-x="637" 
d="M318 701c66.667 0 122.169 -16.166 166.502 -48.499s75.166 -75.166 92.499 -128.499l-146 -52c-5.33301 24 -17.666 44.167 -36.999 60.5s-45 24.5 -77 24.5c-19.333 0 -36 -3.16699 -50 -9.5s-25.667 -14.833 -35 -25.5s-16.333 -22.834 -21 -36.501s-7 -27.5 -7 -41.5
v-189c0 -15.333 2.33301 -30 7 -44s11.667 -26.5 21 -37.5s21.166 -19.833 35.499 -26.5s31.166 -10 50.499 -10c16.667 0 32.167 3.16699 46.5 9.5s27 14.833 38 25.5s19.667 23 26 37s9.5 29 9.5 45v5h-142v128h294v-139c0 -36.667 -7.16699 -70.5 -21.5 -101.5
s-33.833 -57.833 -58.5 -80.5s-53.5 -40.334 -86.5 -53.001s-68.167 -19 -105.5 -19c-45.333 0 -84.833 6.66699 -118.5 20s-61.667 32 -84 56s-39 52.667 -50 86s-16.5 70 -16.5 110v164c0 36 5.5 70.333 16.5 103s27.667 61.5 50 86.5s50.333 44.833 84 59.5
s73.167 22 118.5 22zM221.002 -312.999l35 108h-33v151h154v-143l-89 -116h-67z" />
    <glyph glyph-name="gcommaaccent" unicode="&#x123;" horiz-adv-x="533" 
d="M359 857l-35 -108h33v-151h-154v143l89 116h67zM474 13c0 -39.333 -6.5 -72.999 -19.5 -100.999s-30.167 -50.833 -51.5 -68.5s-46 -30.5 -74 -38.5s-57 -12 -87 -12s-60.667 4.33301 -92 13s-62 25.667 -92 51l70 99c20 -13.333 40.5 -22.5 61.5 -27.5
s38.167 -7.5 51.5 -7.5c24.667 0 46 6.83301 64 20.5s27 33.5 27 59.5v39l-2 1c-6 -7.33301 -13.167 -13.833 -21.5 -19.5s-17.166 -10.5 -26.499 -14.5s-18.833 -7.16699 -28.5 -9.5s-18.5 -3.5 -26.5 -3.5c-41.333 0 -74.333 7.83301 -99 23.5s-43.5 35.5 -56.5 59.5
s-21.5 50.167 -25.5 78.5s-6 55.166 -6 80.499c0 26.667 1.83301 55.334 5.5 86.001s12 59.167 25 85.5s31.667 48.166 56 65.499s57.5 26 99.5 26c18.667 0 36.667 -2.66699 54 -8s33.666 -16 48.999 -32l2 1v35h143v-482zM331 246.001
c0 12 -0.498047 25.001 -1.49805 39.001s-3.83301 27.167 -8.5 39.5s-11.834 22.5 -21.501 30.5s-22.834 12 -39.501 12c-17.333 0 -31 -3.83301 -41 -11.5s-17.5 -17.5 -22.5 -29.5s-8 -25.167 -9 -39.5s-1.5 -27.833 -1.5 -40.5c0 -13.333 0.666992 -27 2 -41
s4.5 -26.833 9.5 -38.5s12.333 -21.334 22 -29.001s23.167 -11.5 40.5 -11.5c16.667 0 29.667 3.83301 39 11.5s16.333 17.5 21 29.5s7.66699 25 9 39s2 27.333 2 40z" />
    <glyph glyph-name="Hcircumflex" unicode="&#x124;" horiz-adv-x="674" 
d="M452 0v284h-228v-284h-154v696h154v-279h228v279h152v-696h-152zM345 805l-150 -78l-48 58l149 120h98l151 -120l-51 -59z" />
    <glyph glyph-name="hcircumflex" unicode="&#x125;" horiz-adv-x="551" 
d="M348 0l0.00195312 292c0 25.333 -6.66699 44.333 -20 57s-30 19 -50 19c-21.333 0 -39.166 -6.33301 -53.499 -19s-21.5 -31.667 -21.5 -57v-292h-143v726h143v-266l4 -1c6.66699 6 14.667 11.5 24 16.5s19.166 9.33301 29.499 13s20.833 6.5 31.5 8.5s20.667 3 30 3
c23.333 0 45.166 -3.83301 65.499 -11.5s38.166 -19 53.499 -34s27.333 -33.667 36 -56s13 -47.833 13 -76.5v-322h-142zM128.002 805l-150 -78l-48 58l149 120h98l151 -120l-51 -59z" />
    <glyph glyph-name="Hbar" unicode="&#x126;" horiz-adv-x="674" 
d="M452 0v284h-228v-284h-154v502h-49v93h49v101h154v-101h228v101h152v-101h50v-93h-50v-502h-152zM452 417v85h-228v-85h228z" />
    <glyph glyph-name="hbar" unicode="&#x127;" horiz-adv-x="581" 
d="M378 0l0.000976562 277c0 25.333 -6.66699 44.333 -20 57s-30 19 -50 19c-23.333 0 -41.666 -7.83301 -54.999 -23.5s-20 -36.167 -20 -61.5v-268h-143v550h-75v93h75v83h143v-83h182v-93h-182v-105l4 -1c13.333 11.333 31.666 21 54.999 29s46.666 12 69.999 12
c46.667 0 84.667 -15 114 -45s44 -74.333 44 -133v-307h-142z" />
    <glyph glyph-name="Itilde" unicode="&#x128;" horiz-adv-x="294" 
d="M73 0v696h154v-696h-154zM73 881c12.667 0 25.335 -2.66602 38.002 -7.99902s24.667 -11 36 -17l32 -16.5c10 -5 19 -7.5 27 -7.5c11.333 0 22 3.66699 32 11s21.667 19.666 35 36.999l68 -40c-17.333 -38.667 -36 -66.5 -56 -83.5s-41.667 -25.5 -65 -25.5
c-13.333 0 -26.5 2.5 -39.5 7.5s-25.333 10.333 -37 16l-33.5 16c-10.667 5 -20.667 7.5 -30 7.5c-11.333 0 -22.833 -3.5 -34.5 -10.5s-24.834 -20.167 -39.501 -39.5l-65 41c17.333 36 36.166 63.667 56.499 83s45.5 29 75.5 29z" />
    <glyph glyph-name="itilde" unicode="&#x129;" horiz-adv-x="366" 
d="M119 711c12.667 0 25.335 -2.66602 38.002 -7.99902s24.667 -11 36 -17l32 -16.5c10 -5 19 -7.5 27 -7.5c11.333 0 22 3.66699 32 11s21.667 19.666 35 36.999l68 -40c-17.333 -38.667 -36 -66.5 -56 -83.5s-41.667 -25.5 -65 -25.5c-13.333 0 -26.5 2.5 -39.5 7.5
s-25.333 10.333 -37 16l-33.5 16c-10.667 5 -20.667 7.5 -30 7.5c-11.333 0 -22.833 -3.5 -34.5 -10.5s-24.834 -20.167 -39.501 -39.5l-65 41c17.333 36 36.166 63.667 56.499 83s45.5 29 75.5 29zM120.001 0.000976562v495h143v-495h-143z" />
    <glyph glyph-name="Imacron" unicode="&#x12a;" horiz-adv-x="306" 
d="M85 0v696h154v-696h-154zM-9 758v118h333v-118h-333z" />
    <glyph glyph-name="imacron" unicode="&#x12b;" horiz-adv-x="312" 
d="M89 0v495h143v-495h-143zM-10 578v118h333v-118h-333z" />
    <glyph glyph-name="Ibreve" unicode="&#x12c;" horiz-adv-x="294" 
d="M148 731c-28.667 0 -52.665 5.5 -71.998 16.5s-34.833 24.667 -46.5 41s-20.334 33.833 -26.001 52.5s-9.5 35.667 -11.5 51h100c0 -6.66699 1.16699 -13.834 3.5 -21.501s5.83301 -15 10.5 -22s10.5 -12.833 17.5 -17.5s15.167 -7 24.5 -7s17.5 2.33301 24.5 7
s12.833 10.5 17.5 17.5s8.16699 14.333 10.5 22s3.5 14.834 3.5 21.501h100c-2 -15.333 -5.83301 -32.333 -11.5 -51s-14.334 -36.167 -26.001 -52.5s-27.167 -30 -46.5 -41s-43.333 -16.5 -72 -16.5zM73.002 0v696h154v-696h-154z" />
    <glyph glyph-name="ibreve" unicode="&#x12d;" horiz-adv-x="269" 
d="M63 0v495h143v-495h-143zM136 567c-28.667 0 -52.665 5.5 -71.998 16.5s-34.833 24.667 -46.5 41s-20.334 33.833 -26.001 52.5s-9.5 35.667 -11.5 51h100c0 -6.66699 1.16699 -13.834 3.5 -21.501s5.83301 -15 10.5 -22s10.5 -12.833 17.5 -17.5s15.167 -7 24.5 -7
s17.5 2.33301 24.5 7s12.833 10.5 17.5 17.5s8.16699 14.333 10.5 22s3.5 14.834 3.5 21.501h100c-2 -15.333 -5.83301 -32.333 -11.5 -51s-14.334 -36.167 -26.001 -52.5s-27.167 -30 -46.5 -41s-43.333 -16.5 -72 -16.5z" />
    <glyph glyph-name="Iogonek" unicode="&#x12e;" horiz-adv-x="294" 
d="M60 -104c0 14 3 29.168 9 45.501s16.667 35.833 32 58.5h-28v696h154v-696h-32c-15.333 -21.333 -26.5 -39 -33.5 -53s-10.5 -26 -10.5 -36c0 -18 10.667 -27 32 -27c6 0 14.333 1.16699 25 3.5s23.667 6.16602 39 11.499l28 -70
c-17.333 -9.33301 -35.333 -16.833 -54 -22.5s-36.667 -8.5 -54 -8.5c-32 0 -57.833 9.66699 -77.5 29s-29.5 42.333 -29.5 69z" />
    <glyph glyph-name="iogonek" unicode="&#x12f;" horiz-adv-x="269" 
d="M46 -103c0 14 2.83301 29.001 8.5 45.001s16.167 35.333 31.5 58h-23v495h143v-495h-26c-15.333 -20.667 -26.333 -38 -33 -52s-10 -26 -10 -36c0 -18 10.667 -27 32 -27c6 0 14.333 1.16699 25 3.5s23.667 6.16602 39 11.499l28 -70
c-17.333 -9.33301 -35.333 -16.833 -54 -22.5s-36.667 -8.5 -54 -8.5c-32 0 -57.833 9.66699 -77.5 29s-29.5 42.333 -29.5 69zM63 571.001v125h143v-125h-143z" />
    <glyph glyph-name="Idotaccent" unicode="&#x130;" horiz-adv-x="294" 
d="M73 0v696h154v-696h-154zM74 749v130h148v-130h-148z" />
    <glyph glyph-name="dotlessi" unicode="&#x131;" horiz-adv-x="269" 
d="M63 0v495h143v-495h-143z" />
    <glyph glyph-name="IJ" unicode="&#x132;" horiz-adv-x="791" 
d="M73 0v696h154v-696h-154zM728 225c0 -44 -6.50098 -80.834 -19.501 -110.501s-30.167 -53.334 -51.5 -71.001s-46.166 -30.167 -74.499 -37.5s-57.833 -11 -88.5 -11c-20.667 0 -40.667 1.33301 -60 4s-38 7.5 -56 14.5s-35 16.5 -51 28.5s-30.667 27.333 -44 46l103 101
c17.333 -19.333 34.666 -33.166 51.999 -41.499s33 -12.5 47 -12.5c8.66699 0 18.334 1.16699 29.001 3.5s20.667 7 30 14s17 16.833 23 29.5s9 29.334 9 50.001v464h152v-471z" />
    <glyph glyph-name="ij" unicode="&#x133;" horiz-adv-x="532" 
d="M63 571v125h143v-125h-143zM63 0v495h143v-495h-143zM319 571v125h143v-125h-143zM462 -52c0 -44.667 -13.5 -80.5 -40.5 -107.5s-68.167 -40.5 -123.5 -40.5h-60v124h26c12 0 21.667 1.5 29 4.5s13 7 17 12s6.5 10.5 7.5 16.5s1.5 12.333 1.5 19v520h143v-548z" />
    <glyph glyph-name="Jcircumflex" unicode="&#x134;" horiz-adv-x="511" 
d="M448 226c0 -44 -6.50098 -80.834 -19.501 -110.501s-30.167 -53.334 -51.5 -71.001s-46.166 -30.167 -74.499 -37.5s-57.833 -11 -88.5 -11c-20.667 0 -40.667 1.33301 -60 4s-38 7.5 -56 14.5s-35 16.5 -51 28.5s-30.667 27.333 -44 46l103 101
c17.333 -19.333 34.666 -33.166 51.999 -41.499s33 -12.5 47 -12.5c8.66699 0 18.334 1.16699 29.001 3.5s20.667 7 30 14s17 16.833 23 29.5s9 29.334 9 50.001v464h152v-471zM371.999 806.999l-150 -78l-48 58l149 120h98l151 -120l-51 -59z" />
    <glyph glyph-name="jcircumflex" unicode="&#x135;" horiz-adv-x="356" 
d="M256 -52c0 -22 -4.16504 -42.167 -12.498 -60.5s-19.833 -34 -34.5 -47s-32 -23 -52 -30s-41.667 -10.5 -65 -10.5h-60v124h33c10 0 18.167 2.33301 24.5 7s11.166 10.167 14.499 16.5s5.66602 13 6.99902 20s2 12.833 2 17.5v511h143v-548zM179.002 625l-72.5 -52
l-72.5 -51l-53 48l147 155h103l148 -155l-56 -49z" />
    <glyph glyph-name="Kcommaaccent" unicode="&#x136;" horiz-adv-x="657" 
d="M495 0l-180 296l-91 -102v-194h-154v696h154v-298l2 -2l106 129l145 171h186l-244 -282l258 -414h-182zM264 -293l35 108h-33v151h154v-143l-89 -116h-67z" />
    <glyph glyph-name="kcommaaccent" unicode="&#x137;" horiz-adv-x="533" 
d="M385 0l-133 196l-49 -53v-143h-143v726h143v-400l2 -1l65 78l86 92h178l-189 -200l203 -295h-163zM205 -313l35 108h-33v151h154v-143l-89 -116h-67z" />
    <glyph glyph-name="kgreenlandic" unicode="&#x138;" horiz-adv-x="533" 
d="M385 0l-133 196l-49 -53v-143h-143v495h143v-169l2 -1l65 74l87 96h177l-189 -200l203 -295h-163z" />
    <glyph glyph-name="Lacute" unicode="&#x139;" horiz-adv-x="585" 
d="M87 802l180 128l90 -107l-214 -90zM70 0v696h154v-558h338v-138h-492z" />
    <glyph glyph-name="lacute" unicode="&#x13a;" horiz-adv-x="286" 
d="M60 812l180 128l90 -107l-214 -90zM213 0c-20 0 -39.332 2.16699 -57.999 6.5s-35 12 -49 23s-25.167 26 -33.5 45s-12.5 43.167 -12.5 72.5v579h143v-552c0 -22 4.16699 -35.833 12.5 -41.5s19.166 -8.5 32.499 -8.5h16v-124h-51z" />
    <glyph glyph-name="Lcommaaccent" unicode="&#x13b;" horiz-adv-x="585" 
d="M70 0v696h154v-558h338v-138h-492zM255 -313l35 108h-33v151h154v-143l-89 -116h-67z" />
    <glyph glyph-name="lcommaaccent" unicode="&#x13c;" horiz-adv-x="286" 
d="M213 0c-20 0 -39.332 2.16699 -57.999 6.5s-35 12 -49 23s-25.167 26 -33.5 45s-12.5 43.167 -12.5 72.5v579h143v-552c0 -22 4.16699 -35.833 12.5 -41.5s19.166 -8.5 32.499 -8.5h16v-124h-51zM83.001 -308l35 108h-33v151h154v-143l-89 -116h-67z" />
    <glyph glyph-name="Lcaron" unicode="&#x13d;" horiz-adv-x="585" 
d="M70 0v696h154v-558h338v-138h-492zM312 437l35 108h-33v151h154v-143l-89 -116h-67z" />
    <glyph glyph-name="lcaron" unicode="&#x13e;" horiz-adv-x="443" 
d="M285 467l35 108h-33v151h154v-143l-89 -116h-67zM213 0c-20 0 -39.332 2.16699 -57.999 6.5s-35 12 -49 23s-25.167 26 -33.5 45s-12.5 43.167 -12.5 72.5v579h143v-552c0 -22 4.16699 -35.833 12.5 -41.5s19.166 -8.5 32.499 -8.5h16v-124h-51z" />
    <glyph glyph-name="Ldot" unicode="&#x13f;" horiz-adv-x="585" 
d="M70 0v696h154v-558h338v-138h-492zM334 303v130h148v-130h-148z" />
    <glyph glyph-name="ldot" unicode="&#x140;" horiz-adv-x="425" 
d="M279 310v130h148v-130h-148zM213 0c-20 0 -39.332 2.16699 -57.999 6.5s-35 12 -49 23s-25.167 26 -33.5 45s-12.5 43.167 -12.5 72.5v579h143v-552c0 -22 4.16699 -35.833 12.5 -41.5s19.166 -8.5 32.499 -8.5h16v-124h-51z" />
    <glyph glyph-name="Lslash" unicode="&#x141;" horiz-adv-x="618" 
d="M103 0v209l-53 -31l-50 87l103 60v371h154v-282l87 51l50 -87l-137 -80v-160h338v-138h-492z" />
    <glyph glyph-name="lslash" unicode="&#x142;" horiz-adv-x="360" 
d="M261 0c-20 0 -39.332 2.16699 -57.999 6.5s-35 12 -49 23s-25.167 26 -33.5 45s-12.5 43.167 -12.5 72.5v111l-57 -33l-51 87l108 62v352h143v-269l59 34l50 -87l-109 -63v-167c0 -22 4.16699 -35.833 12.5 -41.5s19.166 -8.5 32.499 -8.5h16v-124h-51z" />
    <glyph glyph-name="Nacute" unicode="&#x143;" horiz-adv-x="710" 
d="M231 802l180 128l90 -107l-214 -90zM506 0l-177 256l-103 166l-2 -1v-421h-154v696h137l146 -213l134 -209l2 1v421h154v-696h-137z" />
    <glyph glyph-name="nacute" unicode="&#x144;" horiz-adv-x="551" 
d="M348 0l-0.000976562 292c0 25.333 -6.66699 44.333 -20 57s-30 19 -50 19c-21.333 0 -39.166 -6.33301 -53.499 -19s-21.5 -31.667 -21.5 -57v-292h-143v495h143v-41h2c15.333 14 34.5 25.167 57.5 33.5s43.833 12.5 62.5 12.5c54 0 95 -15 123 -45s42 -74.333 42 -133
v-322h-142zM182.999 567l85 203l133 -43l-135 -190z" />
    <glyph glyph-name="Ncommaaccent" unicode="&#x145;" horiz-adv-x="710" 
d="M506 0l-177 256l-103 166l-2 -1v-421h-154v696h137l146 -213l134 -209l2 1v421h154v-696h-137zM281 -293l35 108h-33v151h154v-143l-89 -116h-67z" />
    <glyph glyph-name="ncommaaccent" unicode="&#x146;" horiz-adv-x="551" 
d="M348 0l-0.000976562 292c0 25.333 -6.66699 44.333 -20 57s-30 19 -50 19c-21.333 0 -39.166 -6.33301 -53.499 -19s-21.5 -31.667 -21.5 -57v-292h-143v495h143v-41h2c15.333 14 34.5 25.167 57.5 33.5s43.833 12.5 62.5 12.5c54 0 95 -15 123 -45s42 -74.333 42 -133
v-322h-142zM197.999 -313l35 108h-33v151h154v-143l-89 -116h-67z" />
    <glyph glyph-name="Ncaron" unicode="&#x147;" horiz-adv-x="710" 
d="M506 0l-177 256l-103 166l-2 -1v-421h-154v696h137l146 -213l134 -209l2 1v421h154v-696h-137zM501 908l51 -59l-151 -120h-98l-149 120l48 58l150 -78z" />
    <glyph glyph-name="ncaron" unicode="&#x148;" horiz-adv-x="551" 
d="M348 0l-0.000976562 292c0 25.333 -6.66699 44.333 -20 57s-30 19 -50 19c-21.333 0 -39.166 -6.33301 -53.499 -19s-21.5 -31.667 -21.5 -57v-292h-143v495h143v-41h2c15.333 14 34.5 25.167 57.5 33.5s43.833 12.5 62.5 12.5c54 0 95 -15 123 -45s42 -74.333 42 -133
v-322h-142zM406.999 725l56 -49l-148 -155h-103l-147 155l53 48l72.5 -51l72.5 -52z" />
    <glyph glyph-name="napostrophe" unicode="&#x149;" horiz-adv-x="681" 
d="M478 0l-0.000976562 292c0 25.333 -6.66699 44.333 -20 57s-30 19 -50 19c-21.333 0 -39.166 -6.33301 -53.499 -19s-21.5 -31.667 -21.5 -57v-292h-143v495h143v-41h2c15.333 14 34.5 25.167 57.5 33.5s43.833 12.5 62.5 12.5c54 0 95 -15 123 -45s42 -74.333 42 -133
v-322h-142zM-1.00098 414l35 108h-33v151h154v-143l-89 -116h-67z" />
    <glyph glyph-name="Eng" unicode="&#x14a;" horiz-adv-x="710" 
d="M643 -66c0 -36 -11.667 -65.667 -35 -89s-57 -35 -101 -35c-17.333 0 -35 2 -53 6s-36 10.667 -54 20l31 96c7.33301 -2 13.833 -3.33301 19.5 -4s11.167 -1 16.5 -1c12 0 20.667 3 26 9s8 16 8 30v41l-172 249l-103 166l-2 -1v-421h-154v696h137l146 -213l134 -209l2 1
v421h154v-762z" />
    <glyph glyph-name="eng" unicode="&#x14b;" horiz-adv-x="551" 
d="M490 -66c0 -36 -11.668 -65.667 -35.001 -89s-57 -35 -101 -35c-17.333 0 -35 2 -53 6s-36 10.667 -54 20l31 96c7.33301 -2 13.833 -3.33301 19.5 -4s11.167 -1 16.5 -1c12 0 20.667 3 26 9s8 16 8 30v326c0 25.333 -7 44.333 -21 57s-31 19 -51 19
c-21.333 0 -38.833 -6.33301 -52.5 -19s-20.5 -31.667 -20.5 -57v-292h-143v495h143v-41h2c15.333 14 32.833 25.167 52.5 33.5s38.834 12.5 57.501 12.5c54 0 96.667 -15 128 -45s47 -74.333 47 -133v-388v0z" />
    <glyph glyph-name="Omacron" unicode="&#x14c;" horiz-adv-x="624" 
d="M310 701c42 0 79.832 -6.83105 113.499 -20.498s62.334 -32.5 86.001 -56.5s41.834 -52.667 54.501 -86s19 -69.333 19 -108v-164c0 -41.333 -6.5 -78.833 -19.5 -112.5s-31.333 -62.334 -55 -86.001s-52.334 -41.834 -86.001 -54.501s-71.167 -19 -112.5 -19
c-45.333 0 -84.833 7.33301 -118.5 22s-61.667 34.5 -84 59.5s-39 54 -50 87s-16.5 67.5 -16.5 103.5v164c0 36 5.5 70.333 16.5 103s27.667 61.5 50 86.5s50.333 44.833 84 59.5s73.167 22 118.5 22zM308.999 557.002c-19.333 0 -36 -3.16406 -50 -9.49707
s-25.667 -14.833 -35 -25.5s-16.333 -22.834 -21 -36.501s-7 -27.5 -7 -41.5v-189c0 -15.333 2.33301 -30 7 -44s11.667 -26.333 21 -37s21 -19.334 35 -26.001s30.667 -10 50 -10c37.333 0 66.166 11.167 86.499 33.5s30.5 50.166 30.5 83.499v189
c0 30.667 -10.167 57.167 -30.5 79.5s-49.166 33.5 -86.499 33.5zM145.999 758.005v118h333v-118h-333z" />
    <glyph glyph-name="omacron" unicode="&#x14d;" horiz-adv-x="516" 
d="M265 501c38 0 72.666 -6.99902 103.999 -20.999s56.333 -34.667 75 -62c14 -20.667 24.167 -45.667 30.5 -75s9.16602 -62 8.49902 -98c0 -32.667 -3.33301 -61.834 -10 -87.501s-16 -48.5 -28 -68.5c-20.667 -33.333 -48.167 -57.666 -82.5 -72.999
s-71.166 -23 -110.499 -23c-38.667 0 -73.167 6.33301 -103.5 19s-54.833 32.667 -73.5 60c-15.333 22 -26.333 47.833 -33 77.5s-9.66699 62.5 -9 98.5c0.666992 25.333 3 50.333 7 75s10.333 46 19 64c17.333 37.333 44.333 65.666 81 84.999s78.334 29 125.001 29z
M259.999 373.001c-14 0 -26.8311 -3.83203 -38.498 -11.499s-20.834 -18.167 -27.501 -31.5c-5.33301 -10.667 -9 -23 -11 -37s-3.33301 -29.667 -4 -47c0 -17.333 1 -32.833 3 -46.5s5.66699 -25.5 11 -35.5c6 -12.667 14.333 -22.667 25 -30s23.334 -11 38.001 -11
c17.333 0 32.166 4.66699 44.499 14s21.166 22.666 26.499 39.999c2 7.33301 4 16.833 6 28.5s3 25.834 3 42.501c0.666992 18.667 -0.333008 35.167 -3 49.5s-5.66699 25.166 -9 32.499c-6 14.667 -14.833 25.5 -26.5 32.5s-24.167 10.5 -37.5 10.5zM95.001 578.002v118
h333v-118h-333z" />
    <glyph glyph-name="Obreve" unicode="&#x14e;" horiz-adv-x="624" 
d="M310 701c42 0 79.832 -6.83105 113.499 -20.498s62.334 -32.5 86.001 -56.5s41.834 -52.667 54.501 -86s19 -69.333 19 -108v-164c0 -41.333 -6.5 -78.833 -19.5 -112.5s-31.333 -62.334 -55 -86.001s-52.334 -41.834 -86.001 -54.501s-71.167 -19 -112.5 -19
c-45.333 0 -84.833 7.33301 -118.5 22s-61.667 34.5 -84 59.5s-39 54 -50 87s-16.5 67.5 -16.5 103.5v164c0 36 5.5 70.333 16.5 103s27.667 61.5 50 86.5s50.333 44.833 84 59.5s73.167 22 118.5 22zM308.999 557.002c-19.333 0 -36 -3.16406 -50 -9.49707
s-25.667 -14.833 -35 -25.5s-16.333 -22.834 -21 -36.501s-7 -27.5 -7 -41.5v-189c0 -15.333 2.33301 -30 7 -44s11.667 -26.333 21 -37s21 -19.334 35 -26.001s30.667 -10 50 -10c37.333 0 66.166 11.167 86.499 33.5s30.5 50.166 30.5 83.499v189
c0 30.667 -10.167 57.167 -30.5 79.5s-49.166 33.5 -86.499 33.5zM308.999 731.005c-28.667 0 -52.665 5.5 -71.998 16.5s-34.833 24.667 -46.5 41s-20.334 33.833 -26.001 52.5s-9.5 35.667 -11.5 51h100c0 -6.66699 1.16699 -13.834 3.5 -21.501s5.83301 -15 10.5 -22
s10.5 -12.833 17.5 -17.5s15.167 -7 24.5 -7s17.5 2.33301 24.5 7s12.833 10.5 17.5 17.5s8.16699 14.333 10.5 22s3.5 14.834 3.5 21.501h100c-2 -15.333 -5.83301 -32.333 -11.5 -51s-14.334 -36.167 -26.001 -52.5s-27.167 -30 -46.5 -41s-43.333 -16.5 -72 -16.5z" />
    <glyph glyph-name="obreve" unicode="&#x14f;" horiz-adv-x="516" 
d="M265 501c38 0 72.666 -6.99902 103.999 -20.999s56.333 -34.667 75 -62c14 -20.667 24.167 -45.667 30.5 -75s9.16602 -62 8.49902 -98c0 -32.667 -3.33301 -61.834 -10 -87.501s-16 -48.5 -28 -68.5c-20.667 -33.333 -48.167 -57.666 -82.5 -72.999
s-71.166 -23 -110.499 -23c-38.667 0 -73.167 6.33301 -103.5 19s-54.833 32.667 -73.5 60c-15.333 22 -26.333 47.833 -33 77.5s-9.66699 62.5 -9 98.5c0.666992 25.333 3 50.333 7 75s10.333 46 19 64c17.333 37.333 44.333 65.666 81 84.999s78.334 29 125.001 29z
M259.999 373.001c-14 0 -26.8311 -3.83203 -38.498 -11.499s-20.834 -18.167 -27.501 -31.5c-5.33301 -10.667 -9 -23 -11 -37s-3.33301 -29.667 -4 -47c0 -17.333 1 -32.833 3 -46.5s5.66699 -25.5 11 -35.5c6 -12.667 14.333 -22.667 25 -30s23.334 -11 38.001 -11
c17.333 0 32.166 4.66699 44.499 14s21.166 22.666 26.499 39.999c2 7.33301 4 16.833 6 28.5s3 25.834 3 42.501c0.666992 18.667 -0.333008 35.167 -3 49.5s-5.66699 25.166 -9 32.499c-6 14.667 -14.833 25.5 -26.5 32.5s-24.167 10.5 -37.5 10.5zM260.001 561.002
c-28.667 0 -52.665 5.5 -71.998 16.5s-34.833 24.667 -46.5 41s-20.334 33.833 -26.001 52.5s-9.5 35.667 -11.5 51h100c0 -6.66699 1.16699 -13.834 3.5 -21.501s5.83301 -15 10.5 -22s10.5 -12.833 17.5 -17.5s15.167 -7 24.5 -7s17.5 2.33301 24.5 7
s12.833 10.5 17.5 17.5s8.16699 14.333 10.5 22s3.5 14.834 3.5 21.501h100c-2 -15.333 -5.83301 -32.333 -11.5 -51s-14.334 -36.167 -26.001 -52.5s-27.167 -30 -46.5 -41s-43.333 -16.5 -72 -16.5z" />
    <glyph glyph-name="Ohungarumlaut" unicode="&#x150;" horiz-adv-x="624" 
d="M310 701c42 0 79.832 -6.83105 113.499 -20.498s62.334 -32.5 86.001 -56.5s41.834 -52.667 54.501 -86s19 -69.333 19 -108v-164c0 -41.333 -6.5 -78.833 -19.5 -112.5s-31.333 -62.334 -55 -86.001s-52.334 -41.834 -86.001 -54.501s-71.167 -19 -112.5 -19
c-45.333 0 -84.833 7.33301 -118.5 22s-61.667 34.5 -84 59.5s-39 54 -50 87s-16.5 67.5 -16.5 103.5v164c0 36 5.5 70.333 16.5 103s27.667 61.5 50 86.5s50.333 44.833 84 59.5s73.167 22 118.5 22zM308.999 557.002c-19.333 0 -36 -3.16406 -50 -9.49707
s-25.667 -14.833 -35 -25.5s-16.333 -22.834 -21 -36.501s-7 -27.5 -7 -41.5v-189c0 -15.333 2.33301 -30 7 -44s11.667 -26.333 21 -37s21 -19.334 35 -26.001s30.667 -10 50 -10c37.333 0 66.166 11.167 86.499 33.5s30.5 50.166 30.5 83.499v189
c0 30.667 -10.167 57.167 -30.5 79.5s-49.166 33.5 -86.499 33.5zM106.999 784.005l161 151l104 -94l-200 -118zM326.999 784.005l161 151l104 -94l-200 -118z" />
    <glyph glyph-name="ohungarumlaut" unicode="&#x151;" horiz-adv-x="516" 
d="M265 501c38 0 72.666 -6.99902 103.999 -20.999s56.333 -34.667 75 -62c14 -20.667 24.167 -45.667 30.5 -75s9.16602 -62 8.49902 -98c0 -32.667 -3.33301 -61.834 -10 -87.501s-16 -48.5 -28 -68.5c-20.667 -33.333 -48.167 -57.666 -82.5 -72.999
s-71.166 -23 -110.499 -23c-38.667 0 -73.167 6.33301 -103.5 19s-54.833 32.667 -73.5 60c-15.333 22 -26.333 47.833 -33 77.5s-9.66699 62.5 -9 98.5c0.666992 25.333 3 50.333 7 75s10.333 46 19 64c17.333 37.333 44.333 65.666 81 84.999s78.334 29 125.001 29z
M259.999 373.001c-14 0 -26.8311 -3.83203 -38.498 -11.499s-20.834 -18.167 -27.501 -31.5c-5.33301 -10.667 -9 -23 -11 -37s-3.33301 -29.667 -4 -47c0 -17.333 1 -32.833 3 -46.5s5.66699 -25.5 11 -35.5c6 -12.667 14.333 -22.667 25 -30s23.334 -11 38.001 -11
c17.333 0 32.166 4.66699 44.499 14s21.166 22.666 26.499 39.999c2 7.33301 4 16.833 6 28.5s3 25.834 3 42.501c0.666992 18.667 -0.333008 35.167 -3 49.5s-5.66699 25.166 -9 32.499c-6 14.667 -14.833 25.5 -26.5 32.5s-24.167 10.5 -37.5 10.5zM115.001 567.002
l85 203l133 -43l-135 -190zM302.001 567.002l85 203l133 -43l-135 -190z" />
    <glyph glyph-name="OE" unicode="&#x152;" horiz-adv-x="882" 
d="M376 0c-21.333 -4 -43.332 -6 -65.999 -6c-45.333 0 -84.833 7.33301 -118.5 22s-61.667 34.5 -84 59.5s-39 54 -50 87s-16.5 67.5 -16.5 103.5v164c0 36 5.5 70.333 16.5 103s27.667 61.5 50 86.5s50.333 44.833 84 59.5s73.167 22 118.5 22c10 0 19.667 -0.5 29 -1.5
s18.666 -2.16699 27.999 -3.5h492v-138h-338v-141h288v-133h-288v-146h338v-138h-483zM309.001 138c21.333 0 40.666 4.33496 57.999 13.002v393c-8.66699 4 -17.667 7.16699 -27 9.5s-19.666 3.5 -30.999 3.5c-19.333 0 -36 -3.16699 -50 -9.5s-25.667 -14.833 -35 -25.5
s-16.333 -22.834 -21 -36.501s-7 -27.5 -7 -41.5v-189c0 -15.333 2.33301 -30 7 -44s11.667 -26.333 21 -37s21 -19.334 35 -26.001s30.667 -10 50 -10z" />
    <glyph glyph-name="oe" unicode="&#x153;" horiz-adv-x="841" 
d="M491 210c3.33301 -32 11.9961 -54.5 25.9961 -67.5s33 -19.5 57 -19.5c12.667 0 29.334 3 50.001 9s41.334 18.333 62.001 37l88 -98c-32 -29.333 -66 -49.5 -102 -60.5s-70 -16.5 -102 -16.5c-28 0 -56.5 5.66699 -85.5 17s-53.167 30.666 -72.5 57.999
c-17.333 -25.333 -40.5 -44.333 -69.5 -57s-58.5 -19 -88.5 -19c-38.667 0 -73.167 6.66699 -103.5 20s-54.833 33.666 -73.5 60.999c-29.333 42.667 -43.333 100.667 -42 174c0.666992 25.333 3 50 7 74s10.333 45 19 63c17.333 37.333 44.333 66 81 86
s78.334 30 125.001 30c30 0 58.833 -5.5 86.5 -16.5s49.5 -29.167 65.5 -54.5c17.333 27.333 39.833 45.833 67.5 55.5s55.167 14.5 82.5 14.5c39.333 0 73.333 -6.33301 102 -19s52.334 -30.167 71.001 -52.5s32.5 -49.166 41.5 -80.499s13.5 -65.666 13.5 -102.999v-35
h-306zM261.996 373c-15.333 0 -28.833 -3.83203 -40.5 -11.499s-20.834 -18.167 -27.501 -31.5c-5.33301 -10.667 -9 -23 -11 -37s-3.33301 -29.667 -4 -47c0 -17.333 1 -32.833 3 -46.5s5.66699 -25.5 11 -35.5c6 -12.667 14.333 -22.667 25 -30s24 -11 40 -11
c17.333 0 32.5 4.66699 45.5 14s22.167 22.666 27.5 39.999c2 7.33301 4 16.833 6 28.5s3 25.834 3 42.501c0.666992 18.667 -0.333008 35.167 -3 49.5s-5.66699 25.166 -9 32.499c-6 14.667 -15.167 25.5 -27.5 32.5s-25.166 10.5 -38.499 10.5zM642.996 302.001
c-2.66699 22.667 -11 40.167 -25 52.5s-30 18.5 -48 18.5s-34 -6.33301 -48 -19s-22.667 -30 -26 -52h147z" />
    <glyph glyph-name="Racute" unicode="&#x154;" horiz-adv-x="652" 
d="M181 802l180 128l90 -107l-214 -90zM434 0l-110 269h-100v-269h-154v696h308c30.667 0 59.5 -4.66699 86.5 -14s50.833 -22.833 71.5 -40.5s37 -39.5 49 -65.5s18 -55.667 18 -89c0 -42 -10.833 -79.833 -32.5 -113.5s-53.5 -59.5 -95.5 -77.5l133 -296h-174zM443 486
c0 26 -8 44.667 -24 56s-37 17 -63 17h-132v-152h127c28 0 50.333 6.66699 67 20s25 33 25 59z" />
    <glyph glyph-name="racute" unicode="&#x155;" horiz-adv-x="411" 
d="M276 370c-21.333 0 -38.835 -6.33301 -52.502 -19s-20.5 -31.667 -20.5 -57v-295h-143v496h140v-56l3 -1c12.667 18 28.667 32.833 48 44.5s40 17.5 62 17.5c20.667 0 39 -2.16699 55 -6.5s32.667 -12.5 50 -24.5l-50 -125c-17.333 10.667 -33.666 17.667 -48.999 21
s-29.666 5 -42.999 5zM129.998 567l85 203l133 -43l-135 -190z" />
    <glyph glyph-name="Rcommaaccent" unicode="&#x156;" horiz-adv-x="652" 
d="M434 0l-110 269h-100v-269h-154v696h308c30.667 0 59.5 -4.66699 86.5 -14s50.833 -22.833 71.5 -40.5s37 -39.5 49 -65.5s18 -55.667 18 -89c0 -42 -10.833 -79.833 -32.5 -113.5s-53.5 -59.5 -95.5 -77.5l133 -296h-174zM443 486c0 26 -8 44.667 -24 56s-37 17 -63 17
h-132v-152h127c28 0 50.333 6.66699 67 20s25 33 25 59zM251 -293l35 108h-33v151h154v-143l-89 -116h-67z" />
    <glyph glyph-name="rcommaaccent" unicode="&#x157;" horiz-adv-x="411" 
d="M276 370c-21.333 0 -38.835 -6.33301 -52.502 -19s-20.5 -31.667 -20.5 -57v-295h-143v496h140v-56l3 -1c12.667 18 28.667 32.833 48 44.5s40 17.5 62 17.5c20.667 0 39 -2.16699 55 -6.5s32.667 -12.5 50 -24.5l-50 -125c-17.333 10.667 -33.666 17.667 -48.999 21
s-29.666 5 -42.999 5zM49.998 -313l35 108h-33v151h154v-143l-89 -116h-67z" />
    <glyph glyph-name="Rcaron" unicode="&#x158;" horiz-adv-x="652" 
d="M434 0l-110 269h-100v-269h-154v696h308c30.667 0 59.5 -4.66699 86.5 -14s50.833 -22.833 71.5 -40.5s37 -39.5 49 -65.5s18 -55.667 18 -89c0 -42 -10.833 -79.833 -32.5 -113.5s-53.5 -59.5 -95.5 -77.5l133 -296h-174zM443 486c0 26 -8 44.667 -24 56s-37 17 -63 17
h-132v-152h127c28 0 50.333 6.66699 67 20s25 33 25 59zM429 908l51 -59l-151 -120h-98l-149 120l48 58l150 -78z" />
    <glyph glyph-name="rcaron" unicode="&#x159;" horiz-adv-x="411" 
d="M276 370c-21.333 0 -38.835 -6.33301 -52.502 -19s-20.5 -31.667 -20.5 -57v-295h-143v496h140v-56l3 -1c12.667 18 28.667 32.833 48 44.5s40 17.5 62 17.5c20.667 0 39 -2.16699 55 -6.5s32.667 -12.5 50 -24.5l-50 -125c-17.333 10.667 -33.666 17.667 -48.999 21
s-29.666 5 -42.999 5zM346.998 725l56 -49l-148 -155h-103l-147 155l53 48l72.5 -51l72.5 -52z" />
    <glyph glyph-name="Sacute" unicode="&#x15a;" horiz-adv-x="594" 
d="M216 802l180 128l90 -107l-214 -90zM469 514c-16.667 10.667 -33.166 18.998 -49.499 24.998s-32 10.667 -47 14s-28.833 5.5 -41.5 6.5s-23.667 1.5 -33 1.5c-19.333 0 -34.833 -2 -46.5 -6s-21 -9.33301 -28 -16s-11.667 -13.834 -14 -21.501
s-3.5 -14.834 -3.5 -21.501c0 -11.333 2.16699 -20.666 6.5 -27.999s12 -13.666 23 -18.999s26 -10 45 -14s42.833 -8.33301 71.5 -13s56 -11.5 82 -20.5s48.833 -21.5 68.5 -37.5s35.334 -36.167 47.001 -60.5s17.5 -54.166 17.5 -89.499c0 -36 -8 -67.833 -24 -95.5
s-36.833 -50.667 -62.5 -69s-55 -32.166 -88 -41.499s-66.5 -14 -100.5 -14c-23.333 0 -47 1.16699 -71 3.5s-48 7 -72 14s-47.833 16.833 -71.5 29.5s-46.834 29 -69.501 49l89 118c32.667 -29.333 65.667 -48.833 99 -58.5s68 -14.5 104 -14.5c34 0 60 6.83301 78 20.5
s27 29.834 27 48.501c0 8.66699 -1 17 -3 25s-6.33301 15.5 -13 22.5s-16.334 13 -29.001 18s-29.334 8.5 -50.001 10.5c-33.333 3.33301 -65.333 8.66602 -96 15.999s-58 18.833 -82 34.5s-43.167 36 -57.5 61s-21.5 57.167 -21.5 96.5c0 36.667 7.16699 68.5 21.5 95.5
s33 49.333 56 67s48.833 30.667 77.5 39s57.334 12.5 86.001 12.5c42.667 0 85 -4.66699 127 -14s81.667 -26.333 119 -51z" />
    <glyph glyph-name="sacute" unicode="&#x15b;" horiz-adv-x="468" 
d="M445 155c0 -26.667 -5.83105 -50.001 -17.498 -70.001s-27.334 -36.833 -47.001 -50.5s-42 -23.834 -67 -30.501s-50.833 -10 -77.5 -10c-18.667 0 -37.167 0.833008 -55.5 2.5s-36.666 5.33398 -54.999 11.001s-36.833 13.5 -55.5 23.5s-37.334 23.333 -56.001 40
l70 100c24.667 -23.333 50.334 -38.666 77.001 -45.999s53.667 -11 81 -11c18 0 33 3.66699 45 11s18 16 18 26c0 9.33301 -3.66699 18 -11 26s-24.333 13.667 -51 17c-24.667 2.66699 -49 6.33398 -73 11.001s-45.333 12.167 -64 22.5s-33.667 24.333 -45 42
s-17 41.167 -17 70.5c0 26.667 5 50.167 15 70.5s23.5 37 40.5 50s37 22.833 60 29.5s47.167 10 72.5 10c38 0 73.333 -3.83301 106 -11.5s64.667 -23.167 96 -46.5l-64 -106c-26.667 18 -52.334 29.333 -77.001 34s-44 7 -58 7c-21.333 0 -36.333 -3.5 -45 -10.5
s-13 -14.167 -13 -21.5c0 -11.333 7.33301 -20 22 -26s40.667 -11.333 78 -16c22.667 -2.66699 44.167 -6.83398 64.5 -12.501s38.166 -14 53.499 -25s27.5 -25.5 36.5 -43.5s13.5 -40.333 13.5 -67zM183.002 566.999l85 203l133 -43l-135 -190z" />
    <glyph glyph-name="Scircumflex" unicode="&#x15c;" horiz-adv-x="594" 
d="M469 514c-16.667 10.667 -33.166 18.998 -49.499 24.998s-32 10.667 -47 14s-28.833 5.5 -41.5 6.5s-23.667 1.5 -33 1.5c-19.333 0 -34.833 -2 -46.5 -6s-21 -9.33301 -28 -16s-11.667 -13.834 -14 -21.501s-3.5 -14.834 -3.5 -21.501
c0 -11.333 2.16699 -20.666 6.5 -27.999s12 -13.666 23 -18.999s26 -10 45 -14s42.833 -8.33301 71.5 -13s56 -11.5 82 -20.5s48.833 -21.5 68.5 -37.5s35.334 -36.167 47.001 -60.5s17.5 -54.166 17.5 -89.499c0 -36 -8 -67.833 -24 -95.5s-36.833 -50.667 -62.5 -69
s-55 -32.166 -88 -41.499s-66.5 -14 -100.5 -14c-23.333 0 -47 1.16699 -71 3.5s-48 7 -72 14s-47.833 16.833 -71.5 29.5s-46.834 29 -69.501 49l89 118c32.667 -29.333 65.667 -48.833 99 -58.5s68 -14.5 104 -14.5c34 0 60 6.83301 78 20.5s27 29.834 27 48.501
c0 8.66699 -1 17 -3 25s-6.33301 15.5 -13 22.5s-16.334 13 -29.001 18s-29.334 8.5 -50.001 10.5c-33.333 3.33301 -65.333 8.66602 -96 15.999s-58 18.833 -82 34.5s-43.167 36 -57.5 61s-21.5 57.167 -21.5 96.5c0 36.667 7.16699 68.5 21.5 95.5s33 49.333 56 67
s48.833 30.667 77.5 39s57.334 12.5 86.001 12.5c42.667 0 85 -4.66699 127 -14s81.667 -26.333 119 -51zM316.001 804.998l-150 -78l-48 58l149 120h98l151 -120l-51 -59z" />
    <glyph glyph-name="scircumflex" unicode="&#x15d;" horiz-adv-x="468" 
d="M445 155c0 -26.667 -5.83105 -50.001 -17.498 -70.001s-27.334 -36.833 -47.001 -50.5s-42 -23.834 -67 -30.501s-50.833 -10 -77.5 -10c-18.667 0 -37.167 0.833008 -55.5 2.5s-36.666 5.33398 -54.999 11.001s-36.833 13.5 -55.5 23.5s-37.334 23.333 -56.001 40
l70 100c24.667 -23.333 50.334 -38.666 77.001 -45.999s53.667 -11 81 -11c18 0 33 3.66699 45 11s18 16 18 26c0 9.33301 -3.66699 18 -11 26s-24.333 13.667 -51 17c-24.667 2.66699 -49 6.33398 -73 11.001s-45.333 12.167 -64 22.5s-33.667 24.333 -45 42
s-17 41.167 -17 70.5c0 26.667 5 50.167 15 70.5s23.5 37 40.5 50s37 22.833 60 29.5s47.167 10 72.5 10c38 0 73.333 -3.83301 106 -11.5s64.667 -23.167 96 -46.5l-64 -106c-26.667 18 -52.334 29.333 -77.001 34s-44 7 -58 7c-21.333 0 -36.333 -3.5 -45 -10.5
s-13 -14.167 -13 -21.5c0 -11.333 7.33301 -20 22 -26s40.667 -11.333 78 -16c22.667 -2.66699 44.167 -6.83398 64.5 -12.501s38.166 -14 53.499 -25s27.5 -25.5 36.5 -43.5s13.5 -40.333 13.5 -67zM254.002 624.999l-72.5 -52l-72.5 -51l-53 48l147 155h103l148 -155
l-56 -49z" />
    <glyph glyph-name="Scedilla" unicode="&#x15e;" horiz-adv-x="594" 
d="M264 -5c-21.333 0.666992 -42.8359 2.66504 -64.5029 5.99805s-43.167 8.5 -64.5 15.5s-42.666 16.5 -63.999 28.5s-42.333 27 -63 45l89 118c32.667 -29.333 65.667 -48.833 99 -58.5s68 -14.5 104 -14.5c34 0 60 6.83301 78 20.5s27 29.834 27 48.501
c0 8.66699 -1 17 -3 25s-6.33301 15.5 -13 22.5s-16.334 13 -29.001 18s-29.334 8.5 -50.001 10.5c-33.333 3.33301 -65.333 8.66602 -96 15.999s-58 18.833 -82 34.5s-43.167 36 -57.5 61s-21.5 57.167 -21.5 96.5c0 36.667 7.16699 68.5 21.5 95.5s33 49.333 56 67
s48.833 30.667 77.5 39s57.334 12.5 86.001 12.5c42.667 0 85 -4.66699 127 -14s81.667 -26.333 119 -51l-71 -123c-16.667 10.667 -33.167 19 -49.5 25s-32 10.667 -47 14s-28.833 5.5 -41.5 6.5s-23.667 1.5 -33 1.5c-19.333 0 -34.833 -2 -46.5 -6s-21 -9.33301 -28 -16
s-11.667 -13.834 -14 -21.501s-3.5 -14.834 -3.5 -21.501c0 -11.333 2.16699 -20.666 6.5 -27.999s12 -13.666 23 -18.999s26 -10 45 -14s42.833 -8.33301 71.5 -13s56 -11.5 82 -20.5s48.833 -21.5 68.5 -37.5s35.334 -36.167 47.001 -60.5s17.5 -54.166 17.5 -89.499
c0 -32 -6.33301 -60.667 -19 -86s-29.834 -47.166 -51.501 -65.499s-46.334 -33 -74.001 -44s-56.5 -18.167 -86.5 -21.5l-10 -33c34.667 -4 59.334 -15 74.001 -33s22 -37 22 -57c0 -12 -2.66699 -23.5 -8 -34.5s-13.166 -21 -23.499 -30s-23 -16.167 -38 -21.5
s-31.833 -8 -50.5 -8c-21.333 0 -41.666 2.5 -60.999 7.5s-36.333 12.167 -51 21.5l25 62c16.667 -8 30.334 -13 41.001 -15s21.667 -3 33 -3c10.667 0 20 2.5 28 7.5s12 12.5 12 22.5c0 6.66699 -1.83301 12 -5.5 16s-8 6.5 -13 7.5s-10.167 1.16699 -15.5 0.5
s-10 -2 -14 -4l-39 20z" />
    <glyph glyph-name="scedilla" unicode="&#x15f;" horiz-adv-x="468" 
d="M221 -6c-34.667 0.666992 -69.0029 5.83203 -103.003 15.499s-68.667 30.167 -104 61.5l70 100c24.667 -23.333 50.334 -38.666 77.001 -45.999s53.667 -11 81 -11c18 0 33 3.66699 45 11s18 16 18 26c0 9.33301 -3.66699 18 -11 26s-24.333 13.667 -51 17
c-24.667 2.66699 -49 6.33398 -73 11.001s-45.333 12.167 -64 22.5s-33.667 24.333 -45 42s-17 41.167 -17 70.5c0 26.667 5 50.167 15 70.5s23.5 37 40.5 50s37 22.833 60 29.5s47.167 10 72.5 10c38 0 73.333 -3.83301 106 -11.5s64.667 -23.167 96 -46.5l-64 -106
c-26.667 18 -52.334 29.333 -77.001 34s-44 7 -58 7c-21.333 0 -36.333 -3.5 -45 -10.5s-13 -14.167 -13 -21.5c0 -11.333 7.33301 -20 22 -26s40.667 -11.333 78 -16c22.667 -2.66699 44.167 -6.83398 64.5 -12.501s38.166 -14 53.499 -25s27.5 -25.5 36.5 -43.5
s13.5 -40.333 13.5 -67c0 -22 -4 -41.667 -12 -59s-18.833 -32.5 -32.5 -45.5s-29.667 -23.667 -48 -32s-37.833 -14.5 -58.5 -18.5l-11 -36c34.667 -4 59.334 -15 74.001 -33s22 -37 22 -57c0 -12 -2.66699 -23.5 -8 -34.5s-13.166 -21 -23.499 -30s-23 -16.167 -38 -21.5
s-31.833 -8 -50.5 -8c-21.333 0 -41.666 2.5 -60.999 7.5s-36.333 12.167 -51 21.5l25 62c16.667 -8 30.334 -13 41.001 -15s21.667 -3 33 -3c10.667 0 20 2.5 28 7.5s12 12.5 12 22.5c0 6.66699 -1.83301 12 -5.5 16s-8 6.5 -13 7.5s-10.167 1.16699 -15.5 0.5
s-10 -2 -14 -4l-39 20z" />
    <glyph glyph-name="Scaron" unicode="&#x160;" horiz-adv-x="594" 
d="M469 514c-16.667 10.667 -33.166 18.998 -49.499 24.998s-32 10.667 -47 14s-28.833 5.5 -41.5 6.5s-23.667 1.5 -33 1.5c-19.333 0 -34.833 -2 -46.5 -6s-21 -9.33301 -28 -16s-11.667 -13.834 -14 -21.501s-3.5 -14.834 -3.5 -21.501
c0 -11.333 2.16699 -20.666 6.5 -27.999s12 -13.666 23 -18.999s26 -10 45 -14s42.833 -8.33301 71.5 -13s56 -11.5 82 -20.5s48.833 -21.5 68.5 -37.5s35.334 -36.167 47.001 -60.5s17.5 -54.166 17.5 -89.499c0 -36 -8 -67.833 -24 -95.5s-36.833 -50.667 -62.5 -69
s-55 -32.166 -88 -41.499s-66.5 -14 -100.5 -14c-23.333 0 -47 1.16699 -71 3.5s-48 7 -72 14s-47.833 16.833 -71.5 29.5s-46.834 29 -69.501 49l89 118c32.667 -29.333 65.667 -48.833 99 -58.5s68 -14.5 104 -14.5c34 0 60 6.83301 78 20.5s27 29.834 27 48.501
c0 8.66699 -1 17 -3 25s-6.33301 15.5 -13 22.5s-16.334 13 -29.001 18s-29.334 8.5 -50.001 10.5c-33.333 3.33301 -65.333 8.66602 -96 15.999s-58 18.833 -82 34.5s-43.167 36 -57.5 61s-21.5 57.167 -21.5 96.5c0 36.667 7.16699 68.5 21.5 95.5s33 49.333 56 67
s48.833 30.667 77.5 39s57.334 12.5 86.001 12.5c42.667 0 85 -4.66699 127 -14s81.667 -26.333 119 -51zM462.001 907.998l51 -59l-151 -120h-98l-149 120l48 58l150 -78z" />
    <glyph glyph-name="scaron" unicode="&#x161;" horiz-adv-x="468" 
d="M445 155c0 -26.667 -5.83105 -50.001 -17.498 -70.001s-27.334 -36.833 -47.001 -50.5s-42 -23.834 -67 -30.501s-50.833 -10 -77.5 -10c-18.667 0 -37.167 0.833008 -55.5 2.5s-36.666 5.33398 -54.999 11.001s-36.833 13.5 -55.5 23.5s-37.334 23.333 -56.001 40
l70 100c24.667 -23.333 50.334 -38.666 77.001 -45.999s53.667 -11 81 -11c18 0 33 3.66699 45 11s18 16 18 26c0 9.33301 -3.66699 18 -11 26s-24.333 13.667 -51 17c-24.667 2.66699 -49 6.33398 -73 11.001s-45.333 12.167 -64 22.5s-33.667 24.333 -45 42
s-17 41.167 -17 70.5c0 26.667 5 50.167 15 70.5s23.5 37 40.5 50s37 22.833 60 29.5s47.167 10 72.5 10c38 0 73.333 -3.83301 106 -11.5s64.667 -23.167 96 -46.5l-64 -106c-26.667 18 -52.334 29.333 -77.001 34s-44 7 -58 7c-21.333 0 -36.333 -3.5 -45 -10.5
s-13 -14.167 -13 -21.5c0 -11.333 7.33301 -20 22 -26s40.667 -11.333 78 -16c22.667 -2.66699 44.167 -6.83398 64.5 -12.501s38.166 -14 53.499 -25s27.5 -25.5 36.5 -43.5s13.5 -40.333 13.5 -67zM394.002 724.999l56 -49l-148 -155h-103l-147 155l53 48l72.5 -51
l72.5 -52z" />
    <glyph glyph-name="Tcommaaccent" unicode="&#x162;" horiz-adv-x="556" 
d="M351 558v-558h-153v558h-190v138h533v-138h-190zM198 -313l35 108h-33v151h154v-143l-89 -116h-67z" />
    <glyph glyph-name="tcommaaccent" unicode="&#x163;" horiz-adv-x="333" 
d="M229 384v-209.001c0 -21.333 3.5 -35.166 10.5 -41.499s17.833 -9.5 32.5 -9.5h31v-124h-77c-40 0 -73.333 11.667 -100 35s-40 56 -40 98v251h-54v112h56v136h139v-136h75v-112h-73zM91 -313.001l35 108h-33v151h154v-143l-89 -116h-67z" />
    <glyph glyph-name="Tcaron" unicode="&#x164;" horiz-adv-x="556" 
d="M351 558v-558h-153v558h-190v138h533v-138h-190zM422 908l51 -59l-151 -120h-98l-149 120l48 58l150 -78z" />
    <glyph glyph-name="tcaron" unicode="&#x165;" horiz-adv-x="448" 
d="M292 557l35 108h-33v151h154v-143l-89 -116h-67zM229 384v-209.001c0 -21.333 3.5 -35.166 10.5 -41.499s17.833 -9.5 32.5 -9.5h31v-124h-77c-40 0 -73.333 11.667 -100 35s-40 56 -40 98v251h-54v112h56v136h139v-136h75v-112h-73z" />
    <glyph glyph-name="Tbar" unicode="&#x166;" horiz-adv-x="556" 
d="M351 558v-155h161v-99h-161v-304h-153v304h-160v99h160v155h-190v138h533v-138h-190z" />
    <glyph glyph-name="tbar" unicode="&#x167;" horiz-adv-x="333" 
d="M229 384v-73.001h73v-93h-73v-43c0 -21.333 3.5 -35.166 10.5 -41.499s17.833 -9.5 32.5 -9.5h31v-124h-77c-40 0 -73.333 11.667 -100 35s-40 56 -40 98v85h-53v93h53v73h-54v112h56v136h139v-136h75v-112h-73z" />
    <glyph glyph-name="Utilde" unicode="&#x168;" horiz-adv-x="657" 
d="M600 243c0 -37.333 -7.16797 -71.167 -21.501 -101.5s-33.666 -56.333 -57.999 -78s-53 -38.5 -86 -50.5s-68.167 -18 -105.5 -18s-72.5 6.16699 -105.5 18.5s-61.833 29.666 -86.5 51.999s-44 49.333 -58 81s-21 66.834 -21 105.501v444h153v-433
c0 -40 11.5 -70.833 34.5 -92.5s50.833 -32.5 83.5 -32.5c34 0 62 9.66699 84 29s33 48.333 33 87v442h154v-453zM263.999 880.999c12.667 0 25.335 -2.66602 38.002 -7.99902s24.667 -11 36 -17l32 -16.5c10 -5 19 -7.5 27 -7.5c11.333 0 22 3.66699 32 11
s21.667 19.666 35 36.999l68 -40c-17.333 -38.667 -36 -66.5 -56 -83.5s-41.667 -25.5 -65 -25.5c-13.333 0 -26.5 2.5 -39.5 7.5s-25.333 10.333 -37 16l-33.5 16c-10.667 5 -20.667 7.5 -30 7.5c-11.333 0 -22.833 -3.5 -34.5 -10.5s-24.834 -20.167 -39.501 -39.5l-65 41
c17.333 36 36.166 63.667 56.499 83s45.5 29 75.5 29z" />
    <glyph glyph-name="utilde" unicode="&#x169;" horiz-adv-x="551" 
d="M204 495l0.00292969 -293c0 -25.333 6.5 -44.333 19.5 -57s29.5 -19 49.5 -19c21.333 0 39.333 6.33301 54 19s22 31.667 22 57v293h143v-495h-143v42h-2c-6.66699 -8 -14.834 -15 -24.501 -21s-19.834 -11 -30.501 -15s-21.334 -7 -32.001 -9s-20.667 -3 -30 -3
c-52 0 -93.167 15 -123.5 45s-45.5 74.333 -45.5 133v323h143zM202.003 711c12.667 0 25.335 -2.66602 38.002 -7.99902s24.667 -11 36 -17l32 -16.5c10 -5 19 -7.5 27 -7.5c11.333 0 22 3.66699 32 11s21.667 19.666 35 36.999l68 -40c-17.333 -38.667 -36 -66.5 -56 -83.5
s-41.667 -25.5 -65 -25.5c-13.333 0 -26.5 2.5 -39.5 7.5s-25.333 10.333 -37 16l-33.5 16c-10.667 5 -20.667 7.5 -30 7.5c-11.333 0 -22.833 -3.5 -34.5 -10.5s-24.834 -20.167 -39.501 -39.5l-65 41c17.333 36 36.166 63.667 56.499 83s45.5 29 75.5 29z" />
    <glyph glyph-name="Umacron" unicode="&#x16a;" horiz-adv-x="657" 
d="M600 243c0 -37.333 -7.16797 -71.167 -21.501 -101.5s-33.666 -56.333 -57.999 -78s-53 -38.5 -86 -50.5s-68.167 -18 -105.5 -18s-72.5 6.16699 -105.5 18.5s-61.833 29.666 -86.5 51.999s-44 49.333 -58 81s-21 66.834 -21 105.501v444h153v-433
c0 -40 11.5 -70.833 34.5 -92.5s50.833 -32.5 83.5 -32.5c34 0 62 9.66699 84 29s33 48.333 33 87v442h154v-453zM165.999 757.999v118h333v-118h-333z" />
    <glyph glyph-name="umacron" unicode="&#x16b;" horiz-adv-x="551" 
d="M204 495l0.00292969 -293c0 -25.333 6.5 -44.333 19.5 -57s29.5 -19 49.5 -19c21.333 0 39.333 6.33301 54 19s22 31.667 22 57v293h143v-495h-143v42h-2c-6.66699 -8 -14.834 -15 -24.501 -21s-19.834 -11 -30.501 -15s-21.334 -7 -32.001 -9s-20.667 -3 -30 -3
c-52 0 -93.167 15 -123.5 45s-45.5 74.333 -45.5 133v323h143zM112.003 578v118h333v-118h-333z" />
    <glyph glyph-name="Ubreve" unicode="&#x16c;" horiz-adv-x="657" 
d="M600 243c0 -37.333 -7.16797 -71.167 -21.501 -101.5s-33.666 -56.333 -57.999 -78s-53 -38.5 -86 -50.5s-68.167 -18 -105.5 -18s-72.5 6.16699 -105.5 18.5s-61.833 29.666 -86.5 51.999s-44 49.333 -58 81s-21 66.834 -21 105.501v444h153v-433
c0 -40 11.5 -70.833 34.5 -92.5s50.833 -32.5 83.5 -32.5c34 0 62 9.66699 84 29s33 48.333 33 87v442h154v-453zM327.999 730.999c-28.667 0 -52.665 5.5 -71.998 16.5s-34.833 24.667 -46.5 41s-20.334 33.833 -26.001 52.5s-9.5 35.667 -11.5 51h100
c0 -6.66699 1.16699 -13.834 3.5 -21.501s5.83301 -15 10.5 -22s10.5 -12.833 17.5 -17.5s15.167 -7 24.5 -7s17.5 2.33301 24.5 7s12.833 10.5 17.5 17.5s8.16699 14.333 10.5 22s3.5 14.834 3.5 21.501h100c-2 -15.333 -5.83301 -32.333 -11.5 -51
s-14.334 -36.167 -26.001 -52.5s-27.167 -30 -46.5 -41s-43.333 -16.5 -72 -16.5z" />
    <glyph glyph-name="ubreve" unicode="&#x16d;" horiz-adv-x="551" 
d="M204 495l0.00292969 -293c0 -25.333 6.5 -44.333 19.5 -57s29.5 -19 49.5 -19c21.333 0 39.333 6.33301 54 19s22 31.667 22 57v293h143v-495h-143v42h-2c-6.66699 -8 -14.834 -15 -24.501 -21s-19.834 -11 -30.501 -15s-21.334 -7 -32.001 -9s-20.667 -3 -30 -3
c-52 0 -93.167 15 -123.5 45s-45.5 74.333 -45.5 133v323h143zM280.003 561c-28.667 0 -52.665 5.5 -71.998 16.5s-34.833 24.667 -46.5 41s-20.334 33.833 -26.001 52.5s-9.5 35.667 -11.5 51h100c0 -6.66699 1.16699 -13.834 3.5 -21.501s5.83301 -15 10.5 -22
s10.5 -12.833 17.5 -17.5s15.167 -7 24.5 -7s17.5 2.33301 24.5 7s12.833 10.5 17.5 17.5s8.16699 14.333 10.5 22s3.5 14.834 3.5 21.501h100c-2 -15.333 -5.83301 -32.333 -11.5 -51s-14.334 -36.167 -26.001 -52.5s-27.167 -30 -46.5 -41s-43.333 -16.5 -72 -16.5z" />
    <glyph glyph-name="Uring" unicode="&#x16e;" horiz-adv-x="657" 
d="M600 243c0 -37.333 -7.16797 -71.167 -21.501 -101.5s-33.666 -56.333 -57.999 -78s-53 -38.5 -86 -50.5s-68.167 -18 -105.5 -18s-72.5 6.16699 -105.5 18.5s-61.833 29.666 -86.5 51.999s-44 49.333 -58 81s-21 66.834 -21 105.501v444h153v-433
c0 -40 11.5 -70.833 34.5 -92.5s50.833 -32.5 83.5 -32.5c34 0 62 9.66699 84 29s33 48.333 33 87v442h154v-453zM368.999 812.999c0 10.667 -3.83301 19.5 -11.5 26.5s-17.167 10.5 -28.5 10.5s-21 -3.5 -29 -10.5s-12 -15.833 -12 -26.5s4 -19.667 12 -27
s17.667 -11 29 -11s20.833 3.66699 28.5 11s11.5 16.333 11.5 27zM203.999 812.999c0 16 3.33301 31 10 45s15.667 26.333 27 37s24.5 19 39.5 25s31.167 9 48.5 9c16.667 0 32.667 -3 48 -9s28.5 -14.333 39.5 -25s19.833 -23 26.5 -37s10 -29 10 -45s-3.33301 -31 -10 -45
s-15.667 -26.333 -27 -37s-24.5 -19 -39.5 -25s-31.167 -9 -48.5 -9s-33.5 3 -48.5 9s-28 14.333 -39 25s-19.833 23 -26.5 37s-10 29 -10 45z" />
    <glyph glyph-name="uring" unicode="&#x16f;" horiz-adv-x="551" 
d="M204 495l0.00292969 -293c0 -25.333 6.5 -44.333 19.5 -57s29.5 -19 49.5 -19c21.333 0 39.333 6.33301 54 19s22 31.667 22 57v293h143v-495h-143v42h-2c-6.66699 -8 -14.834 -15 -24.501 -21s-19.834 -11 -30.501 -15s-21.334 -7 -32.001 -9s-20.667 -3 -30 -3
c-52 0 -93.167 15 -123.5 45s-45.5 74.333 -45.5 133v323h143zM319.003 643c0 10.667 -3.83301 19.5 -11.5 26.5s-17.167 10.5 -28.5 10.5s-21 -3.5 -29 -10.5s-12 -15.833 -12 -26.5s4 -19.667 12 -27s17.667 -11 29 -11s20.833 3.66699 28.5 11s11.5 16.333 11.5 27z
M154.003 643c0 16 3.33301 31 10 45s15.667 26.333 27 37s24.5 19 39.5 25s31.167 9 48.5 9c16.667 0 32.667 -3 48 -9s28.5 -14.333 39.5 -25s19.833 -23 26.5 -37s10 -29 10 -45s-3.33301 -31 -10 -45s-15.667 -26.333 -27 -37s-24.5 -19 -39.5 -25s-31.167 -9 -48.5 -9
s-33.5 3 -48.5 9s-28 14.333 -39 25s-19.833 23 -26.5 37s-10 29 -10 45z" />
    <glyph glyph-name="Uhungarumlaut" unicode="&#x170;" horiz-adv-x="657" 
d="M600 243c0 -37.333 -7.16797 -71.167 -21.501 -101.5s-33.666 -56.333 -57.999 -78s-53 -38.5 -86 -50.5s-68.167 -18 -105.5 -18s-72.5 6.16699 -105.5 18.5s-61.833 29.666 -86.5 51.999s-44 49.333 -58 81s-21 66.834 -21 105.501v444h153v-433
c0 -40 11.5 -70.833 34.5 -92.5s50.833 -32.5 83.5 -32.5c34 0 62 9.66699 84 29s33 48.333 33 87v442h154v-453zM104.999 783.999l161 151l104 -94l-200 -118zM324.999 783.999l161 151l104 -94l-200 -118z" />
    <glyph glyph-name="uhungarumlaut" unicode="&#x171;" horiz-adv-x="551" 
d="M204 495l0.00292969 -293c0 -25.333 6.5 -44.333 19.5 -57s29.5 -19 49.5 -19c21.333 0 39.333 6.33301 54 19s22 31.667 22 57v293h143v-495h-143v42h-2c-6.66699 -8 -14.834 -15 -24.501 -21s-19.834 -11 -30.501 -15s-21.334 -7 -32.001 -9s-20.667 -3 -30 -3
c-52 0 -93.167 15 -123.5 45s-45.5 74.333 -45.5 133v323h143zM119.003 567l85 203l133 -43l-135 -190zM306.003 567l85 203l133 -43l-135 -190z" />
    <glyph glyph-name="Uogonek" unicode="&#x172;" horiz-adv-x="657" 
d="M242 -102c0 14 2.66699 28.832 8 44.499s15.333 34.5 30 56.5c-31.333 4.66699 -60.5 14 -87.5 28s-50.5 32 -70.5 54s-35.667 47.333 -47 76s-17 60.334 -17 95.001v444h153v-433c0 -40 11.5 -70.833 34.5 -92.5s50.833 -32.5 83.5 -32.5c34 0 62 9.66699 84 29
s33 48.333 33 87v442h154v-453c0 -33.333 -5.83301 -64.166 -17.5 -92.499s-27.5 -53 -47.5 -74s-43.833 -38.333 -71.5 -52s-57.5 -22.5 -89.5 -26.5c-14.667 -19.333 -25.167 -35.833 -31.5 -49.5s-9.5 -25.5 -9.5 -35.5c0 -18 10.667 -27 32 -27
c6 0 14.333 1.16699 25 3.5s23.667 6.16602 39 11.499l28 -70c-17.333 -9.33301 -35.333 -16.833 -54 -22.5s-36.667 -8.5 -54 -8.5c-32 0 -57.833 9.66699 -77.5 29s-29.5 42.333 -29.5 69z" />
    <glyph glyph-name="uogonek" unicode="&#x173;" horiz-adv-x="551" 
d="M308 -102c0 14 3.00195 29.1689 9.00195 45.502s16.667 35.833 32 58.5v40h-2c-6.66699 -8 -14.834 -15 -24.501 -21s-19.834 -11 -30.501 -15s-21.334 -7 -32.001 -9s-20.667 -3 -30 -3c-52 0 -93.167 15 -123.5 45s-45.5 74.333 -45.5 133v323h143v-293
c0 -25.333 6.5 -44.333 19.5 -57s29.5 -19 49.5 -19c21.333 0 39.333 6.33301 54 19s22 31.667 22 57v293h143v-495h-51c-15.333 -20.667 -26.166 -37.834 -32.499 -51.501s-9.5 -25.5 -9.5 -35.5c0 -18 10.667 -27 32 -27c6 0 14.333 1.16699 25 3.5
s23.667 6.16602 39 11.499l28 -70c-17.333 -9.33301 -35.333 -16.833 -54 -22.5s-36.667 -8.5 -54 -8.5c-32 0 -57.833 9.66699 -77.5 29s-29.5 42.333 -29.5 69z" />
    <glyph glyph-name="Wcircumflex" unicode="&#x174;" horiz-adv-x="854" 
d="M667 -2h-124l-65 226l-49 190h-3l-50 -193l-64 -223h-125l-186 696h161l49 -206l44 -198h3l53 198l60 206h112l60 -205l53 -199h5l42 198l49 206h161zM427 805l-150 -78l-48 58l149 120h98l151 -120l-51 -59z" />
    <glyph glyph-name="wcircumflex" unicode="&#x175;" horiz-adv-x="753" 
d="M581 0h-120l-38 122l-44 151h-3l-43 -150l-40 -123h-119l-169 495h152l35 -123l39 -154h5l45 154l40 123h114l39 -123l44 -154h6l39 154l35 123h152zM374 625l-72.5 -52l-72.5 -51l-53 48l147 155h103l148 -155l-56 -49z" />
    <glyph glyph-name="Ycircumflex" unicode="&#x176;" horiz-adv-x="605" 
d="M378 285v-285h-147v285l-224 411h165l71 -150l60 -135h4l59 134l72 151h165zM305 805l-150 -78l-48 58l149 120h98l151 -120l-51 -59z" />
    <glyph glyph-name="ycircumflex" unicode="&#x177;" horiz-adv-x="502" 
d="M278 -96c-15.333 -40 -37 -67.333 -65 -82s-58.667 -22 -92 -22h-57v117h37c15.333 0 27.5 4.83301 36.5 14.5s15.833 21.167 20.5 34.5l24 74l-182 455h153l48 -141l48 -156h4l47 154l50 143h152zM251 625l-72.5 -52l-72.5 -51l-53 48l147 155h103l148 -155l-56 -49z
" />
    <glyph glyph-name="Ydieresis" unicode="&#x178;" horiz-adv-x="605" 
d="M378 285v-285h-147v285l-224 411h165l71 -150l60 -135h4l59 134l72 151h165zM337 744v133h152v-133h-152zM122 744v133h153v-133h-153z" />
    <glyph glyph-name="Zacute" unicode="&#x179;" horiz-adv-x="549" 
d="M163 802l180 128l90 -107l-214 -90zM28 0v131l306 428h-293v137h479v-127l-305 -428h305v-141h-492z" />
    <glyph glyph-name="zacute" unicode="&#x17a;" horiz-adv-x="463" 
d="M173 567l85 203l133 -43l-135 -190zM28 0v119l229 254h-215v122h392v-114l-228 -253h228v-128h-406z" />
    <glyph glyph-name="Zdotaccent" unicode="&#x17b;" horiz-adv-x="549" 
d="M28 0v131l306 428h-293v137h479v-127l-305 -428h305v-141h-492zM200 749v130h148v-130h-148z" />
    <glyph glyph-name="zdotaccent" unicode="&#x17c;" horiz-adv-x="463" 
d="M169 569v130h148v-130h-148zM28 0v119l229 254h-215v122h392v-114l-228 -253h228v-128h-406z" />
    <glyph glyph-name="Zcaron" unicode="&#x17d;" horiz-adv-x="549" 
d="M28 0v131l306 428h-293v137h479v-127l-305 -428h305v-141h-492zM427 908l51 -59l-151 -120h-98l-149 120l48 58l150 -78z" />
    <glyph glyph-name="zcaron" unicode="&#x17e;" horiz-adv-x="463" 
d="M382 725l56 -49l-148 -155h-103l-147 155l53 48l72.5 -51l72.5 -52zM28 0v119l229 254h-215v122h392v-114l-228 -253h228v-128h-406z" />
    <glyph glyph-name="florin" unicode="&#x192;" horiz-adv-x="550" 
d="M128 431h93.001l7 55c2.66699 24.667 7.83398 49.667 15.501 75s19 48.333 34 69s34.5 37.5 58.5 50.5s53.667 19.5 89 19.5c17.333 -0.666992 36.166 -3.16699 56.499 -7.5s38.166 -9.5 53.499 -15.5l-30 -120l-27.5 9.5c-7 2.33301 -13.167 4 -18.5 5
s-10.5 1.66699 -15.5 2s-10.5 0.5 -16.5 0.5c-9.33301 0 -17.166 -2.83301 -23.499 -8.5s-11.833 -13 -16.5 -22s-8.33398 -19.167 -11.001 -30.5s-4.66699 -22.333 -6 -33l-3.5 -24.5l-3.5 -24.5h92l2 -125h-107l-25 -188c-4 -29.333 -10 -57.333 -18 -84
s-19.167 -50.167 -33.5 -70.5s-32.166 -36.5 -53.499 -48.5s-47 -18 -77 -18c-8 0 -17.5 0.833008 -28.5 2.5s-22.5 4 -34.5 7s-23.667 6.5 -35 10.5s-21.666 8 -30.999 12l36 118c21.333 -8.66699 37.166 -14 47.499 -16s19.166 -3 26.499 -3
c15.333 0 27.833 8.83301 37.5 26.5s16.5 43.167 20.5 76.5l22 175h-74z" />
    <glyph glyph-name="Ohorn" unicode="&#x1a0;" horiz-adv-x="634" 
d="M310 701c32 0 61.501 -3.99805 88.501 -11.998s51.167 -19.333 72.5 -34c18 4.66699 31 14.834 39 30.501s12 39.5 12 71.5v54h111v-84c0 -36.667 -7.33301 -68.334 -22 -95.001s-35.667 -47 -63 -61c23.333 -41.333 35 -88.333 35 -141v-164
c0 -41.333 -6.5 -78.833 -19.5 -112.5s-31.333 -62.334 -55 -86.001s-52.334 -41.834 -86.001 -54.501s-71.167 -19 -112.5 -19c-45.333 0 -84.833 7.33301 -118.5 22s-61.667 34.5 -84 59.5s-39 54 -50 87s-16.5 67.5 -16.5 103.5v164c0 36 5.5 70.333 16.5 103
s27.667 61.5 50 86.5s50.333 44.833 84 59.5s73.167 22 118.5 22zM309.001 557.002c-19.333 0 -36 -3.16406 -50 -9.49707s-25.667 -14.833 -35 -25.5s-16.333 -22.834 -21 -36.501s-7 -27.5 -7 -41.5v-189c0 -15.333 2.33301 -30 7 -44s11.667 -26.333 21 -37
s21 -19.334 35 -26.001s30.667 -10 50 -10c37.333 0 66.166 11.167 86.499 33.5s30.5 50.166 30.5 83.499v189c0 30.667 -10.167 57.167 -30.5 79.5s-49.166 33.5 -86.499 33.5z" />
    <glyph glyph-name="ohorn" unicode="&#x1a1;" horiz-adv-x="559" 
d="M265 501c30 0 57.8301 -4.33301 83.4971 -13s48.167 -21.667 67.5 -39c14.667 6 25.167 16.833 31.5 32.5s9.5 37.834 9.5 66.501v54h111v-84c0 -39.333 -8.5 -73 -25.5 -101s-40.833 -48.333 -71.5 -61c4.66699 -16.667 7.83398 -34.167 9.50098 -52.5
s2.5 -37.833 2.5 -58.5c0 -32.667 -3.33301 -61.834 -10 -87.501s-16 -48.5 -28 -68.5c-20.667 -33.333 -48.167 -57.666 -82.5 -72.999s-71.166 -23 -110.499 -23c-38.667 0 -73.167 6.33301 -103.5 19s-54.833 32.667 -73.5 60c-15.333 22 -26.333 47.833 -33 77.5
s-9.66699 62.5 -9 98.5c0.666992 25.333 3 50.333 7 75s10.333 46 19 64c17.333 37.333 44.333 65.666 81 84.999s78.334 29 125.001 29zM259.997 373c-14 0 -26.8311 -3.83203 -38.498 -11.499s-20.834 -18.167 -27.501 -31.5c-5.33301 -10.667 -9 -23 -11 -37
s-3.33301 -29.667 -4 -47c0 -17.333 1 -32.833 3 -46.5s5.66699 -25.5 11 -35.5c6 -12.667 14.333 -22.667 25 -30s23.334 -11 38.001 -11c17.333 0 32.166 4.66699 44.499 14s21.166 22.666 26.499 39.999c2 7.33301 4 16.833 6 28.5s3 25.834 3 42.501
c0.666992 18.667 -0.333008 35.167 -3 49.5s-5.66699 25.166 -9 32.499c-6 14.667 -14.833 25.5 -26.5 32.5s-24.167 10.5 -37.5 10.5z" />
    <glyph glyph-name="Uhorn" unicode="&#x1af;" horiz-adv-x="733" 
d="M600 243c0 -37.333 -7.16797 -71.167 -21.501 -101.5s-33.666 -56.333 -57.999 -78s-53 -38.5 -86 -50.5s-68.167 -18 -105.5 -18s-72.5 6.16699 -105.5 18.5s-61.833 29.666 -86.5 51.999s-44 49.333 -58 81s-21 66.834 -21 105.501v444h153v-433
c0 -40 11.5 -70.833 34.5 -92.5s50.833 -32.5 83.5 -32.5c34 0 62 9.66699 84 29s33 48.333 33 87v442h154v-36c18 4 31 13.667 39 29s12 39 12 71v51h111v-84c0 -52 -14.5 -93.833 -43.5 -125.5s-68.5 -48.5 -118.5 -50.5v-308v0z" />
    <glyph glyph-name="uhorn" unicode="&#x1b0;" horiz-adv-x="644" 
d="M204 495l0.00292969 -293c0 -25.333 6.5 -44.333 19.5 -57s29.5 -19 49.5 -19c21.333 0 39.333 6.33301 54 19s22 31.667 22 57v293h143v-48c17.333 5.33301 29.666 15.666 36.999 30.999s11 38.666 11 69.999v54h111v-84c0 -51.333 -14.167 -92.666 -42.5 -123.999
s-67.166 -48.666 -116.499 -51.999v-342h-143v42h-2c-6.66699 -8 -14.834 -15 -24.501 -21s-19.834 -11 -30.501 -15s-21.334 -7 -32.001 -9s-20.667 -3 -30 -3c-52 0 -93.167 15 -123.5 45s-45.5 74.333 -45.5 133v323h143z" />
    <glyph glyph-name="AEacute" unicode="&#x1fc;" horiz-adv-x="1091" 
d="M550 802l180 128l90 -107l-214 -90zM1035 696v-138h-338v-141h288v-133h-288v-146h338v-138h-492v149h-234l-84 -149h-182l421 696h571zM539 558l-157 -275h161v275h-4z" />
    <glyph glyph-name="aeacute" unicode="&#x1fd;" horiz-adv-x="799" 
d="M477 210c4.66699 -32.667 15.1699 -55.1699 31.5029 -67.5029s36.5 -18.5 60.5 -18.5c12.667 0 27.667 2.83301 45 8.5s36.333 17.834 57 36.501l88 -98c-32 -29.333 -65 -49.333 -99 -60s-67 -16 -99 -16c-30.667 0 -61.667 4.66699 -93 14s-58.666 26.333 -81.999 51
c-18.667 -17.333 -42.167 -32.5 -70.5 -45.5s-63.166 -19.5 -104.499 -19.5c-24 0 -46.667 3 -68 9s-40 15.167 -56 27.5s-28.667 28 -38 47s-14 41.833 -14 68.5c0 20.667 4 40.334 12 59.001s19.5 35 34.5 49s33.667 25 56 33s47.833 12 76.5 12h112v16
c0 5.33301 -1 11.833 -3 19.5s-6 15 -12 22s-14.667 13 -26 18s-26.333 7.5 -45 7.5c-28 0 -51.833 -3.66699 -71.5 -11s-36.834 -18.333 -51.501 -33l-64 92c12.667 14 26.667 25.5 42 34.5s31.166 16 47.499 21s33.166 8.5 50.499 10.5s34.666 3 51.999 3
c12.667 0 26.667 -0.5 42 -1.5s30.666 -3.5 45.999 -7.5s30 -9.5 44 -16.5s26 -16.5 36 -28.5c18.667 19.333 40.5 33.166 65.5 41.499s49.167 12.5 72.5 12.5c39.333 0 73.5 -6.33301 102.5 -19s53 -30.167 72 -52.5s33.167 -49.166 42.5 -80.499s14 -65.666 14 -102.999
v-35h-305zM326.003 195.997h-94.002c-12.667 0 -23 -1.16699 -31 -3.5s-14.167 -5.33301 -18.5 -9s-7.16602 -7.66699 -8.49902 -12s-2 -8.5 -2 -12.5c0 -3.33301 0.833008 -7.5 2.5 -12.5s4.83398 -10 9.50098 -15s11.5 -9.33301 20.5 -13s20.833 -5.5 35.5 -5.5
c22 0 41.833 5.33301 59.5 16s26.5 27.667 26.5 51v16zM632.001 301.997c-2.66699 22.667 -11.5 39.833 -26.5 51.5s-31.5 17.5 -49.5 17.5s-34 -6 -48 -18s-22.667 -29 -26 -51h150zM363.001 566.996l85 203l133 -43l-135 -190z" />
    <glyph glyph-name="Oslashacute" unicode="&#x1fe;" horiz-adv-x="624" 
d="M310 701c36 0 68.835 -4.99805 98.502 -14.998s56.167 -24.333 79.5 -43l44 61l51 -37l-51 -69c34 -47.333 51 -103.333 51 -168v-164c0 -41.333 -6.5 -78.833 -19.5 -112.5s-31.333 -62.334 -55 -86.001s-52.334 -41.834 -86.001 -54.501s-71.167 -19 -112.5 -19
c-38 0 -72 5.16699 -102 15.5s-55.667 24.833 -77 43.5l-43 -58l-49 35l50 68c-16.667 23.333 -28.834 49.333 -36.501 78s-11.5 58.667 -11.5 90v164c0 36 5.5 70.333 16.5 103s27.667 61.5 50 86.5s50.333 44.833 84 59.5s73.167 22 118.5 22zM426.002 444.002
c0 1.33301 -0.166016 2.83398 -0.499023 4.50098s-0.5 3.16699 -0.5 4.5l-204 -277c9.33301 -11.333 21.333 -20.5 36 -27.5s32 -10.5 52 -10.5c37.333 0 66.166 11.167 86.499 33.5s30.5 50.166 30.5 83.499v189zM309.003 557.003c-19.333 0 -36 -3.16602 -50 -9.49902
s-25.667 -14.833 -35 -25.5s-16.333 -22.834 -21 -36.501s-7 -27.5 -7 -41.5v-189v-10l202 275c-10 11.333 -22.5 20.333 -37.5 27s-32.167 10 -51.5 10zM211.003 802.004l180 128l90 -107l-214 -90z" />
    <glyph glyph-name="oslashacute" unicode="&#x1ff;" horiz-adv-x="516" 
d="M265 501c28.667 0 55.5 -3.99805 80.5 -11.998s47.167 -20 66.5 -36l43 50l33 -29l-47 -53l3 -3c14 -20.667 24.167 -45.667 30.5 -75s9.16602 -62 8.49902 -98c0 -32.667 -3.33301 -61.834 -10 -87.501s-16 -48.5 -28 -68.5
c-20.667 -33.333 -48.167 -57.666 -82.5 -72.999s-71.166 -23 -110.499 -23c-30 0 -57.333 3.66699 -82 11s-46.334 18.666 -65.001 33.999l-40 -46l-32 27l44 50c-1.33301 1.33301 -2 2.33301 -2 3c-15.333 22 -26.333 47.833 -33 77.5s-9.66699 62.5 -9 98.5
c0.666992 25.333 3 50.333 7 75s10.333 46 19 64c17.333 37.333 44.333 65.666 81 84.999s78.334 29 125.001 29zM191 567.002l85 203l133 -43l-135 -190zM260 373.002c-14 0 -26.8311 -3.83301 -38.498 -11.5s-20.834 -18.167 -27.501 -31.5
c-5.33301 -10.667 -9 -23 -11 -37s-3.33301 -29.667 -4 -47c0 -22.667 1.33301 -40.667 4 -54l133 152c-6.66699 9.33301 -14.834 16.5 -24.501 21.5s-20.167 7.5 -31.5 7.5zM336.002 248.002c0 18.667 -0.998047 35 -2.99805 49l-131 -149
c13.333 -16.667 31.333 -25 54 -25c17.333 0 32.166 4.66699 44.499 14s21.166 22.666 26.499 39.999c2 7.33301 4 16.833 6 28.5s3 25.834 3 42.501z" />
    <glyph glyph-name="Scommaaccent" unicode="&#x218;" horiz-adv-x="594" 
d="M469 514c-16.667 10.667 -33.166 18.998 -49.499 24.998s-32 10.667 -47 14s-28.833 5.5 -41.5 6.5s-23.667 1.5 -33 1.5c-19.333 0 -34.833 -2 -46.5 -6s-21 -9.33301 -28 -16s-11.667 -13.834 -14 -21.501s-3.5 -14.834 -3.5 -21.501
c0 -11.333 2.16699 -20.666 6.5 -27.999s12 -13.666 23 -18.999s26 -10 45 -14s42.833 -8.33301 71.5 -13s56 -11.5 82 -20.5s48.833 -21.5 68.5 -37.5s35.334 -36.167 47.001 -60.5s17.5 -54.166 17.5 -89.499c0 -36 -8 -67.833 -24 -95.5s-36.833 -50.667 -62.5 -69
s-55 -32.166 -88 -41.499s-66.5 -14 -100.5 -14c-23.333 0 -47 1.16699 -71 3.5s-48 7 -72 14s-47.833 16.833 -71.5 29.5s-46.834 29 -69.501 49l89 118c32.667 -29.333 65.667 -48.833 99 -58.5s68 -14.5 104 -14.5c34 0 60 6.83301 78 20.5s27 29.834 27 48.501
c0 8.66699 -1 17 -3 25s-6.33301 15.5 -13 22.5s-16.334 13 -29.001 18s-29.334 8.5 -50.001 10.5c-33.333 3.33301 -65.333 8.66602 -96 15.999s-58 18.833 -82 34.5s-43.167 36 -57.5 61s-21.5 57.167 -21.5 96.5c0 36.667 7.16699 68.5 21.5 95.5s33 49.333 56 67
s48.833 30.667 77.5 39s57.334 12.5 86.001 12.5c42.667 0 85 -4.66699 127 -14s81.667 -26.333 119 -51zM221.001 -313.002l35 108h-33v151h154v-143l-89 -116h-67z" />
    <glyph glyph-name="scommaaccent" unicode="&#x219;" horiz-adv-x="468" 
d="M445 155c0 -26.667 -5.83105 -50.001 -17.498 -70.001s-27.334 -36.833 -47.001 -50.5s-42 -23.834 -67 -30.501s-50.833 -10 -77.5 -10c-18.667 0 -37.167 0.833008 -55.5 2.5s-36.666 5.33398 -54.999 11.001s-36.833 13.5 -55.5 23.5s-37.334 23.333 -56.001 40
l70 100c24.667 -23.333 50.334 -38.666 77.001 -45.999s53.667 -11 81 -11c18 0 33 3.66699 45 11s18 16 18 26c0 9.33301 -3.66699 18 -11 26s-24.333 13.667 -51 17c-24.667 2.66699 -49 6.33398 -73 11.001s-45.333 12.167 -64 22.5s-33.667 24.333 -45 42
s-17 41.167 -17 70.5c0 26.667 5 50.167 15 70.5s23.5 37 40.5 50s37 22.833 60 29.5s47.167 10 72.5 10c38 0 73.333 -3.83301 106 -11.5s64.667 -23.167 96 -46.5l-64 -106c-26.667 18 -52.334 29.333 -77.001 34s-44 7 -58 7c-21.333 0 -36.333 -3.5 -45 -10.5
s-13 -14.167 -13 -21.5c0 -11.333 7.33301 -20 22 -26s40.667 -11.333 78 -16c22.667 -2.66699 44.167 -6.83398 64.5 -12.501s38.166 -14 53.499 -25s27.5 -25.5 36.5 -43.5s13.5 -40.333 13.5 -67zM154.002 -313.001l35 108h-33v151h154v-143l-89 -116h-67z" />
    <glyph glyph-name="schwa" unicode="&#x259;" horiz-adv-x="533" 
d="M341 284c-3.33301 32 -11.9971 54.502 -25.9971 67.502s-33 19.5 -57 19.5c-12.667 0 -29.334 -3 -50.001 -9s-41.334 -18.333 -62.001 -37l-88 98c32 29.333 66 49.5 102 60.5s70 16.5 102 16.5c27.333 0 54.5 -3.83301 81.5 -11.5s51.333 -21 73 -40
s39.167 -44.667 52.5 -77s20 -73.5 20 -123.5c0 -46.667 -6.5 -86.167 -19.5 -118.5s-30.167 -58.5 -51.5 -78.5s-45.5 -34.5 -72.5 -43.5s-54.5 -13.5 -82.5 -13.5c-39.333 0 -73.333 6.33301 -102 19s-52.334 30.167 -71.001 52.5s-32.5 49.166 -41.5 80.499
s-13.5 65.666 -13.5 102.999v35h306zM189.003 192.002c2.66699 -22.667 11 -40.167 25 -52.5s30 -18.5 48 -18.5s34 6.33301 48 19s22.667 30 26 52h-147z" />
    <glyph glyph-name="primemod" unicode="&#x2b9;" horiz-adv-x="282" 
d="M308 698l-152 -312l-109 36l113 330z" />
    <glyph glyph-name="circumflex" unicode="&#x2c6;" horiz-adv-x="516" 
d="M254 625l-72.5 -52l-72.5 -51l-53 48l147 155h103l148 -155l-56 -49z" />
    <glyph glyph-name="caron" unicode="&#x2c7;" horiz-adv-x="516" 
d="M398 725l56 -49l-148 -155h-103l-147 155l53 48l72.5 -51l72.5 -52z" />
    <glyph glyph-name="breve" unicode="&#x2d8;" horiz-adv-x="533" 
d="M266 561c-28.667 0 -52.665 5.5 -71.998 16.5s-34.833 24.667 -46.5 41s-20.334 33.833 -26.001 52.5s-9.5 35.667 -11.5 51h100c0 -6.66699 1.16699 -13.834 3.5 -21.501s5.83301 -15 10.5 -22s10.5 -12.833 17.5 -17.5s15.167 -7 24.5 -7s17.5 2.33301 24.5 7
s12.833 10.5 17.5 17.5s8.16699 14.333 10.5 22s3.5 14.834 3.5 21.501h100c-2 -15.333 -5.83301 -32.333 -11.5 -51s-14.334 -36.167 -26.001 -52.5s-27.167 -30 -46.5 -41s-43.333 -16.5 -72 -16.5z" />
    <glyph glyph-name="dotaccent" unicode="&#x2d9;" horiz-adv-x="338" 
d="M96 569v130h148v-130h-148z" />
    <glyph glyph-name="ring" unicode="&#x2da;" horiz-adv-x="516" 
d="M318 643c0 10.667 -3.83301 19.5 -11.5 26.5s-17.167 10.5 -28.5 10.5s-21 -3.5 -29 -10.5s-12 -15.833 -12 -26.5s4 -19.667 12 -27s17.667 -11 29 -11s20.833 3.66699 28.5 11s11.5 16.333 11.5 27zM153 643c0 16 3.33301 31 10 45s15.667 26.333 27 37
s24.5 19 39.5 25s31.167 9 48.5 9c16.667 0 32.667 -3 48 -9s28.5 -14.333 39.5 -25s19.833 -23 26.5 -37s10 -29 10 -45s-3.33301 -31 -10 -45s-15.667 -26.333 -27 -37s-24.5 -19 -39.5 -25s-31.167 -9 -48.5 -9s-33.5 3 -48.5 9s-28 14.333 -39 25s-19.833 23 -26.5 37
s-10 29 -10 45z" />
    <glyph glyph-name="ogonek" unicode="&#x2db;" horiz-adv-x="294" 
d="M56 -104c0 14.667 3.16699 30.334 9.5 47.001s17.833 37 34.5 61h89l2 -4c-15.333 -21.333 -26.5 -39 -33.5 -53s-10.5 -26 -10.5 -36c0 -18 10.667 -27 32 -27c6 0 14.333 1.16699 25 3.5s23.667 6.16602 39 11.499l28 -70c-17.333 -9.33301 -35.333 -16.833 -54 -22.5
s-36.667 -8.5 -54 -8.5c-32 0 -57.833 9.66699 -77.5 29s-29.5 42.333 -29.5 69z" />
    <glyph glyph-name="tilde" unicode="&#x2dc;" horiz-adv-x="516" 
d="M199 711c12.667 0 25.335 -2.66602 38.002 -7.99902s24.667 -11 36 -17l32 -16.5c10 -5 19 -7.5 27 -7.5c11.333 0 22 3.66699 32 11s21.667 19.666 35 36.999l68 -40c-17.333 -38.667 -36 -66.5 -56 -83.5s-41.667 -25.5 -65 -25.5c-13.333 0 -26.5 2.5 -39.5 7.5
s-25.333 10.333 -37 16l-33.5 16c-10.667 5 -20.667 7.5 -30 7.5c-11.333 0 -22.833 -3.5 -34.5 -10.5s-24.834 -20.167 -39.501 -39.5l-65 41c17.333 36 36.166 63.667 56.499 83s45.5 29 75.5 29z" />
    <glyph glyph-name="hungarumlaut" unicode="&#x2dd;" horiz-adv-x="576" 
d="M149 567l85 203l133 -43l-135 -190zM336 567l85 203l133 -43l-135 -190z" />
    <glyph glyph-name="tonos" unicode="&#x384;" horiz-adv-x="516" 
d="M183 567l85 203l133 -43l-135 -190z" />
    <glyph glyph-name="dieresistonos" unicode="&#x385;" horiz-adv-x="613" 
d="M419 569v130h149v-130h-149zM36 569v130h148v-130h-148zM203 567l85 203l133 -43l-135 -190z" />
    <glyph glyph-name="Alphatonos" unicode="&#x386;" horiz-adv-x="660" 
d="M497 0l-52 142h-233l-52 -142h-162l270 696h121l270 -696h-162zM371 352l-41 138h-4l-40 -136l-26 -82h137zM-70 537l85 203l133 -43l-135 -190z" />
    <glyph glyph-name="anoteleia" unicode="&#x387;" horiz-adv-x="303" 
d="M67 268v165h169v-165h-169z" />
    <glyph glyph-name="Epsilontonos" unicode="&#x388;" horiz-adv-x="585" 
d="M70 0v696h492v-138h-338v-141h288v-133h-288v-146h338v-138h-492zM-185 537l85 203l133 -43l-135 -190z" />
    <glyph glyph-name="Etatonos" unicode="&#x389;" horiz-adv-x="674" 
d="M452 0v284h-228v-284h-154v696h154v-279h228v279h152v-696h-152zM-177 537l85 203l133 -43l-135 -190z" />
    <glyph glyph-name="Iotatonos" unicode="&#x38a;" horiz-adv-x="294" 
d="M73 0v696h154v-696h-154zM-179 537l85 203l133 -43l-135 -190z" />
    <glyph glyph-name="Omicrontonos" unicode="&#x38c;" horiz-adv-x="624" 
d="M310 701c42 0 79.832 -6.83105 113.499 -20.498s62.334 -32.5 86.001 -56.5s41.834 -52.667 54.501 -86s19 -69.333 19 -108v-164c0 -41.333 -6.5 -78.833 -19.5 -112.5s-31.333 -62.334 -55 -86.001s-52.334 -41.834 -86.001 -54.501s-71.167 -19 -112.5 -19
c-45.333 0 -84.833 7.33301 -118.5 22s-61.667 34.5 -84 59.5s-39 54 -50 87s-16.5 67.5 -16.5 103.5v164c0 36 5.5 70.333 16.5 103s27.667 61.5 50 86.5s50.333 44.833 84 59.5s73.167 22 118.5 22zM308.999 557.002c-19.333 0 -36 -3.16406 -50 -9.49707
s-25.667 -14.833 -35 -25.5s-16.333 -22.834 -21 -36.501s-7 -27.5 -7 -41.5v-189c0 -15.333 2.33301 -30 7 -44s11.667 -26.333 21 -37s21 -19.334 35 -26.001s30.667 -10 50 -10c37.333 0 66.166 11.167 86.499 33.5s30.5 50.166 30.5 83.499v189
c0 30.667 -10.167 57.167 -30.5 79.5s-49.166 33.5 -86.499 33.5zM-161.001 537.005l85 203l133 -43l-135 -190z" />
    <glyph glyph-name="Upsilontonos" unicode="&#x38e;" horiz-adv-x="605" 
d="M378 285v-285h-147v285l-224 411h165l71 -150l60 -135h4l59 134l72 151h165zM-233 537l85 203l133 -43l-135 -190z" />
    <glyph glyph-name="Omegatonos" unicode="&#x38f;" horiz-adv-x="628" 
d="M536 138l62.998 0.000976562v-138h-255v145c26.667 6.66699 47 20.167 61 40.5s21 44.5 21 72.5v186c0 30.667 -10.167 57.167 -30.5 79.5s-49.166 33.5 -86.499 33.5c-19.333 0 -36 -3.16699 -50 -9.5s-25.667 -14.833 -35 -25.5s-16.333 -22.834 -21 -36.501
s-7 -27.5 -7 -41.5v-186c0 -26 6.66699 -50 20 -72s34.666 -36 63.999 -42v-144h-254v138h60l1 5c-18.667 18 -31 40.5 -37 67.5s-9 54.167 -9 81.5v138c0 36 5.5 70.333 16.5 103s27.667 61.5 50 86.5s50.333 44.833 84 59.5s73.167 22 118.5 22
c42 0 79.833 -6.83301 113.5 -20.5s62.334 -32.5 86.001 -56.5s41.834 -52.667 54.501 -86s19 -69.333 19 -108v-138c0 -30 -3.5 -57.5 -10.5 -82.5s-19.5 -48.167 -37.5 -69.5zM-158.002 537.001l85 203l133 -43l-135 -190z" />
    <glyph glyph-name="iotadieresistonos" unicode="&#x390;" horiz-adv-x="300" 
d="M261 -8c-7.33301 -0.666992 -15.833 -0.999023 -25.5 -0.999023h-23.5c-36 0 -64 5.16699 -84 15.5s-35 23.166 -45 38.499s-16 32 -18 50s-3 34.667 -3 50v350h142v-340c0 -13.333 3.16699 -24.5 9.5 -33.5s22.5 -13.5 48.5 -13.5zM268 569.001v130h149v-130h-149z
M-115 569.001v130h148v-130h-148zM52 567.001l85 203l133 -43l-135 -190z" />
    <glyph glyph-name="Alpha" unicode="&#x391;" horiz-adv-x="660" 
d="M497 0l-52 142h-233l-52 -142h-162l270 696h121l270 -696h-162zM371 352l-41 138h-4l-40 -136l-26 -82h137z" />
    <glyph glyph-name="Beta" unicode="&#x392;" horiz-adv-x="637" 
d="M604 207c0 -31.333 -5.83496 -59.6689 -17.502 -85.002s-27.334 -47 -47.001 -65s-42.667 -32 -69 -42s-54.166 -15 -83.499 -15h-317v696h293c36.667 0 69.334 -4.83301 98.001 -14.5s52.834 -23.167 72.501 -40.5s34.5 -38.166 44.5 -62.499s15 -50.833 15 -79.5
c0 -25.333 -6.66699 -50.666 -20 -75.999s-35.666 -45.333 -66.999 -60v-4c16 -6 30 -14.667 42 -26s22.167 -24 30.5 -38s14.666 -28.667 18.999 -44s6.5 -30 6.5 -44zM429.998 491.997c0 19.333 -6.66699 35.167 -20 47.5s-36 18.5 -68 18.5h-118v-139h118
c32 0 54.667 7.33301 68 22s20 31.667 20 51zM445.998 213.998c0 10 -1.66797 19.6689 -5.00098 29.002s-8.66602 17.666 -15.999 24.999s-16.833 13.166 -28.5 17.499s-25.5 6.5 -41.5 6.5h-131v-154h131c32.667 0 56 7.66699 70 23s21 33 21 53z" />
    <glyph glyph-name="Gamma" unicode="&#x393;" horiz-adv-x="566" 
d="M224 558v-558h-154v696h492v-138h-338z" />
    <glyph glyph-name="Delta" unicode="&#x394;" horiz-adv-x="661" 
d="M-2 0l270 696h121l270 -696h-661zM388 322l-55 185h-7l-55 -185l-63 -189h241z" />
    <glyph glyph-name="Delta" unicode="&#x2206;" horiz-adv-x="661" 
d="M-2 0l270 696h121l270 -696h-661zM388 322l-55 185h-7l-55 -185l-63 -189h241z" />
    <glyph glyph-name="Epsilon" unicode="&#x395;" horiz-adv-x="585" 
d="M70 0v696h492v-138h-338v-141h288v-133h-288v-146h338v-138h-492z" />
    <glyph glyph-name="Zeta" unicode="&#x396;" horiz-adv-x="549" 
d="M28 0v131l306 428h-293v137h479v-127l-305 -428h305v-141h-492z" />
    <glyph glyph-name="Eta" unicode="&#x397;" horiz-adv-x="674" 
d="M452 0v284h-228v-284h-154v696h154v-279h228v279h152v-696h-152z" />
    <glyph glyph-name="Theta" unicode="&#x398;" horiz-adv-x="624" 
d="M310 701c42 0 79.832 -6.83105 113.499 -20.498s62.334 -32.5 86.001 -56.5s41.834 -52.667 54.501 -86s19 -69.333 19 -108v-164c0 -41.333 -6.5 -78.833 -19.5 -112.5s-31.333 -62.334 -55 -86.001s-52.334 -41.834 -86.001 -54.501s-71.167 -19 -112.5 -19
c-45.333 0 -84.833 7.33301 -118.5 22s-61.667 34.5 -84 59.5s-39 54 -50 87s-16.5 67.5 -16.5 103.5v164c0 36 5.5 70.333 16.5 103s27.667 61.5 50 86.5s50.333 44.833 84 59.5s73.167 22 118.5 22zM308.999 557.002c-19.333 0 -36 -3.16406 -50 -9.49707
s-25.667 -14.833 -35 -25.5s-16.333 -22.834 -21 -36.501s-7 -27.5 -7 -41.5v-189c0 -15.333 2.33301 -30 7 -44s11.667 -26.333 21 -37s21 -19.334 35 -26.001s30.667 -10 50 -10c37.333 0 66.166 11.167 86.499 33.5s30.5 50.166 30.5 83.499v189
c0 30.667 -10.167 57.167 -30.5 79.5s-49.166 33.5 -86.499 33.5zM396.999 285.005h-172v123h172v-123z" />
    <glyph glyph-name="Iota" unicode="&#x399;" horiz-adv-x="294" 
d="M73 0v696h154v-696h-154z" />
    <glyph glyph-name="Kappa" unicode="&#x39a;" horiz-adv-x="657" 
d="M495 0l-180 296l-91 -102v-194h-154v696h154v-298l2 -2l106 129l145 171h186l-244 -282l258 -414h-182z" />
    <glyph glyph-name="Lambda" unicode="&#x39b;" horiz-adv-x="637" 
d="M487 0l-79 225l-88 252h-4l-86 -249l-80 -228h-162l270 696h121l270 -696h-162z" />
    <glyph glyph-name="Mu" unicode="&#x39c;" horiz-adv-x="782" 
d="M568 0v331l-3 1l-63 -141l-47 -98h-118l-49 103l-61 136l-3 -3v-329h-154v696h139l94 -202l90 -209h4l87 209l92 202h145v-696h-153z" />
    <glyph glyph-name="Nu" unicode="&#x39d;" horiz-adv-x="710" 
d="M506 0l-177 256l-103 166l-2 -1v-421h-154v696h137l146 -213l134 -209l2 1v421h154v-696h-137z" />
    <glyph glyph-name="Xi" unicode="&#x39e;" horiz-adv-x="609" 
d="M53 558v138h500v-138h-500zM104 284v133h398v-133h-398zM50 0v138h508v-138h-508z" />
    </font>
</defs>
</svg>
