<svg id="Capa_1" enable-background="new 0 0 512.009 512.009" height="512" viewBox="0 0 512.009 512.009" width="512" xmlns="http://www.w3.org/2000/svg"><g><path d="m63.849 279.322c-2.547 12.045-3.839 24.358-3.839 36.683v21.266c-17.233 4.452-30 20.13-30 38.734 0 22.056 17.944 40 40 40h146v56c0 2.652 1.054 5.196 2.929 7.071l30 30c1.953 1.953 4.512 2.929 7.071 2.929s5.119-.976 7.071-2.929l30-30c1.875-1.875 2.929-4.419 2.929-7.071v-56h146c22.056 0 40-17.944 40-40 0-18.604-12.767-34.282-30-38.734v-21.266c0-12.352-1.295-24.687-3.847-36.744 13.21-14.007 24.698-29.766 34.154-46.959 2.662-4.839.896-10.92-3.943-13.582-4.838-2.661-10.919-.897-13.582 3.943-6.644 12.08-14.391 23.37-23.084 33.761-10.612-29.884-29.142-57.253-53.674-79.202 44.604-30.247 77.837-79.548 90.718-133.496 8.744 23.278 13.277 48.14 13.257 73.271-.007 7.938-.46 15.988-1.347 23.928-.613 5.488 3.339 10.435 8.828 11.048 5.488.62 10.435-3.339 11.048-8.828.968-8.667 1.463-17.459 1.471-26.13.032-39.292-10.099-77.997-29.296-111.932-2.164-3.827-6.572-5.792-10.867-4.839-4.292.951-7.46 4.594-7.806 8.978-4.928 62.528-40.939 122.552-92.373 154.818-22.894-16.568-48.939-28.155-76.09-33.885-2.841-19.291-19.5-34.147-39.568-34.147s-36.727 14.856-39.568 34.147c-27.151 5.73-53.201 17.322-76.103 33.897-51.932-32.527-88.252-92.564-93.159-154.832-.346-4.383-3.513-8.026-7.805-8.978-4.293-.953-8.703 1.012-10.868 4.838-19.009 33.593-28.863 72.674-28.496 113.016.548 60.266 23.75 118.696 63.839 161.226zm152.16-128.583v185.267h-136v-20c0-79.485 60.149-147.122 136-165.267zm60 317.124-20 20-20-20v-51.858h40zm186-91.858c0 11.028-8.972 20-20 20h-372c-11.028 0-20-8.972-20-20s8.972-20 20-20h372c11.028 0 20 8.973 20 20zm-30-60v20h-136v-185.266c75.923 18.159 136 85.909 136 165.266zm-176-200c11.028 0 20 8.972 20 20v200h-40v-200c0-11.027 8.973-20 20-20zm-223.447-72.13c12.856 52.91 46.11 102.703 91.409 133.363-24.539 21.963-43.068 49.338-53.669 79.217-31.671-37.922-49.829-87.484-50.293-138.541-.234-25.712 4.06-50.828 12.553-74.039z"/><circle cx="491.009" cy="186.005" r="10"/></g></svg>